<svg width="924" height="420" viewBox="0 0 924 420" fill="none" xmlns="http://www.w3.org/2000/svg">
<path d="M55.3382 380.918C77.4652 396.507 103.934 403.238 133.242 403.276C161.13 403.895 184.385 397.281 206.971 388.848C232.187 379.487 256.777 378.752 283.872 383.549C324.453 390.743 362.903 406.293 404.569 408.846C442.895 411.167 481.679 411.051 519.421 416.815C583.004 426.563 643.04 411.477 703.868 400.259C740.983 393.412 778.014 385.947 815.171 379.061C849.238 372.756 875.999 355.465 897.583 331.405C926.933 298.719 932.026 260.579 911.862 223.986C877.377 161.283 826.777 115.832 747.537 100.591C707.375 92.8546 668.047 80.4377 627.3 73.8231C608.513 70.7673 589.768 68.7172 570.73 69.8002C537.122 71.7343 503.639 68.2916 470.073 68.1369C452.205 68.0596 440.557 60.594 435.589 46.3977C423.314 11.5841 393.464 3.57696 359.355 0.637138C313.222 -3.34709 273.477 11.7388 236.404 35.1413C231.185 38.4293 225.674 41.3691 220.581 44.8118C207.847 53.4378 194.571 54.2115 179.208 50.6527C148.23 43.5353 117.21 35.3347 84.4373 39.1642C63.1871 41.6399 47.3642 51.8906 34.5055 66.7444C21.772 81.5595 23.5672 105.117 38.2212 118.153C43.7738 123.142 49.9109 127.63 55.8392 132.271C77.4235 149.098 78.2167 172.346 57.7597 190.526C55.2965 192.692 52.7498 194.897 49.8691 196.522C-28.7861 240.697 -4.73864 338.562 55.3382 380.918Z" fill="#F7F4F1"/>
</svg>
