<svg width="275" height="262" viewBox="0 0 275 262" fill="none" xmlns="http://www.w3.org/2000/svg">
<path d="M257.441 201.31C250.524 194.708 241.792 192.284 232.916 190.291C217.252 186.787 202.342 181.523 188.604 173.068C174.659 164.485 160.884 155.563 146.3 148.035C142.304 145.965 138.819 143.058 135.855 139.654C133.081 136.468 130.536 133.07 127.848 129.787C109.821 107.799 93.8153 84.6115 84.7317 57.3426C82.3244 50.1172 79.0674 43.0493 79.5976 35.1397C79.8555 31.207 81.0836 30.1582 84.9406 30.2832C87.1915 30.3562 89.3741 30.7641 91.5715 31.2862C94.9729 32.1047 98.2258 31.7814 100.481 28.6515C103.826 23.9995 102.262 14.2166 97.8118 10.5088C94.5076 7.77274 90.5182 6.76729 86.6029 5.50653L84.4816 5.36309C83.4401 5.50772 82.3986 5.65235 81.3451 5.80747C77.6247 6.33687 73.5327 6.33182 70.3893 8.20185C63.418 12.337 60.076 19.0945 59.7813 27.0427C59.5396 33.3873 60.2504 39.7283 61.4187 46.0098C61.9339 48.7497 62.3384 51.618 61.1526 54.3674C60.7357 55.3239 60.4767 56.7891 59.3062 56.6647C57.8996 56.513 58.4364 54.9647 58.3771 54.0099C57.8992 45.5907 54.7228 38.5057 48.085 33.1334C47.0639 32.3173 46.6284 31.3937 46.6373 30.104C46.6891 19.9097 37.2316 11.8453 28.5977 10.1297C25.2201 9.45988 21.7865 9.44276 18.4235 10.3811C17.4984 10.6468 16.5143 11.1122 16.8177 12.3099C17.0479 13.2535 17.9911 13.3852 18.8435 13.3523C20.6169 13.2798 22.3844 13.1277 24.1472 13.0432C31.7788 12.6764 40.7104 18.9848 42.8987 26.2633C43.9954 29.948 43.6576 30.4119 39.7595 30.5557C33.7246 30.7815 29.8454 34.458 30.2384 39.6457C30.4275 42.1825 31.5796 44.2298 34.0473 45.1097C36.6037 46.0183 39.0067 45.5243 40.7551 43.3336C41.9953 41.7763 43.2966 40.1552 44.0557 38.339C45.3406 35.302 46.561 35.6901 48.5904 37.6722C54.3175 43.2659 54.5997 50.4043 54.6702 57.6528C54.6931 60.1331 53.9065 62.1851 52.1384 64.001C39.0696 77.3897 33.5782 94.0186 31.6578 112.134C31.4078 114.46 30.405 116.69 30.7161 119.099C32.2356 130.848 38.9403 139.383 48.0123 146.289C50.2424 147.991 53.1628 148.55 56.0514 148.746C59.7299 148.995 63.3715 148.788 66.9838 148.183C74.0923 147.012 76.5353 148.252 79.7257 154.636C81.1413 157.471 81.3641 160.508 81.2559 163.579C81.1337 167.351 80.6617 171.1 80.6418 174.868C80.6082 181.815 80.5573 188.851 83.0416 195.448C87.9511 208.513 97.0505 217.504 110.198 222.502C114.927 224.304 119.557 224.889 124.357 223.323C127.952 222.152 131.405 220.551 135.042 219.586C145.318 216.852 154.659 216.85 161.783 226.884C167.149 234.434 172.727 241.885 179.538 248.367C188.37 256.785 202.756 260.429 213.273 255.821C226.271 250.101 235.446 240.433 240.984 227.429C242.187 224.59 243.845 222.722 246.675 221.623C249.854 220.4 253.203 219.665 256.145 217.747C262.091 213.859 262.59 206.242 257.441 201.31ZM41.7727 35.9209C41.1433 37.9949 39.7946 39.6467 38.3287 41.1888C37.3648 42.1875 36.1737 42.6956 34.8208 41.925C33.5559 41.1943 33.2322 39.9613 33.3489 38.5884C33.6322 35.6082 37.9334 32.8883 40.8804 33.7214C42.27 34.121 42.0632 34.9898 41.7727 35.9209Z" fill="#589B3E"/>
<path d="M59.2532 56.6646C57.8467 56.5129 58.3834 54.9647 58.3241 54.01C57.8463 45.5912 54.67 38.5064 48.0325 33.1344C47.0115 32.3183 46.5759 31.3948 46.5849 30.1052C46.6367 19.9113 37.1796 11.8473 28.5461 10.1317C25.1687 9.46195 21.7352 9.44482 18.3724 10.3832C17.4473 10.6488 16.4633 11.1142 16.7667 12.3118C16.9968 13.2554 17.94 13.3871 18.7924 13.3542C20.5657 13.2817 22.3331 13.1296 24.0959 13.0451C31.727 12.6783 40.6582 18.9864 42.8464 26.2646C43.9431 29.9492 43.6053 30.413 39.7074 30.5569C33.6728 30.7826 29.7938 34.4589 30.1868 39.6464C30.3758 42.1831 31.5279 44.2303 33.9955 45.1102C36.5518 46.0187 38.9547 45.5247 40.7029 43.3341C41.9431 41.7769 43.2443 40.1559 44.0034 38.3398C45.2882 35.3029 46.5085 35.691 48.5379 37.673C54.2647 43.2665 54.5468 50.4045 54.6174 57.6527C54.6403 60.1329 53.8537 62.1848 52.0857 64.0006L59.2532 56.6646ZM41.7205 35.9218C41.0911 37.9957 39.7425 39.6475 38.2766 41.1894C37.3128 42.1881 36.1218 42.6961 34.7689 41.9256C33.5041 41.1949 33.1804 39.962 33.297 38.5891C33.5804 35.6091 37.8814 32.8894 40.8282 33.7224C42.2178 34.122 42.011 34.9908 41.7205 35.9218Z" fill="#E69542"/>
<path d="M120.487 201.817C124.147 201.85 128.696 202.123 131.781 197.805C132.257 197.135 132.93 196.411 133.826 197.071C134.754 197.757 134.471 198.745 134.037 199.621C132.318 203.036 129.196 204.262 125.701 204.818C108.659 207.526 95.0128 193.247 98.5471 176.395C98.9824 174.342 99.6982 172.331 100.412 170.353C100.706 169.535 101.153 168.298 102.305 168.693C103.601 169.131 102.831 170.29 102.593 171.112C101.21 175.908 100.494 180.749 101.468 185.716C103.198 194.559 110.638 201.129 120.487 201.817Z" fill="#CCCA65"/>
<path d="M49.3913 101.28C50.3677 95.9587 53.0296 91.1817 54.8616 86.111C55.1269 85.382 55.8122 84.4777 56.7173 84.8331C58.0749 85.3663 57.1719 86.4709 56.9261 87.2465C55.7244 91.0584 54.3573 94.8025 53.1886 98.628C50.0767 108.818 57.024 121.579 67.2278 124.521C69.7172 125.244 72.2052 125.989 74.6667 126.789C75.8974 127.189 78.037 127.062 77.4905 129.085C77.0022 130.919 75.1453 130.228 73.8438 129.868C70.6625 128.986 67.482 128.091 64.3831 126.999C58.3627 124.872 54.3461 120.628 51.9119 114.793C50.11 110.484 49.6498 105.949 49.4034 101.269L49.3913 101.28Z" fill="#CCCA65"/>
<path d="M196.766 238.426C188.296 238.601 181.814 229.445 179.7 223.89C179.46 223.251 179.133 222.392 179.866 221.954C180.836 221.375 181.351 222.292 181.805 222.946C183.928 226.056 186.042 229.12 188.761 231.805C192.669 235.67 197.283 236.163 202.171 234.818C206.158 233.718 209.826 231.804 212.698 228.613C213.483 227.738 214.373 225.998 215.767 227.168C217.064 228.263 215.809 229.537 214.929 230.462C209.994 235.653 204.007 238.475 196.777 238.427L196.766 238.426Z" fill="#CCCA65"/>
</svg>
