<svg width="50" height="50" viewBox="0 0 50 50" fill="none" xmlns="http://www.w3.org/2000/svg">
<rect width="50" height="50" fill="white"/>
<path d="M31.003 16.4971C30.8538 16.3711 30.6604 16.2669 30.4008 16.1902C29.7377 15.9928 29.0581 15.8612 28.373 15.768C27.0359 15.5871 25.6823 15.5597 24.3341 15.5378C23.0136 15.5159 21.6931 15.4884 20.3726 15.4665C18.61 15.4336 16.7315 15.483 16.2508 17.451C15.1623 21.9025 13.5324 26.2005 11.9135 30.482C11.1732 32.4336 10.3941 34.3743 9.83053 36.3862C9.34984 38.0912 8.49897 39.6426 9.38852 41.3969C9.68688 41.989 10.1234 42.4988 10.5654 42.9922C11.9301 44.5381 13.3556 46.0293 14.8363 47.4601C15.4662 48.0686 16.1292 48.6826 16.947 48.9951C17.5713 49.2308 18.2454 49.2856 18.9084 49.3295C22.7705 49.5926 26.6381 49.7407 30.5057 49.7681C31.4782 49.7736 32.4782 49.7681 33.3678 49.3788C33.9811 49.1102 34.5005 48.6771 35.0143 48.255C36.0199 47.4217 37.0199 46.583 38.0255 45.7497C39.1637 44.8013 40.3571 43.7706 40.8047 42.3617C41.2909 40.8322 40.7881 39.1766 40.1858 37.691C39.6444 36.3479 39.0256 35.0376 38.3239 33.7713C35.5005 28.6455 33.7711 22.8783 31.5831 17.473C31.4063 17.0399 31.2682 16.7274 31.003 16.5026V16.4971Z" fill="#D1291C"/>
<path d="M30.3451 12.0843C31.7706 11.6238 32.9972 10.8124 33.7652 9.3816C34.5276 7.95625 34.6271 6.19649 34.0249 4.69988C33.4281 3.20874 32.196 2.02461 30.7816 1.24615C28.03 -0.272396 25.5106 -0.102451 22.4993 0.210029C20.0351 0.467689 17.0957 0.878847 15.3553 2.83048C13.9464 4.40933 13.7475 6.57476 14.3165 8.54284C14.6812 9.81469 15.3442 11.1578 16.5156 11.876C17.8195 12.6763 19.1124 12.7915 20.6263 12.7641C21.4606 12.7476 22.2949 12.7312 23.1292 12.7092C25.3338 12.6654 28.0908 12.8134 30.3506 12.0898L30.3451 12.0843Z" fill="#D1291C"/>
<path d="M18.5295 7.73081C19.3929 7.585 20.0231 7.0603 19.937 6.55886C19.851 6.05742 19.0814 5.76913 18.218 5.91494C17.3547 6.06075 16.7245 6.58545 16.8105 7.08689C16.8966 7.58833 17.6662 7.87662 18.5295 7.73081Z" fill="white"/>
<path d="M25.9506 4.08022C25.9717 3.572 25.2795 3.131 24.4045 3.09522C23.5294 3.05944 22.803 3.44242 22.7819 3.95064C22.7608 4.45886 23.453 4.89986 24.328 4.93564C25.2031 4.97142 25.9295 4.58844 25.9506 4.08022Z" fill="white"/>
<path d="M30.0425 7.18174C30.9058 7.03593 31.536 6.51123 31.45 6.00979C31.364 5.50835 30.5943 5.22006 29.731 5.36587C28.8676 5.51168 28.2375 6.03638 28.3235 6.53782C28.4095 7.03926 29.1791 7.32755 30.0425 7.18174Z" fill="white"/>
<path d="M14.7585 41.6221C14.7585 41.6221 14.7806 41.6386 14.7917 41.6441C15.4105 42.1265 16.0293 42.6144 16.6536 43.0968C18.267 44.3577 19.687 45.35 21.7368 45.5912C23.9911 45.8488 26.2398 45.8598 28.483 45.4761C29.2179 45.35 29.9527 45.191 30.6544 44.9333C32.7429 44.1768 34.8094 42.0881 35.5442 39.9665C35.8923 38.9469 34.7044 37.4174 34.2016 36.4251C32.964 33.9581 31.9031 31.2006 30.4113 28.8817C30.1737 28.4103 29.9251 27.9278 29.5107 27.6099C28.9361 27.1713 28.1571 27.1274 27.4333 27.111C25.1293 27.0671 22.8197 27.1658 20.5268 27.3961C19.267 27.5221 18.3278 27.5989 17.615 28.646C16.7973 29.8466 16.1785 31.2609 15.6204 32.5931C15.0292 34.0075 14.543 35.4657 14.1618 36.9459C13.9242 37.8724 13.2336 39.6157 13.7032 40.5147C13.9408 40.9698 14.3552 41.3042 14.764 41.6221H14.7585Z" fill="white"/>
</svg>
