<?xml version="1.0" standalone="no"?>
<!DOCTYPE svg PUBLIC "-//W3C//DTD SVG 20010904//EN"
 "http://www.w3.org/TR/2001/REC-SVG-20010904/DTD/svg10.dtd">
<svg version="1.0" xmlns="http://www.w3.org/2000/svg"
 width="300.000000pt" height="300.000000pt" viewBox="0 0 300.000000 300.000000"
 preserveAspectRatio="xMidYMid meet">

<g transform="translate(0.000000,300.000000) scale(0.100000,-0.100000)"
fill="#000000" stroke="none">
<path d="M1745 2972 l60 -29 -62 0 c-37 0 -60 4 -56 10 3 5 -2 5 -13 -1 -13
-7 -25 -7 -38 0 -13 7 -21 6 -27 -3 -16 -25 -9 -46 19 -65 51 -33 153 -116
148 -121 -7 -7 -39 13 -111 67 -52 40 -65 47 -65 32 0 -27 219 -172 260 -172
5 0 10 5 10 10 0 6 -6 10 -14 10 -8 0 -24 9 -37 20 l-24 20 25 -9 c69 -26 79
-35 86 -78 5 -33 11 -42 31 -46 19 -3 26 1 33 18 12 31 21 32 135 25 100 -7
117 -11 475 -125 41 -13 120 -36 175 -50 55 -15 104 -30 109 -33 5 -3 21 -6
35 -7 14 -1 43 -5 64 -9 l38 -8 -3 83 -3 83 -90 23 c-49 13 -117 30 -150 38
-33 8 -120 30 -194 50 -74 19 -147 35 -162 35 -15 0 -30 4 -33 9 -6 9 -105 37
-118 33 -5 -1 -8 2 -8 6 0 5 -19 16 -42 26 -81 33 -84 35 -68 35 27 1 174 -27
220 -42 25 -8 61 -18 80 -22 19 -4 41 -11 50 -15 17 -9 208 -64 398 -115 l123
-33 -3 46 -3 47 -65 3 c-35 1 -69 7 -74 12 -5 5 -32 7 -60 5 -42 -4 -46 -3
-21 5 25 7 21 8 -22 5 -29 -2 -55 1 -58 6 -4 5 -23 9 -43 9 -40 0 -246 46
-274 61 -10 5 -28 9 -40 9 -13 0 -35 7 -50 14 -16 8 -58 25 -95 37 -86 29
-115 44 -105 54 4 5 2 6 -3 2 -11 -6 -150 32 -174 47 -8 5 -62 11 -120 13
l-106 4 60 -29z m172 -68 c-3 -3 -12 -4 -19 -1 -8 3 -5 6 6 6 11 1 17 -2 13
-5z m111 -195 c17 -6 32 -14 32 -19 0 -13 -123 22 -144 41 -9 8 59 -5 112 -22z"/>
<path d="M1504 2956 c-16 -14 -24 -26 -18 -26 17 0 60 37 53 45 -4 3 -20 -5
-35 -19z"/>
<path d="M1567 2943 c-4 -3 -7 -16 -6 -27 0 -19 1 -19 10 3 10 24 8 36 -4 24z"/>
<path d="M1520 2920 c-8 -5 -10 -10 -5 -10 6 0 17 5 25 10 8 5 11 10 5 10 -5
0 -17 -5 -25 -10z"/>
<path d="M1388 2903 c-10 -2 -18 -8 -18 -13 0 -5 14 -4 30 1 45 16 36 25 -12
12z"/>
<path d="M1315 2891 c-38 -6 -62 -31 -29 -31 8 0 12 5 9 10 -4 6 6 10 24 10
16 0 33 5 36 10 3 6 5 9 3 8 -2 0 -21 -4 -43 -7z"/>
<path d="M1493 2866 c6 -16 -19 -30 -35 -19 -7 3 -8 1 -4 -6 5 -8 0 -10 -18
-7 -14 3 -26 0 -26 -6 0 -5 7 -8 15 -4 8 3 15 3 15 1 0 -9 -60 -35 -112 -50
l-53 -15 45 5 c24 3 89 27 145 52 116 54 110 51 102 59 -4 4 -18 -1 -32 -10
-23 -15 -29 -14 -26 7 0 4 -4 7 -10 7 -6 0 -9 -6 -6 -14z"/>
<path d="M1100 2810 c8 -5 22 -10 30 -10 13 0 13 1 0 10 -8 5 -22 10 -30 10
-13 0 -13 -1 0 -10z"/>
<path d="M1517 2813 c-4 -3 -7 -11 -7 -17 0 -6 5 -5 12 2 6 6 9 14 7 17 -3 3
-9 2 -12 -2z"/>
<path d="M1600 2806 c0 -20 184 -146 213 -146 19 0 3 19 -34 39 -22 13 -69 45
-105 72 -69 53 -74 56 -74 35z"/>
<path d="M1536 2788 c-15 -21 -15 -24 0 -35 14 -10 13 -13 -5 -23 -19 -10 -21
-8 -21 16 0 21 -4 25 -20 21 -10 -3 -21 0 -23 7 -10 26 -28 -13 -25 -53 4 -52
22 -58 26 -8 4 41 22 41 22 0 0 -25 1 -25 18 -10 10 10 24 17 30 17 17 0 28
53 12 58 -10 4 -9 6 1 13 7 4 11 11 7 14 -3 4 -13 -4 -22 -17z"/>
<path d="M1110 2776 c0 -2 7 -7 16 -10 8 -3 12 -2 9 4 -6 10 -25 14 -25 6z"/>
<path d="M1190 2760 c0 -5 17 -10 38 -9 33 1 34 2 12 9 -36 11 -50 11 -50 0z"/>
<path d="M1600 2753 c1 -21 36 -49 75 -59 36 -9 28 3 -29 44 -39 28 -46 30
-46 15z"/>
<path d="M948 2743 c-10 -2 -18 -8 -18 -13 0 -5 -6 -7 -14 -4 -8 3 -19 -3 -26
-15 -6 -12 -17 -21 -24 -21 -15 0 -26 -21 -26 -50 0 -10 -9 -22 -20 -25 -11
-4 -18 -10 -15 -14 4 -8 -62 -92 -77 -99 -5 -2 -8 -8 -8 -13 0 -5 -13 -27 -29
-50 -40 -54 -52 -152 -25 -198 22 -37 21 -36 59 -11 44 29 61 25 88 -21 19
-32 26 -37 31 -24 3 10 12 15 21 11 8 -3 15 -1 15 4 0 14 -23 12 -39 -2 -11
-11 -13 -10 -8 4 3 9 0 19 -9 22 -22 8 -17 29 6 23 14 -4 24 2 32 16 12 21 13
26 16 55 1 6 9 12 17 12 8 0 15 7 15 17 0 14 2 14 20 -2 11 -10 20 -24 20 -31
0 -7 6 -19 13 -26 6 -7 12 -36 13 -65 1 -33 9 -64 22 -87 21 -36 21 -36 1 -36
-11 0 -17 5 -14 10 3 6 1 10 -4 10 -6 0 -11 -6 -11 -14 0 -8 -20 -22 -45 -33
-31 -12 -43 -23 -40 -32 3 -8 -8 -31 -25 -52 -50 -62 -60 -109 -24 -109 26 0
84 -44 85 -65 3 -76 -4 -153 -17 -170 -28 -39 -64 -95 -64 -99 0 -3 15 -2 33
1 28 4 41 -1 80 -33 25 -22 49 -47 52 -56 3 -9 22 -27 41 -38 40 -25 41 -32
13 -95 -11 -25 -19 -49 -16 -51 6 -7 117 53 143 77 28 26 42 24 18 -2 -19 -22
-19 -22 4 -10 15 8 21 18 18 28 -9 21 13 45 35 38 12 -4 19 1 24 15 9 30 32
24 38 -9 4 -17 23 -52 43 -78 72 -96 136 -130 399 -212 39 -12 88 -30 110 -40
108 -51 250 -107 333 -132 17 -6 32 -14 32 -19 0 -13 0 -13 -50 5 -24 8 -46
12 -49 9 -3 -4 0 -9 7 -11 6 -3 10 -8 7 -13 -2 -4 15 -13 39 -20 23 -6 56 -22
72 -35 25 -21 27 -24 9 -25 -11 0 -69 17 -130 39 -60 21 -171 60 -245 85 -74
26 -149 54 -167 62 -37 16 -67 19 -43 4 9 -6 10 -10 3 -10 -7 0 -16 6 -20 13
-4 7 -28 21 -53 31 -25 10 -58 24 -75 31 -42 18 -111 40 -172 56 -52 13 -70
28 -35 30 46 3 90 -5 134 -22 27 -10 60 -19 73 -19 13 0 41 -11 61 -25 29 -19
45 -24 67 -19 20 4 27 3 23 -4 -9 -15 22 -29 64 -30 34 -1 33 0 -24 27 -32 16
-70 26 -85 24 -23 -3 -24 -2 -6 7 16 8 13 9 -15 4 -30 -6 -33 -5 -22 9 10 12
10 16 -3 21 -9 3 -13 2 -10 -4 10 -16 -12 -12 -29 5 -8 8 -21 15 -28 15 -7 0
-22 7 -32 15 -11 8 -29 15 -41 15 -11 0 -31 7 -43 16 -12 8 -30 13 -40 10 -9
-3 -24 -1 -32 5 -13 9 -12 10 3 5 11 -3 16 -2 12 4 -8 13 -42 13 -49 1 -4 -5
-30 -12 -59 -16 -28 -4 -64 -14 -79 -21 -15 -8 -41 -14 -58 -14 -20 0 -30 -5
-30 -15 0 -8 -5 -15 -11 -15 -17 0 -92 -78 -123 -128 -15 -24 -56 -73 -91
-110 -36 -37 -65 -71 -65 -75 0 -5 -5 -5 -11 -1 -8 4 -9 0 -4 -15 5 -17 3 -20
-11 -14 -13 5 -16 3 -11 -10 4 -10 2 -14 -6 -11 -7 2 -18 -9 -25 -26 -8 -16
-20 -30 -28 -30 -8 0 -14 -5 -14 -11 0 -5 6 -7 13 -3 7 4 9 3 4 -2 -5 -5 -12
-9 -17 -9 -4 0 -28 -25 -51 -55 -24 -30 -50 -61 -57 -69 -7 -7 -11 -20 -7 -28
3 -11 1 -13 -10 -9 -8 3 -15 2 -15 -2 0 -32 -191 -170 -221 -160 -6 2 11 14
38 26 76 34 122 80 227 224 53 73 117 160 142 193 26 33 53 74 60 92 16 36 19
143 5 143 -5 0 -26 15 -46 34 -20 19 -62 44 -93 55 -31 11 -128 45 -216 76
-87 30 -173 61 -190 69 -59 26 -198 66 -227 66 l-29 0 0 -72 0 -73 108 1 c136
1 169 -7 265 -65 73 -43 80 -50 111 -116 47 -100 52 -116 29 -109 -17 5 -17 5
1 -10 14 -11 18 -28 17 -72 0 -31 -3 -59 -6 -62 -3 -3 -5 4 -5 16 0 28 -14 28
-29 0 -11 -23 -11 -22 -4 2 3 14 6 35 5 48 -2 23 13 30 21 10 3 -7 6 -3 6 10
1 12 -3 21 -8 20 -5 -2 -17 6 -25 17 -8 11 -16 15 -16 8 0 -6 5 -15 10 -18 6
-3 10 -11 10 -16 0 -6 -5 -7 -12 -3 -8 5 -9 -2 -5 -24 6 -31 -6 -45 -16 -19
-3 6 -6 -7 -6 -30 -1 -36 -4 -43 -21 -43 -12 0 -25 -13 -36 -35 -15 -33 -40
-51 -28 -21 3 7 -2 16 -10 19 -13 5 -14 0 -9 -26 6 -28 4 -30 -9 -19 -13 10
-18 9 -29 -5 -12 -15 -12 -16 3 -11 10 4 19 1 22 -8 9 -23 7 -34 -5 -34 -6 0
-8 7 -5 16 5 14 1 16 -34 11 -23 -3 -40 -1 -40 5 0 5 -5 6 -10 3 -21 -13 3
-27 36 -20 43 8 45 -11 3 -20 -31 -7 -79 9 -79 27 0 15 -25 8 -43 -12 -19 -23
-22 -40 -7 -40 6 0 10 7 10 15 0 16 17 19 44 9 9 -3 13 -11 10 -16 -4 -6 -10
-5 -15 3 -11 19 -21 6 -24 -33 -4 -45 -5 -46 -17 -18 -6 15 -12 20 -15 13 -8
-21 -25 -14 -18 7 5 16 2 20 -18 20 -14 0 -27 4 -29 10 -1 5 -20 11 -40 14
l-37 4 -1 -184 c0 -119 3 -184 10 -184 10 0 166 -59 225 -85 17 -7 49 -19 72
-26 23 -6 40 -16 37 -20 -3 -5 3 -9 13 -9 18 0 102 -29 158 -55 17 -7 42 -17
58 -20 15 -4 27 -11 27 -16 0 -5 9 -9 20 -9 11 0 20 -4 20 -8 0 -4 15 -9 32
-10 31 -3 32 -2 13 12 -11 9 -24 16 -29 16 -16 0 -297 122 -293 126 2 3 95
-32 206 -76 202 -81 202 -81 284 -78 l82 3 -45 15 c-25 8 -51 20 -58 27 -15
14 -24 16 -61 13 -16 -1 -21 2 -16 10 5 9 1 10 -14 5 -27 -8 -48 4 -30 17 10
7 9 8 -5 4 -10 -4 -25 -1 -32 5 -8 6 -26 8 -41 5 -20 -5 -24 -4 -13 3 8 6 11
13 7 17 -4 4 -13 2 -19 -4 -18 -18 -27 -15 -21 6 4 15 -1 19 -28 20 -17 0 -37
6 -42 11 -6 6 -22 11 -37 11 -20 0 -22 2 -10 10 12 7 8 10 -15 10 -18 0 -25 4
-20 9 9 9 70 -5 134 -30 29 -12 40 -4 20 14 -22 18 -52 68 -45 75 4 3 28 -17
54 -45 46 -49 130 -99 246 -145 28 -10 73 -30 100 -43 48 -22 62 -24 212 -23
l161 1 -1 61 c-1 59 0 61 27 64 l27 3 -20 26 c-24 31 -12 63 26 63 27 0 49
-39 39 -70 -5 -16 -2 -17 32 -7 21 5 61 10 88 9 28 -1 62 3 76 9 42 17 91 -1
101 -36 12 -47 -1 -94 -31 -110 -23 -13 -6 -14 167 -15 174 0 193 2 199 18 4
9 22 38 40 64 18 26 33 51 33 55 0 5 14 26 30 47 17 22 30 43 30 46 0 4 25 47
55 96 30 49 58 96 62 104 4 8 14 23 24 33 9 10 29 40 44 68 22 41 27 63 27
120 1 73 12 89 30 39 16 -46 58 -62 58 -22 0 8 15 32 32 55 20 24 31 50 30 63
-2 15 3 24 17 29 14 4 21 15 21 33 0 30 38 72 64 72 9 0 16 5 16 11 0 6 -9 8
-20 4 -24 -8 -26 7 -4 26 13 10 17 10 24 -1 6 -10 14 -8 37 9 15 13 28 26 28
29 0 4 11 19 24 34 24 27 45 35 54 21 2 -5 2 -2 1 5 -2 7 11 26 30 42 32 28
38 52 22 78 -4 7 -2 20 6 29 11 15 11 16 -5 10 -14 -5 -16 -3 -8 12 7 12 6 22
-2 31 -8 8 -8 11 -1 7 7 -4 18 7 27 26 9 17 24 41 34 52 10 11 35 43 56 71
l37 52 0 178 0 179 -20 -33 c-15 -25 -25 -32 -38 -27 -9 4 -35 9 -57 12 -22 3
-44 9 -50 13 -5 4 -27 5 -47 3 -31 -4 -38 -9 -38 -28 0 -12 7 -28 16 -35 8 -8
21 -28 29 -46 7 -18 22 -35 33 -38 28 -9 48 -85 33 -127 -6 -18 -11 -42 -11
-54 0 -13 -7 -28 -15 -35 -8 -7 -14 -18 -13 -24 1 -6 -11 -37 -27 -70 -22 -46
-26 -62 -17 -76 9 -15 2 -21 -56 -43 -37 -14 -80 -26 -97 -26 -16 1 -65 -1
-108 -4 -42 -2 -80 -1 -82 4 -6 9 -68 1 -105 -14 -14 -6 -29 -9 -33 -9 -4 1
-10 -5 -13 -13 -9 -22 -31 -18 -38 7 -10 37 -7 46 15 53 13 4 18 12 15 22 -5
11 -2 13 10 9 18 -7 57 21 48 35 -2 4 7 16 21 25 26 17 35 50 11 41 -7 -3 -34
-9 -60 -12 -25 -4 -48 -11 -51 -15 -3 -5 4 -6 15 -3 15 4 20 0 20 -15 0 -28
-35 -38 -65 -18 -30 20 -31 31 -4 49 11 8 17 17 12 19 -11 6 8 1 31 -8 16 -6
17 -4 7 14 -8 16 -25 22 -76 27 -71 8 -81 6 -77 -12 2 -9 -7 -11 -30 -7 -21 4
-28 2 -20 -3 7 -5 10 -16 7 -25 -4 -9 0 -15 10 -15 8 0 15 4 15 9 0 4 5 8 10
8 21 0 9 -20 -16 -26 -18 -5 -29 -1 -39 12 -14 18 -14 18 -15 -2 0 -12 -15
-38 -33 -58 -33 -35 -55 -48 -41 -23 4 7 3 9 -2 4 -5 -5 -9 -12 -9 -16 0 -9
-22 -30 -62 -59 -34 -23 -53 -28 -53 -13 0 4 -13 24 -30 42 -20 23 -27 41 -24
55 3 12 1 25 -5 28 -6 4 -11 2 -11 -5 0 -10 -3 -10 -11 -2 -8 8 -8 17 0 30 10
20 5 63 -9 63 -4 0 -13 13 -20 29 -6 16 -25 42 -42 57 -47 45 -77 113 -44 101
9 -4 17 1 19 11 3 11 5 8 6 -8 1 -19 9 -9 36 45 19 39 35 74 35 78 0 13 77
111 99 127 12 8 21 20 21 27 0 7 3 12 8 12 28 -5 35 1 19 19 -8 9 -25 39 -36
65 -19 44 -20 52 -7 80 8 18 22 49 30 70 14 35 14 37 -5 37 -14 0 -21 -9 -25
-30 -4 -16 -11 -30 -16 -30 -5 0 -6 -5 -3 -10 3 -6 -1 -13 -9 -16 -9 -3 -16
-14 -16 -24 0 -11 -5 -22 -10 -25 -6 -4 -8 -11 -5 -16 4 -5 1 -9 -4 -9 -6 0
-11 -7 -11 -15 0 -9 -7 -18 -15 -21 -21 -8 -19 -24 3 -18 9 3 -6 -7 -34 -20
-49 -24 -52 -28 -59 -73 -5 -27 -9 -53 -9 -60 -1 -6 -13 -21 -27 -32 -22 -17
-28 -18 -33 -6 -3 8 2 19 12 24 9 5 14 12 10 16 -3 4 -18 -1 -33 -11 -16 -10
-22 -20 -15 -24 7 -4 4 -12 -7 -22 -33 -28 -48 -31 -24 -5 14 15 22 27 19 27
-3 0 -1 21 4 48 24 125 24 123 14 261 -3 41 -1 82 5 92 14 26 55 45 116 54 28
4 54 13 57 20 3 8 16 12 33 10 16 -2 33 4 40 14 40 50 55 74 43 66 -10 -6 -12
-4 -7 9 4 10 7 28 7 41 0 31 35 52 56 34 32 -26 45 35 19 85 -17 32 -20 72 -5
81 10 6 2 34 -14 51 -6 6 -48 20 -93 33 -45 12 -112 33 -149 46 -37 13 -70 22
-74 20 -4 -2 -5 -100 -3 -218 3 -245 6 -235 -91 -306 -72 -52 -110 -65 -194
-66 -65 0 -76 3 -92 23 -21 26 -30 28 -30 7 0 -31 -92 -6 -138 38 -45 41 -45
41 -61 317 -11 193 -20 270 -29 269 -4 -1 -15 -3 -24 -6z m42 -387 c0 -3 -4
-8 -10 -11 -5 -3 -10 -1 -10 4 0 6 5 11 10 11 6 0 10 -2 10 -4z m-130 -81 c-7
-8 -17 -12 -22 -9 -6 4 -5 10 3 15 22 14 33 10 19 -6z m925 -5 c-3 -5 -10 -10
-16 -10 -5 0 -9 5 -9 10 0 6 7 10 16 10 8 0 12 -4 9 -10z m58 -10 c-3 -12 -8
-19 -11 -16 -5 6 5 36 12 36 2 0 2 -9 -1 -20z m-73 -27 c0 -12 -2 -12 -15 1
-8 8 -15 17 -15 20 0 3 7 3 15 0 8 -4 15 -13 15 -21z m38 -8 c-3 -3 -9 2 -12
12 -6 14 -5 15 5 6 7 -7 10 -15 7 -18z m-530 -142 c19 -5 22 -12 22 -54 0 -39
4 -50 21 -60 15 -7 18 -14 10 -18 -9 -6 -8 -26 4 -80 8 -40 15 -82 15 -94 0
-13 8 -34 18 -47 10 -16 17 -44 18 -76 l0 -51 -70 -21 -71 -21 -27 20 c-16 11
-28 15 -28 9 0 -5 -4 -10 -10 -10 -5 0 -10 7 -10 15 0 8 -6 15 -12 16 -7 0
-21 2 -31 4 -10 2 -27 -5 -38 -16 -19 -19 -20 -18 -84 52 -36 39 -65 77 -65
84 0 8 29 44 65 82 56 58 63 69 51 83 -19 22 -29 57 -19 74 16 29 88 77 130
87 27 7 43 17 43 26 0 11 6 13 23 8 12 -3 32 -9 45 -12z m-190 -31 c2 -7 -3
-12 -10 -12 -15 0 -38 19 -38 32 0 11 43 -7 48 -20z m-158 -52 c-20 -13 -43
-13 -35 0 3 6 16 10 28 10 18 0 19 -2 7 -10z m484 -67 c8 -8 14 -10 46 -12 12
0 25 -12 31 -28 13 -35 5 -55 -10 -23 -7 14 -33 34 -59 47 -26 11 -40 22 -31
22 9 1 19 -2 23 -6z m-494 -34 c0 -5 -7 -9 -15 -9 -15 0 -20 12 -9 23 8 8 24
-1 24 -14z m96 0 c3 -6 -3 -21 -15 -33 -19 -18 -23 -19 -31 -6 -19 30 -11 42
32 49 4 0 10 -4 14 -10z m434 -57 c0 -20 3 -23 9 -13 12 18 41 7 41 -16 0 -10
3 -28 6 -40 5 -17 -2 -26 -28 -44 -37 -24 -58 -59 -58 -97 0 -13 -4 -21 -9
-18 -12 8 -5 58 10 67 8 4 10 11 7 15 -4 4 -3 15 3 26 8 14 6 34 -7 74 -13 43
-14 57 -4 69 17 20 30 10 30 -23z m337 -4 c0 -21 -3 -38 -7 -38 -3 0 -13 -11
-20 -25 -9 -16 -22 -25 -38 -25 -20 0 -23 4 -18 23 3 12 6 30 6 39 0 9 7 24
16 32 8 9 13 20 10 24 -3 5 8 9 23 9 26 0 28 -3 28 -39z m-146 -213 c-3 -5 -4
-18 -3 -27 2 -10 -2 -18 -7 -18 -13 0 -14 23 -4 71 6 33 7 33 13 9 4 -14 4
-29 1 -35z m-271 -49 c0 -2 -7 -7 -16 -10 -8 -3 -12 -2 -9 4 6 10 25 14 25 6z
m-320 -40 c0 -3 -4 -8 -10 -11 -5 -3 -10 -1 -10 4 0 6 5 11 10 11 6 0 10 -2
10 -4z m298 -18 c-15 -27 -28 -38 -47 -38 -9 0 -7 6 7 19 12 10 22 23 22 30 0
6 7 11 15 11 13 0 13 -4 3 -22z m-259 -14 c-14 -18 -24 -11 -15 11 3 9 11 13
16 10 8 -5 7 -11 -1 -21z m101 16 c0 -5 -7 -10 -15 -10 -8 0 -15 5 -15 10 0 6
7 10 15 10 8 0 15 -4 15 -10z m85 -79 c-3 -6 -11 -11 -17 -11 -6 0 -6 6 2 15
14 17 26 13 15 -4z m895 -91 c12 -8 9 -10 -12 -10 -16 0 -28 5 -28 10 0 13 20
13 40 0z m632 -142 c-7 -7 -12 -8 -12 -2 0 14 12 26 19 19 2 -3 -1 -11 -7 -17z
m-1529 -49 c-6 -6 -25 -12 -42 -13 -35 -2 -29 10 9 17 43 7 44 7 33 -4z m-83
-14 c0 -8 -104 -65 -119 -65 -21 0 13 34 52 54 31 15 67 21 67 11z m1125 -15
c3 -5 2 -10 -4 -10 -5 0 -13 5 -16 10 -3 6 -2 10 4 10 5 0 13 -4 16 -10z m-31
-15 c11 -8 17 -17 14 -21 -7 -6 -48 17 -48 28 0 12 13 9 34 -7z m-986 -127
c19 -19 14 -55 -10 -72 -22 -16 -22 -16 -2 -16 30 0 84 20 84 32 0 5 -4 6 -10
3 -12 -7 -13 24 -2 42 4 7 23 14 42 15 29 3 36 -1 48 -24 7 -16 21 -28 31 -28
20 0 47 -43 37 -59 -12 -18 24 -13 49 8 l24 18 -26 23 c-25 21 -25 24 -8 30
10 3 43 -2 73 -12 45 -15 62 -16 99 -6 77 19 153 -15 188 -86 8 -16 15 -37 15
-48 0 -20 1 -21 24 -12 14 5 14 9 4 22 -11 13 -9 14 17 8 16 -4 57 -21 90 -36
33 -16 82 -38 109 -50 53 -22 53 -35 -1 -43 -31 -5 -83 15 -161 63 -40 24 -65
15 -80 -30 -6 -16 -18 -30 -26 -30 -9 0 -16 -7 -16 -15 0 -26 -30 -75 -45 -75
-15 0 -17 5 -17 35 0 37 3 45 20 45 10 0 27 7 38 15 17 13 14 14 -40 15 -44 0
-62 4 -72 18 -12 15 -15 15 -24 2 -6 -10 -10 -11 -10 -2 0 7 -13 12 -31 12
-24 0 -29 -3 -21 -12 14 -17 31 -115 25 -139 -3 -10 -9 -19 -14 -19 -5 0 -3
-12 3 -26 11 -22 10 -28 -7 -40 -18 -13 -18 -15 -1 -33 23 -25 13 -59 -21 -72
-24 -9 -73 -3 -73 10 -1 17 -18 31 -33 25 -9 -3 -14 -10 -11 -15 10 -17 -17
-49 -42 -49 -21 0 -24 4 -19 20 6 20 -9 28 -20 10 -12 -19 -54 -11 -70 14 -21
32 -5 64 36 73 16 3 29 7 29 9 0 15 -26 54 -36 54 -7 0 -21 3 -31 7 -17 6 -17
6 0 -14 23 -26 12 -52 -24 -60 -24 -5 -27 -8 -18 -24 5 -11 8 -23 5 -27 -3 -5
4 -16 15 -25 32 -28 19 -77 -21 -77 -10 0 -31 -7 -49 -16 -41 -20 -63 -5 -59
40 2 25 8 32 31 34 33 4 34 13 3 28 -20 9 -27 8 -40 -7 -19 -23 -54 -25 -62
-4 -8 19 21 91 35 87 14 -3 14 15 1 23 -28 17 4 91 34 79 8 -3 17 -1 21 5 12
20 -26 24 -61 7 -41 -19 -241 -24 -214 -5 11 8 5 9 -22 4 -39 -6 -47 2 -26 23
10 10 8 12 -7 10 -11 -2 -21 2 -23 7 -1 6 -17 15 -34 21 -22 7 -36 21 -46 44
l-13 33 28 -7 c15 -4 41 -10 58 -13 27 -5 29 -4 16 11 -11 13 -11 19 -1 31 18
21 33 19 64 -10 22 -20 25 -29 17 -39 -7 -8 -21 -12 -32 -9 -15 4 -18 2 -12
-12 5 -14 3 -16 -8 -10 -8 4 -1 -5 16 -20 33 -29 73 -29 105 0 9 8 24 15 34
15 9 0 14 5 11 10 -4 7 -12 7 -25 0 -29 -16 -45 -13 -30 5 10 12 10 19 2 27
-8 8 -13 7 -18 -5 -13 -34 -22 -16 -13 26 6 28 20 52 44 73 19 17 35 38 35 47
0 22 32 38 51 26 7 -5 9 -9 4 -9 -6 0 -16 -9 -22 -19 -16 -25 9 -37 32 -15 8
9 15 13 15 9 0 -3 14 2 30 10 29 15 30 17 15 38 -22 32 -19 66 8 77 30 12 31
12 45 -2z m997 -68 c3 -5 -3 -10 -14 -10 -11 0 -23 5 -26 10 -3 6 3 10 14 10
11 0 23 -4 26 -10z m212 -6 c-3 -3 -12 -4 -19 -1 -8 3 -5 6 6 6 11 1 17 -2 13
-5z m-1482 -109 c0 -22 -22 -30 -44 -16 -21 14 -5 43 21 39 15 -2 23 -10 23
-23z m1340 -43 c-8 -8 -35 20 -35 37 1 12 5 11 21 -8 11 -13 17 -26 14 -29z
m-1995 -126 c0 -3 -4 -8 -10 -11 -5 -3 -10 -1 -10 4 0 6 5 11 10 11 6 0 10 -2
10 -4z m1712 -21 c9 -2 31 -18 49 -35 25 -24 30 -33 20 -39 -9 -6 -10 -11 -2
-15 16 -10 13 -53 -4 -59 -8 -4 -17 -2 -20 3 -9 15 -25 12 -25 -4 0 -8 -10
-22 -22 -30 -47 -33 -81 30 -37 70 17 15 23 16 41 5 11 -7 23 -9 26 -5 4 4 2
9 -5 11 -7 2 -10 10 -7 18 3 8 12 11 20 8 24 -9 15 5 -18 28 -26 19 -31 20
-25 5 5 -12 3 -15 -5 -10 -49 31 -67 72 -25 60 12 -4 30 -9 39 -11z m-1166 -4
c-3 -5 1 -12 10 -15 9 -3 14 -13 11 -20 -3 -8 -1 -16 6 -19 6 -2 1 -6 -11 -9
-18 -5 -26 -1 -34 17 -12 26 -5 55 12 55 6 0 9 -4 6 -9z m1061 -55 c11 -37 12
-51 3 -56 -6 -4 -11 -11 -11 -16 2 -17 -24 -10 -45 13 -12 12 -25 19 -29 15
-4 -4 0 5 10 21 9 15 22 27 28 27 6 0 2 7 -9 16 -10 8 -13 13 -6 9 6 -3 15 1
18 10 11 27 26 11 41 -39z m-1012 24 c3 -5 1 -10 -4 -10 -6 0 -11 5 -11 10 0
6 2 10 4 10 3 0 8 -4 11 -10z m-737 -24 c14 5 15 4 2 -4 -18 -13 -44 4 -33 22
5 7 9 5 11 -6 2 -11 9 -15 20 -12z m952 -27 c0 -50 -41 -67 -74 -30 -20 22
-10 52 22 70 20 12 52 -12 52 -40z m-320 15 c0 -2 -11 -2 -25 2 -36 9 -31 -3
8 -19 17 -8 38 -21 45 -29 12 -14 16 -15 43 -1 28 14 33 14 46 0 10 -10 13
-22 7 -38 -4 -13 -7 -28 -6 -32 5 -18 -23 0 -34 21 -18 36 -25 38 -18 4 4 -21
2 -38 -7 -48 -7 -9 -14 -32 -15 -50 -1 -34 -1 -34 41 -31 40 2 42 3 32 24 -13
30 -4 49 27 55 19 4 27 0 31 -13 4 -11 10 -19 14 -19 19 0 5 -34 -21 -50 -25
-15 -27 -19 -15 -31 8 -8 20 -25 27 -38 11 -21 10 -23 -4 -18 -14 5 -15 3 -6
-13 15 -28 13 -35 -21 -68 l-30 -30 25 -25 c41 -41 34 -70 -16 -60 -19 4 -29
13 -33 33 -6 26 -8 28 -38 19 -46 -13 -112 16 -132 58 -9 18 -20 35 -25 38
-15 9 -12 35 3 30 7 -2 24 20 40 52 23 44 25 54 12 49 -49 -18 -61 -17 -90 13
-24 26 -29 41 -32 88 -4 65 6 83 71 127 31 21 41 23 66 14 17 -5 30 -12 30
-14z m177 6 c17 -13 20 -20 11 -20 -8 0 -23 9 -33 20 -10 11 -15 20 -11 20 4
0 19 -9 33 -20z m723 0 c9 -18 8 -20 -15 -20 -23 0 -24 2 -13 20 7 11 14 20
15 20 1 0 7 -9 13 -20z m-1610 -10 c0 -5 -5 -10 -11 -10 -5 0 -7 5 -4 10 3 6
8 10 11 10 2 0 4 -4 4 -10z m115 0 c-3 -5 -11 -10 -16 -10 -6 0 -7 5 -4 10 3
6 11 10 16 10 6 0 7 -4 4 -10z m1951 -45 c-2 -7 0 -17 4 -21 12 -12 1 -54 -14
-54 -7 0 -20 6 -31 13 -17 13 -17 15 3 35 12 12 19 28 16 37 -5 11 -2 14 10 9
10 -4 15 -12 12 -19z m-2091 5 c4 -6 -9 -10 -32 -10 -28 0 -34 3 -23 10 20 13
47 13 55 0z m1696 0 c11 -6 19 -21 19 -35 0 -32 -35 -43 -61 -19 -22 20 -24
35 -7 52 15 15 24 15 49 2z m-736 -34 c18 -37 17 -77 -1 -83 -17 -6 -64 37
-64 59 0 15 33 55 47 58 1 0 9 -15 18 -34z m80 -52 c-1 -14 -5 -27 -9 -31 -3
-3 8 -14 24 -24 39 -24 38 -42 -2 -68 -34 -21 -32 -29 3 -11 13 7 19 7 19 0 0
-5 -6 -10 -12 -11 -7 -1 5 -5 26 -10 45 -11 61 -4 25 10 -26 10 -25 11 8 15
12 1 20 -1 17 -6 -3 -4 2 -8 10 -8 20 0 29 17 14 24 -7 3 1 3 17 0 23 -4 27
-3 15 5 -13 9 -12 11 5 11 11 1 38 8 60 16 22 8 48 17 58 19 10 2 26 6 35 9 9
3 59 10 111 16 51 6 102 15 112 21 14 7 19 6 19 -3 0 -9 3 -10 8 -2 4 6 18 15
32 20 28 9 220 13 220 4 0 -3 -8 -16 -17 -29 -16 -24 -16 -24 8 -16 64 20 153
-16 161 -67 5 -30 -22 -94 -63 -151 -24 -33 -45 -49 -72 -57 -55 -16 -102 1
-117 43 -12 31 -12 32 -22 10 -11 -24 -42 -31 -53 -13 -13 21 -14 54 -2 62 17
11 39 10 33 -1 -3 -5 0 -11 8 -14 18 -7 30 23 16 37 -14 14 -13 26 4 26 8 0
17 12 21 27 3 14 15 38 26 51 22 28 26 50 7 34 -7 -5 -60 -17 -118 -26 -58
-10 -163 -31 -235 -47 -71 -17 -195 -39 -274 -50 -79 -10 -150 -24 -158 -30
-9 -9 -13 -8 -13 0 0 6 5 11 11 11 7 0 9 14 4 43 -4 23 -8 62 -10 87 -1 25 -4
50 -6 55 -2 6 2 20 9 32 16 28 41 20 37 -13z m970 -14 c-11 -5 -40 -8 -65 -8
-37 0 -41 1 -20 8 36 11 112 11 85 0z m-1828 -16 c-3 -3 -12 -4 -19 -1 -8 3
-5 6 6 6 11 1 17 -2 13 -5z m1820 -10 c-3 -3 -12 -4 -19 -1 -8 3 -5 6 6 6 11
1 17 -2 13 -5z m-1900 -76 c42 -15 43 -32 1 -24 -35 7 -74 36 -48 36 7 0 29
-5 47 -12z m128 -49 c5 -5 16 -9 25 -9 9 0 25 -6 35 -14 18 -13 18 -14 -4 -26
-13 -6 -21 -8 -18 -3 3 5 -11 15 -31 22 -63 22 -92 36 -92 44 0 10 71 -2 85
-14z m745 6 c0 -8 -2 -15 -4 -15 -2 0 -6 7 -10 15 -3 8 -1 15 4 15 6 0 10 -7
10 -15z m525 -6 c-3 -4 -1 -10 4 -13 5 -4 12 -2 15 3 3 5 47 9 98 10 84 1 91
-1 74 -14 -11 -8 -25 -15 -30 -15 -6 0 -4 5 4 11 17 12 -74 2 -100 -11 -8 -4
-64 -13 -125 -19 -60 -7 -118 -15 -127 -17 -26 -8 -22 15 5 25 12 5 21 12 19
17 -1 5 10 10 25 11 16 1 44 6 63 11 45 11 81 12 75 1z m-327 -72 c16 4 22 1
22 -11 0 -9 -8 -16 -20 -16 -11 0 -20 -4 -20 -9 0 -13 -91 -36 -98 -24 -4 5
-44 9 -89 9 -44 -1 -79 2 -76 6 2 5 10 8 16 8 7 0 26 7 42 16 36 19 85 30 70
15 -5 -5 -21 -11 -35 -14 l-25 -4 25 -1 c14 -1 52 7 85 17 35 11 64 15 71 10
5 -4 20 -6 32 -2z m-731 -53 c-3 -3 -12 -4 -19 -1 -8 3 -5 6 6 6 11 1 17 -2
13 -5z m1223 -35 c0 -17 -28 -34 -39 -24 -3 3 0 15 7 25 10 16 10 20 0 20 -9
0 -8 3 2 10 16 10 30 -4 30 -31z m-672 -2 c7 -8 7 -18 2 -27 -7 -12 -12 -11
-29 4 -21 19 -20 36 3 36 8 0 18 -6 24 -13z m120 -19 c3 -22 -2 -27 -29 -33
-43 -10 -56 11 -26 43 27 29 51 25 55 -10z m630 -10 c33 -33 0 -49 -55 -27
l-28 11 30 14 c38 16 38 17 53 2z"/>
<path d="M1591 863 c-10 -21 -14 -24 -21 -13 -7 12 -12 11 -28 -3 -10 -9 -28
-17 -40 -17 -23 0 -41 -19 -20 -21 40 -5 98 -3 98 2 0 3 11 23 25 43 16 24 20
36 11 36 -7 0 -18 -12 -25 -27z"/>
<path d="M1478 865 c-2 -3 -40 -7 -82 -10 -83 -5 -96 -9 -95 -28 0 -8 2 -8 5
-1 6 14 99 0 120 -17 12 -10 15 -10 12 2 -2 7 6 15 19 17 12 2 24 10 27 19 7
16 3 27 -6 18z"/>
<path d="M1160 821 c0 -5 -16 -15 -35 -22 -19 -7 -35 -16 -35 -21 0 -4 18 -1
40 7 22 8 48 11 56 8 14 -5 15 -3 5 15 -12 22 -31 30 -31 13z"/>
<path d="M1258 762 c-4 -32 0 -52 11 -52 4 0 7 18 8 40 2 46 -13 55 -19 12z"/>
<path d="M1665 770 c3 -5 15 -10 26 -10 11 0 17 5 14 10 -3 6 -15 10 -26 10
-11 0 -17 -4 -14 -10z"/>
<path d="M1180 768 c-8 -29 -3 -68 8 -68 7 0 10 -4 7 -10 -3 -5 -2 -10 3 -10
6 0 9 -8 7 -17 -1 -10 0 -12 2 -5 3 6 8 12 12 12 5 0 6 11 3 25 -2 14 -8 25
-12 25 -5 0 -13 12 -18 28 -6 15 -11 24 -12 20z"/>
<path d="M1320 730 c-9 -16 -9 -25 1 -36 9 -11 8 -18 -6 -34 -10 -11 -13 -20
-7 -20 6 0 14 5 18 11 10 17 24 -10 24 -48 0 -25 4 -31 15 -27 8 4 15 18 15
33 0 15 3 31 7 35 15 15 11 67 -6 73 -9 3 -24 12 -33 20 -14 13 -18 12 -28 -7z
m40 -30 c0 -5 -5 -10 -11 -10 -5 0 -7 5 -4 10 3 6 8 10 11 10 2 0 4 -4 4 -10z"/>
<path d="M1486 605 c-3 -8 -1 -15 4 -15 13 0 22 18 11 24 -5 3 -11 -1 -15 -9z"/>
<path d="M1287 561 c2 -9 -5 -25 -16 -35 -22 -20 -28 -60 -12 -71 5 -3 12 4
16 14 6 21 38 36 55 26 5 -3 10 -1 10 4 0 6 -4 11 -9 11 -4 0 -6 10 -4 23 3
17 -2 26 -20 34 -21 10 -24 9 -20 -6z"/>
<path d="M1552 540 c-1 -34 1 -37 24 -32 14 2 24 0 24 -7 0 -6 12 -11 28 -11
23 1 25 2 11 13 -9 7 -19 26 -23 42 -5 24 -12 30 -35 31 -26 1 -29 -2 -29 -36z"/>
<path d="M1480 474 c0 -28 10 -35 38 -27 34 8 28 40 -8 45 -26 4 -30 1 -30
-18z"/>
<path d="M812 429 c4 -9 1 -22 -5 -28 -13 -13 2 -14 22 -2 12 8 11 12 -4 28
-16 15 -18 15 -13 2z"/>
<path d="M930 171 c0 -12 5 -21 10 -21 6 0 10 6 10 14 0 8 -4 18 -10 21 -5 3
-10 -3 -10 -14z"/>
<path d="M1915 380 c-3 -6 1 -7 9 -4 18 7 21 14 7 14 -6 0 -13 -4 -16 -10z"/>
<path d="M1110 2692 c19 -60 40 -80 40 -38 0 14 -4 26 -10 26 -5 0 -10 13 -10
29 0 19 -6 30 -19 34 -17 4 -17 2 -1 -51z"/>
<path d="M1330 2733 c-23 -5 -12 -96 11 -101 14 -3 16 5 12 45 -6 61 -5 59
-23 56z"/>
<path d="M1390 2720 c-21 -21 -26 -55 -10 -65 13 -8 50 3 50 15 0 5 -7 7 -15
4 -11 -5 -15 1 -15 21 0 20 4 26 15 21 9 -3 15 0 15 9 0 21 -16 19 -40 -5z"/>
<path d="M1223 2718 c-5 -7 -14 -22 -18 -33 -7 -19 -9 -18 -18 8 -13 31 -37
36 -37 7 0 -11 4 -20 9 -20 4 0 12 -14 17 -31 12 -41 25 -34 46 26 17 52 18
64 1 43z"/>
<path d="M1495 2660 c-89 -51 -149 -70 -250 -79 l-80 -8 73 -2 c86 -1 162 21
270 81 67 37 83 49 65 48 -5 -1 -39 -19 -78 -40z"/>
<path d="M1240 2675 c-20 -24 -3 -55 30 -55 16 0 32 4 35 10 4 6 -4 9 -17 7
-19 -2 -23 3 -23 26 1 30 -7 34 -25 12z"/>
<path d="M1277 2671 c-3 -14 -1 -18 9 -14 8 3 14 11 14 19 0 21 -17 17 -23 -5z"/>
<path d="M1518 2628 c-36 -49 -70 -110 -63 -116 3 -3 16 0 30 6 14 7 37 12 50
12 21 0 25 5 25 30 0 20 -5 30 -15 30 -14 0 -14 3 0 30 27 52 10 57 -27 8z"/>
<path d="M2033 2613 c-18 -2 -33 -7 -33 -11 0 -4 73 -29 163 -54 173 -50 270
-78 462 -135 154 -46 167 -48 133 -29 -41 24 -259 109 -403 156 -71 24 -141
49 -155 55 -29 15 -120 25 -167 18z"/>
<path d="M1120 2590 c8 -5 22 -9 30 -9 10 0 8 3 -5 9 -27 12 -43 12 -25 0z"/>
<path d="M1337 2532 c7 -4 16 -19 22 -32 9 -22 10 -23 10 -4 1 21 -16 44 -33
44 -7 0 -6 -4 1 -8z"/>
<path d="M1550 2520 c-8 -5 -10 -10 -4 -10 7 0 15 -7 18 -16 3 -8 2 -12 -4 -9
-6 4 -10 -6 -10 -22 1 -24 2 -25 11 -10 5 9 17 17 24 17 18 0 18 1 5 34 -10
28 -17 31 -40 16z"/>
<path d="M1242 2495 c0 -16 2 -22 5 -12 2 9 2 23 0 30 -3 6 -5 -1 -5 -18z"/>
<path d="M1282 2500 c0 -14 2 -19 5 -12 2 6 2 18 0 25 -3 6 -5 1 -5 -13z"/>
<path d="M1508 2456 c-3 -17 0 -27 11 -31 8 -3 12 -3 8 1 -4 4 -2 13 4 20 11
13 5 34 -10 34 -5 0 -11 -11 -13 -24z"/>
<path d="M2245 2466 c-5 -2 -37 -10 -70 -17 -80 -17 -125 -49 -195 -138 -19
-25 -44 -55 -55 -67 -34 -38 -47 -55 -43 -59 2 -2 44 -6 93 -8 107 -5 111 -6
153 -33 l32 -21 116 32 c63 18 117 35 120 37 2 3 -14 10 -36 17 -21 6 -42 16
-45 21 -8 14 32 11 75 -4 32 -12 38 -10 91 21 34 21 83 39 125 47 l69 13 -60
16 c-335 94 -321 89 -297 100 22 10 95 -7 297 -69 61 -19 142 -39 180 -44 94
-13 93 -13 149 -38 59 -27 56 -26 56 -3 0 13 -10 20 -32 25 -48 9 -140 34
-163 45 -11 5 -49 16 -85 25 -36 9 -90 23 -120 32 -30 9 -66 18 -80 21 -14 3
-39 11 -56 19 -18 8 -47 16 -65 18 -83 10 -145 15 -154 12z m30 -56 c-3 -5
-21 -10 -39 -10 -19 0 -47 -7 -62 -15 -37 -19 -64 -19 -64 -1 0 19 40 31 112
34 39 2 57 -1 53 -8z m-184 -193 c-13 -13 -26 -3 -16 12 3 6 11 8 17 5 6 -4 6
-10 -1 -17z m113 4 c3 -5 -1 -12 -10 -15 -27 -11 -37 -7 -24 9 14 17 26 19 34
6z"/>
<path d="M2950 2415 c14 -8 32 -14 40 -14 9 0 4 6 -10 14 -14 8 -32 14 -40 14
-9 0 -4 -6 10 -14z"/>
<path d="M1577 2273 c-4 -3 -7 -11 -7 -17 0 -6 5 -5 12 2 6 6 9 14 7 17 -3 3
-9 2 -12 -2z"/>
<path d="M1438 2202 c-10 -2 -18 -8 -18 -13 0 -5 -11 -9 -24 -9 -22 0 -35 -15
-42 -47 -1 -7 6 -13 17 -13 10 0 19 6 19 14 0 11 37 25 65 26 14 0 65 32 65
41 0 9 -41 10 -82 1z"/>
<path d="M1760 2189 c0 -5 9 -9 20 -9 11 0 20 2 20 4 0 2 -9 6 -20 9 -11 3
-20 1 -20 -4z"/>
<path d="M515 2155 c-96 -23 -178 -75 -120 -75 7 0 23 -12 36 -27 l22 -28 52
51 c29 28 69 58 89 68 20 9 36 19 36 21 0 9 -64 3 -115 -10z"/>
<path d="M1938 2153 c-10 -2 -18 -11 -18 -18 0 -11 8 -13 33 -8 39 7 41 9 32
22 -6 11 -17 12 -47 4z"/>
<path d="M2038 2128 c-10 -27 8 -63 32 -66 13 -2 33 -10 45 -18 12 -8 24 -11
28 -8 9 10 -41 46 -53 39 -5 -3 -10 0 -10 7 0 9 -3 9 -10 -2 -12 -19 -13 -8
-1 23 8 20 6 27 -5 31 -21 8 -21 8 -26 -6z"/>
<path d="M935 2110 c-19 -8 -19 -9 3 -9 12 -1 22 4 22 9 0 6 -1 10 -2 9 -2 0
-12 -4 -23 -9z"/>
<path d="M1933 2103 c-24 -5 -30 -18 -14 -27 13 -8 61 11 61 24 0 10 -7 11
-47 3z"/>
<path d="M872 2091 c2 -7 7 -12 11 -12 12 1 9 15 -3 20 -7 2 -11 -2 -8 -8z"/>
<path d="M300 1999 l-43 -31 5 26 c4 19 1 26 -10 26 -8 0 -13 -3 -9 -6 10 -10
-22 -64 -38 -64 -8 0 -16 -10 -17 -22 0 -13 -2 -29 -2 -37 -1 -8 -10 -17 -22
-21 -11 -5 -36 -25 -55 -45 -19 -20 -51 -46 -72 -58 l-38 -21 5 -89 c5 -80 9
-91 38 -128 33 -41 95 -86 104 -76 3 3 -4 14 -16 24 -29 24 -62 90 -58 116 4
29 90 48 152 34 33 -7 52 -7 75 2 31 14 61 63 61 102 0 24 -37 86 -57 93 -6 3
-42 -5 -78 -16 -48 -16 -70 -28 -81 -47 l-14 -26 6 30 c9 43 12 45 59 66 28
13 45 27 49 43 10 41 19 41 164 -5 29 -9 35 -8 52 13 24 29 25 43 1 76 -10 15
-20 36 -22 47 -4 16 -13 20 -50 23 -38 2 -54 -3 -89 -29z m20 -28 c0 -5 -7
-12 -16 -15 -22 -9 -24 -8 -24 9 0 8 9 15 20 15 11 0 20 -4 20 -9z m84 -16
c-7 -16 -24 -21 -24 -6 0 8 7 13 27 20 1 1 0 -6 -3 -14z m-54 -5 c0 -5 -4 -10
-10 -10 -5 0 -10 5 -10 10 0 6 5 10 10 10 6 0 10 -4 10 -10z m-180 -200 c0 -5
-5 -10 -11 -10 -5 0 -7 5 -4 10 3 6 8 10 11 10 2 0 4 -4 4 -10z m65 -11 c-4
-5 -16 -9 -28 -9 -21 1 -21 1 -3 15 20 15 41 11 31 -6z m55 2 c0 -5 -9 -11
-21 -14 -16 -4 -18 -3 -8 9 13 16 29 19 29 5z m-87 -35 c21 -16 22 -26 2 -26
-8 0 -19 9 -25 20 -12 23 -3 25 23 6z"/>
<path d="M2206 2015 c-3 -8 -17 -15 -31 -15 -21 0 -25 -4 -20 -19 3 -11 1 -22
-4 -26 -7 -4 -8 1 -4 11 5 14 1 16 -25 12 -23 -3 -32 0 -35 11 -4 13 -5 13 -6
-1 -1 -19 -16 -24 -25 -9 -4 5 -18 6 -33 2 -19 -5 -27 -15 -30 -33 -3 -26 -2
-27 43 -24 42 3 51 -8 12 -16 -12 -2 -15 -7 -9 -16 6 -11 16 -7 43 17 46 40
71 41 33 1 l-28 -29 31 2 c18 1 32 5 32 8 0 3 7 6 15 6 24 0 129 24 147 34 10
5 30 9 45 9 24 1 25 2 11 11 -10 5 -48 8 -85 5 -53 -3 -63 -2 -45 6 30 15 28
28 -5 28 -21 0 -24 3 -15 12 7 7 12 16 12 20 0 14 -18 9 -24 -7z m-111 -65
c-3 -5 -14 -10 -23 -10 -15 0 -15 2 -2 10 20 13 33 13 25 0z"/>
<path d="M2323 1993 c9 -2 23 -2 30 0 6 3 -1 5 -18 5 -16 0 -22 -2 -12 -5z"/>
<path d="M2935 1955 c-16 -14 -36 -25 -42 -25 -7 0 -13 -6 -13 -14 0 -8 -3
-21 -6 -30 -4 -11 -1 -16 11 -16 9 0 19 9 22 20 3 11 10 20 16 20 5 0 16 8 23
18 7 9 17 17 23 17 6 0 11 3 11 8 0 4 0 12 0 17 0 16 -12 11 -45 -15z"/>
<path d="M1910 1862 c0 -5 13 -9 30 -9 16 0 27 4 24 9 -7 11 -54 11 -54 0z"/>
<path d="M2080 1860 c0 -5 7 -7 15 -4 8 4 15 8 15 10 0 2 -7 4 -15 4 -8 0 -15
-4 -15 -10z"/>
<path d="M2949 1854 c-11 -14 -10 -16 9 -12 13 1 23 7 23 13 1 17 -17 16 -32
-1z"/>
<path d="M2100 1840 c0 -5 5 -10 10 -10 6 0 10 5 10 10 0 6 -4 10 -10 10 -5 0
-10 -4 -10 -10z"/>
<path d="M458 1525 c-1 -33 -3 -79 -4 -102 -1 -24 -7 -50 -14 -58 -7 -9 -11
-17 -9 -19 2 -2 49 -20 103 -41 74 -27 101 -33 107 -24 4 7 10 37 14 68 4 31
14 69 22 85 14 27 13 30 -20 65 -19 20 -41 47 -50 61 -15 22 -24 24 -82 25
l-65 0 -2 -60z m172 -55 c0 -5 -4 -10 -10 -10 -5 0 -10 5 -10 10 0 6 5 10 10
10 6 0 10 -4 10 -10z m-74 -37 c-11 -11 -19 6 -11 24 8 17 8 17 12 0 3 -10 2
-21 -1 -24z m44 17 c0 -5 -5 -10 -11 -10 -5 0 -7 5 -4 10 3 6 8 10 11 10 2 0
4 -4 4 -10z"/>
<path d="M1716 1461 c-3 -5 1 -14 9 -21 13 -10 15 -9 15 9 0 21 -14 28 -24 12z"/>
<path d="M0 1440 c0 -12 12 -21 38 -28 20 -5 57 -17 82 -26 25 -8 66 -21 93
-28 26 -7 47 -16 47 -21 0 -5 7 -4 15 3 9 7 14 15 11 17 -5 5 -156 60 -228 83
-56 17 -58 17 -58 0z"/>
<path d="M1240 1390 c0 -5 5 -10 10 -10 6 0 10 5 10 10 0 6 -4 10 -10 10 -5 0
-10 -4 -10 -10z"/>
<path d="M301 1342 c-14 -5 52 -39 86 -45 10 -2 28 -8 40 -15 12 -7 31 -12 42
-12 10 0 32 -6 48 -14 46 -24 188 -75 192 -70 11 11 -29 33 -99 54 -41 13 -85
30 -98 38 -12 8 -25 12 -29 9 -3 -4 -18 0 -34 8 -15 8 -39 15 -52 15 -14 0
-27 6 -30 14 -6 15 -44 25 -66 18z"/>
<path d="M2005 1330 c3 -5 11 -10 16 -10 6 0 7 5 4 10 -3 6 -11 10 -16 10 -6
0 -7 -4 -4 -10z"/>
<path d="M2435 1309 c-10 -15 -2 -19 23 -12 12 3 19 9 16 14 -7 12 -31 11 -39
-2z"/>
<path d="M2978 1298 c-2 -13 -7 -23 -13 -23 -9 1 -30 -20 -80 -77 -8 -10 -11
-18 -6 -18 14 0 21 -44 8 -52 -7 -4 -8 -8 -4 -8 5 0 -1 -12 -12 -26 -12 -15
-21 -33 -21 -40 0 -8 -4 -14 -9 -14 -4 0 -18 -22 -29 -50 -12 -27 -25 -50 -29
-50 -5 0 -17 -13 -26 -30 -10 -16 -23 -30 -29 -30 -16 0 -63 -53 -50 -58 12
-4 5 -32 -9 -32 -4 0 -6 7 -3 15 4 8 1 15 -5 15 -6 0 -11 -6 -11 -14 0 -7 -18
-25 -40 -40 -49 -33 -52 -56 -6 -47 6 1 -3 -11 -20 -26 -16 -16 -32 -27 -36
-25 -5 2 -8 -8 -8 -22 0 -14 -4 -26 -8 -26 -5 0 -17 -7 -28 -16 -18 -15 -18
-15 4 -9 19 5 22 2 22 -19 0 -14 -4 -26 -10 -26 -5 0 -10 5 -10 10 0 18 -20
11 -21 -7 0 -11 -3 -13 -6 -5 -8 19 -20 14 -25 -12 -4 -19 -1 -22 16 -18 17 4
19 2 9 -9 -7 -7 -13 -24 -13 -36 0 -27 -39 -77 -41 -52 -1 8 -1 22 0 32 1 9
-3 17 -8 17 -6 0 -11 -7 -11 -15 0 -7 -6 -18 -14 -22 -8 -4 -16 -17 -18 -28
-2 -14 -11 -20 -29 -20 -21 0 -25 -4 -22 -20 2 -11 1 -14 -3 -7 -10 20 -22 13
-16 -10 4 -16 2 -20 -10 -15 -12 4 -15 0 -12 -16 2 -12 2 -16 -2 -9 -10 20
-27 14 -21 -9 4 -15 2 -19 -9 -15 -8 3 -14 1 -14 -4 0 -5 -11 -21 -25 -36 -14
-15 -28 -38 -31 -51 -4 -13 -9 -23 -14 -23 -13 0 -67 -115 -67 -143 0 -26 1
-27 58 -27 50 0 60 3 71 23 7 12 11 28 9 36 -1 7 2 10 7 7 10 -6 25 29 23 52
-1 6 4 12 11 12 16 0 188 264 274 420 6 11 17 28 26 37 8 10 47 72 87 138 41
66 85 138 99 160 14 22 37 60 50 85 13 25 34 56 46 70 21 24 70 93 91 128 6 9
18 28 28 41 10 14 17 42 17 67 0 46 -16 61 -22 22z m-814 -1277 c-3 -3 -7 5
-11 17 -4 18 -8 20 -19 11 -23 -19 -28 -3 -8 24 l19 24 12 -36 c7 -19 10 -37
7 -40z"/>
<path d="M1200 1250 c0 -5 7 -10 16 -10 8 0 12 5 9 10 -3 6 -10 10 -16 10 -5
0 -9 -4 -9 -10z"/>
<path d="M1128 1223 c6 -2 18 -2 25 0 6 3 1 5 -13 5 -14 0 -19 -2 -12 -5z"/>
<path d="M720 1179 c0 -17 42 -50 56 -45 7 3 11 0 8 -7 -6 -17 22 -54 33 -44
4 5 1 14 -7 20 -8 7 -16 23 -18 36 -1 13 -10 30 -20 37 -21 16 -52 18 -52 3z"/>
<path d="M1802 1051 c-19 -12 13 -24 41 -15 13 4 17 2 13 -5 -5 -7 1 -11 16
-11 19 0 20 2 8 14 -20 19 -62 28 -78 17z"/>
<path d="M1900 1012 c0 -5 31 -18 70 -29 68 -20 90 -13 45 14 -28 17 -43 16
-19 -2 17 -13 16 -14 -14 -4 -25 9 -30 14 -20 20 8 6 0 9 -24 9 -21 0 -38 -4
-38 -8z"/>
<path d="M2073 966 c11 -23 57 -43 57 -25 0 7 -53 49 -63 49 -3 0 0 -11 6 -24z"/>
<path d="M325 960 c-3 -5 -1 -10 4 -10 6 0 11 5 11 10 0 6 -2 10 -4 10 -3 0
-8 -4 -11 -10z"/>
<path d="M253 944 c-3 -8 0 -21 7 -27 10 -9 11 -9 6 1 -4 7 -2 19 4 27 9 11 9
15 1 15 -6 0 -14 -7 -18 -16z"/>
<path d="M373 915 c-3 -9 -3 -18 -1 -21 3 -3 8 4 11 16 6 23 -1 27 -10 5z"/>
<path d="M415 820 c3 -5 10 -10 16 -10 5 0 9 5 9 10 0 6 -7 10 -16 10 -8 0
-12 -4 -9 -10z"/>
<path d="M350 813 c0 -14 19 -38 25 -32 8 8 -5 39 -16 39 -5 0 -9 -3 -9 -7z"/>
<path d="M320 760 c-12 -8 -10 -10 8 -10 13 0 20 4 17 10 -7 12 -6 12 -25 0z"/>
<path d="M140 733 c0 -15 25 -16 55 -3 23 10 21 11 -23 13 -20 1 -32 -3 -32
-10z"/>
<path d="M2545 690 c-3 -5 -1 -10 4 -10 6 0 11 5 11 10 0 6 -2 10 -4 10 -3 0
-8 -4 -11 -10z"/>
<path d="M185 680 c-3 -5 -4 -10 -1 -10 2 0 12 -3 20 -6 12 -5 15 -2 10 10 -7
18 -20 21 -29 6z"/>
<path d="M0 672 c0 -14 23 -32 42 -32 24 0 23 17 -1 30 -23 12 -41 13 -41 2z"/>
<path d="M127 659 c7 -7 15 -10 18 -7 3 3 -2 9 -12 12 -14 6 -15 5 -6 -5z"/>
<path d="M76 653 c-11 -11 -7 -20 9 -20 8 0 15 4 15 8 0 11 -16 20 -24 12z"/>
<path d="M2385 450 c-3 -5 -1 -10 4 -10 6 0 11 5 11 10 0 6 -2 10 -4 10 -3 0
-8 -4 -11 -10z"/>
</g>
</svg>
