<svg width="49" height="28" viewBox="0 0 49 28" fill="none" xmlns="http://www.w3.org/2000/svg">
<rect x="8" y="2" width="4" height="8" rx="2" fill="#1A1123"/>
<rect x="16" width="4" height="10" rx="2" fill="#1A1123"/>
<rect x="24" y="2" width="4" height="8" rx="2" fill="#1A1123"/>
<path d="M30.9274 14H1.37182C0.693777 14 0.212302 14.6605 0.419789 15.306L2.26932 21.0601C3.59859 25.1956 7.44569 28 11.7896 28H24.0799C28.7204 28 32.7512 24.8076 33.814 20.2904L35.8186 11.771C35.9249 11.3192 36.328 11 36.792 11H47.25C48.2165 11 49 10.2165 49 9.25C49 8.2835 48.2165 7.5 47.25 7.5H35.4795C34.0405 7.5 32.8041 8.52184 32.5332 9.93516L31.9095 13.1883C31.8192 13.6594 31.4071 14 30.9274 14Z" fill="#1A1123"/>
</svg>