<svg width="29" height="17" viewBox="0 0 29 17" fill="none" xmlns="http://www.w3.org/2000/svg">
<path d="M5.58747 1.04876C5.64778 1.05401 5.71071 1.06712 5.77626 1.08547C6.14334 1.18511 6.40291 1.52597 6.51566 1.8878C6.6284 2.24963 6.61529 2.63769 6.60218 3.01787C6.57858 3.68386 6.55499 4.34984 6.53139 5.01321C6.52614 5.14168 6.5209 5.2754 6.47108 5.39339C6.17742 6.07773 5.12601 5.99121 4.73533 5.48779C4.27386 4.90046 4.28435 4.0221 4.33154 3.31678C4.38136 2.58525 4.55441 0.946506 5.58485 1.04876H5.58747Z" fill="currentColor"/>
<path d="M10.3673 2.72878e-05C10.918 0.00527126 11.5027 0.453631 11.5866 1.09602C11.6364 1.47883 11.5577 1.95341 11.5577 2.34671V4.65405C11.5577 5.31479 11.0228 5.84706 10.3647 5.84706C9.73806 5.84706 9.26873 5.42754 9.27397 4.81137C9.27921 4.28435 9.28446 3.75996 9.29233 3.23294C9.29757 2.78458 9.30281 2.33622 9.30806 1.89048C9.3133 1.4631 9.32117 1.02522 9.48111 0.631926C9.66465 0.183566 10.0107 -0.0025947 10.37 2.72878e-05H10.3673Z" fill="currentColor"/>
<path d="M15.1419 1.09331C15.7345 1.08806 16.3349 1.55215 16.3349 2.26796C16.3349 3.27218 16.6076 4.67756 15.8026 5.4458C15.5195 5.71849 15.0921 5.86008 14.7198 5.7316C13.6002 5.34879 13.8702 3.64974 13.9489 2.75565C13.983 2.38332 14.0302 2.00314 14.2059 1.67539C14.4209 1.27422 14.7801 1.09593 15.1419 1.09331Z" fill="currentColor"/>
<path d="M17.9843 8.06249C17.0508 8.6236 15.0843 8.23816 14.1011 8.23816H3.80193C2.80558 8.23816 0.162616 7.67706 0.00791882 9.18208C-0.0418989 9.65928 0.152128 10.1234 0.343533 10.5639C1.05671 12.2157 1.20354 13.7155 2.71381 14.8141C5.96769 17.1765 10.1996 16.5971 13.9936 16.5971C16.8122 16.5971 19.3057 14.5598 19.8092 11.7883C20.0451 10.5324 20.1762 9.24501 20.3624 7.97597C20.4175 7.5984 20.4751 7.21035 20.6744 6.88522C21.2014 6.01734 23.8077 6.44473 24.7359 6.44473C25.7847 6.44473 26.899 6.24283 27.9137 6.27954C28.1209 6.28741 28.3332 6.32936 28.5325 6.26643C28.9966 6.12222 29.1198 5.46672 28.8812 5.04458C28.1917 3.8175 25.47 4.355 24.2508 4.355H20.8029C18.8941 4.355 19.0095 6.45784 18.3776 7.65871C18.2884 7.82913 18.1547 7.96023 17.9869 8.05987L17.9843 8.06249Z" fill="currentColor"/>
</svg>
