<svg width="20" height="33" viewBox="0 0 20 33" fill="none" xmlns="http://www.w3.org/2000/svg">
<g clip-path="url(#clip0_603_5846)">
<path d="M19.8894 17.0891C19.44 13.658 18.1951 10.33 16.3535 7.39965C16.1767 7.12723 16.0367 6.84744 16.1767 6.41304C16.4345 5.56632 16.6702 5.154 16.626 4.24838C16.5965 3.59309 16.5523 2.93044 16.3829 2.29724C16.0146 0.949849 15.0791 0.117854 13.65 0.066315C11.9999 4.99429e-05 10.3277 -0.0294012 8.67758 0.0368639C7.36635 0.0810406 5.93725 -0.198745 4.78071 0.618524C3.57261 1.46524 3.14535 3.40166 3.34425 4.80059C3.42528 5.36016 3.8157 5.8461 3.9041 6.39095C4.02196 7.06096 3.58734 7.61317 3.27058 8.15802C1.55419 11.1768 0.40502 14.4532 0.125093 17.9358C-0.154833 21.4037 0.117727 24.9599 0.0882608 28.4425C0.0808943 29.1493 0.353454 29.8193 0.648113 30.2979C1.67942 31.9693 3.16008 33.059 5.27426 33.0001C6.85069 32.9632 8.42712 32.9927 10.0109 32.9927C11.5137 33.0001 13.0164 33.0001 14.5192 33.0001C14.5708 33.0001 14.6223 33.0001 14.6665 32.9927C15.3074 32.9706 15.9262 32.897 16.5671 32.7129C18.2614 32.2417 19.9557 30.0108 19.9409 28.2437C19.9262 26.3441 19.9188 24.4445 19.9188 22.5449C19.9188 20.7557 20.1177 18.8561 19.8894 17.0891ZM15.742 14.6962C15.7052 14.7477 15.6536 14.7919 15.5947 14.8213C15.4253 14.9023 15.2264 14.8655 15.0422 14.8729C14.836 14.8729 14.6223 14.895 14.4161 14.9097C13.9962 14.9465 13.5763 15.0054 13.1638 15.0643C12.324 15.1968 11.4916 15.3588 10.6444 15.4693C10.1656 15.5282 9.68679 15.5723 9.20797 15.5797C8.64811 15.5797 8.08826 15.5503 7.52841 15.4987C6.96119 15.4398 6.39397 15.3735 5.82675 15.322C5.53946 15.2999 5.25953 15.2778 4.97224 15.2705C4.74388 15.2631 4.44185 15.3294 4.24296 15.1968C4.17666 15.1527 4.11773 15.0938 4.10299 15.0128V14.9833C4.08089 14.7256 4.20612 14.4458 4.27979 14.2102C4.36082 13.9452 4.44922 13.6801 4.54498 13.415C4.72914 12.8923 4.92804 12.3769 5.12694 11.8615C5.37003 11.2357 5.63522 10.6172 5.95198 10.0208C6.20981 9.52749 6.50447 8.84275 6.99065 8.51879C7.46211 8.20219 8.06616 8.23901 8.61128 8.23164C9.30373 8.20956 9.98881 8.20219 10.6739 8.21692C11.5063 8.21692 12.5008 8.14329 13.1564 8.74704C13.5321 9.09309 13.7973 9.53486 14.0256 9.98399C14.7255 11.3314 15.359 12.7598 15.7862 14.2249C15.8083 14.2912 15.8231 14.3648 15.8304 14.4385C15.8304 14.5342 15.7936 14.6225 15.742 14.6962Z" fill="#997DC6"/>
</g>
<defs>
<clipPath id="clip0_603_5846">
<rect width="20" height="33" fill="white"/>
</clipPath>
</defs>
</svg>
