<svg width="21" height="35" viewBox="0 0 21 35" fill="none" xmlns="http://www.w3.org/2000/svg">
<g clip-path="url(#clip0_603_5868)">
<path d="M20.948 27.0597C20.9125 26.2941 20.8676 25.5141 20.6001 24.7962C20.2191 23.7658 19.4191 22.9572 18.6452 22.1844C17.4737 21.0157 16.3021 19.847 15.1306 18.6782C14.3425 17.8935 14.3377 17.1565 15.1306 16.3646C16.3329 15.1673 17.5328 13.9675 18.7351 12.7702C19.5019 12.0045 20.2924 11.2031 20.6616 10.1799C20.9622 9.34266 20.9528 8.42914 20.9386 7.53947C20.9196 6.29919 20.8983 5.04459 20.5788 3.84723C20.2593 2.64987 19.6085 1.49545 18.5742 0.822834C17.0997 -0.13362 15.2087 0.0381128 13.5354 0.0404979C11.5237 0.0428831 9.51435 0.0476535 7.50262 0.0476535C5.60687 0.0500386 3.28038 -0.341129 1.7562 1.07805C0.946781 1.83176 0.442668 2.82399 0.215461 3.90447C-0.0590793 5.21393 0.0332232 6.56871 0.127892 7.90202C0.198894 8.88471 0.27463 9.89364 0.703008 10.7785C1.11245 11.6205 1.80827 12.2812 2.48989 12.9204C3.31588 13.6956 4.1395 14.4708 4.96549 15.246C5.51694 15.7635 6.74054 16.5578 6.7287 17.4165C6.7216 17.884 6.36896 18.2465 6.05892 18.5518C4.90869 19.6824 3.76082 20.813 2.61059 21.9435C1.84377 22.6996 1.05802 23.4796 0.615439 24.4623C0.17286 25.445 0.104225 26.5493 0.0497903 27.625C-0.0117447 28.8653 -0.0638127 30.1247 0.217828 31.3363C0.558637 32.8104 1.46273 34.2033 2.93957 34.6541C4.63888 35.1741 6.54173 34.9522 8.28838 34.9546C10.4729 34.9546 12.6597 35.019 14.8442 34.9856C15.5755 34.9737 16.3755 34.9332 17.1494 34.7877C18.3304 34.5611 19.4451 34.0864 20.141 33.0799C20.6285 32.3715 20.8202 31.4985 20.9149 30.6422C21.0427 29.4544 21.0048 28.2547 20.948 27.0597ZM11.5758 14.7188C11.4054 14.8286 11.2279 14.9383 11.0409 15.0218C10.8799 15.0933 10.7143 15.1458 10.5391 15.1625C10.0563 15.2054 9.59481 14.9669 9.17827 14.7188C7.75586 13.8745 6.4447 12.8441 5.285 11.661C5.04833 11.4178 4.79272 11.1888 4.57498 10.924C4.44954 10.7738 4.02116 10.2729 4.22234 10.0701C4.24127 10.0511 4.26494 10.0391 4.29097 10.0272C4.32647 10.0129 4.36197 9.99859 4.39984 9.99143C5.68261 9.71952 6.99851 9.61457 8.30731 9.72906C9.53565 9.83639 10.745 10.125 11.9781 10.2133C12.7402 10.2681 13.507 10.2323 14.2691 10.1584C15.0099 10.0868 15.7483 9.94611 16.4891 9.90318C16.5506 9.90079 16.6193 9.90795 16.6619 9.95327C16.6855 9.97712 16.6997 10.0081 16.7092 10.0415C16.8701 10.5663 16.2146 11.0862 15.8785 11.3915C15.4951 11.7398 15.0738 12.0403 14.6857 12.3814C13.7082 13.2353 12.6692 14.0176 11.5758 14.7188Z" fill="black"/>
</g>
<defs>
<clipPath id="clip0_603_5868">
<rect width="21" height="35" fill="white"/>
</clipPath>
</defs>
</svg>
