<svg width="33" height="33" viewBox="0 0 33 33" fill="none" xmlns="http://www.w3.org/2000/svg">
<g clip-path="url(#clip0_603_5856)">
<path d="M0.0225247 25.8056C-0.11303 24.2854 0.384003 22.8856 0.956345 21.5235C1.50609 20.214 3.81805 21.2375 4.66903 21.5987C6.06976 22.2008 7.21445 23.6307 8.86369 22.9157C9.41344 22.6749 9.87282 22.1933 9.99331 21.5987C10.2418 20.3796 9.12727 20.0409 8.28382 19.5819C7.14667 18.9723 5.96433 18.4304 4.72928 18.0466C4.49582 17.9789 4.25484 17.9037 4.06657 17.7531C3.08756 16.9629 4.38286 15.1267 4.86483 14.4193C5.70828 13.1775 6.67223 11.9283 8.14074 11.4241C9.04443 11.108 10.3473 11.7853 11.1832 12.1239C11.9589 12.44 12.7044 12.8163 13.4274 13.2453C14.0976 13.6366 14.7904 14.3064 15.5134 14.5698C15.9878 14.7429 16.5376 14.6751 16.9744 14.4193C17.4112 14.1634 17.735 13.742 17.9082 13.2678C18.217 12.4174 17.8479 11.7778 17.125 11.4241C16.1686 10.965 15.3251 10.2501 14.3762 9.76089C13.7211 9.42976 13.0508 9.12874 12.358 8.88039C11.8308 8.69225 11.0702 8.57936 11.2058 7.84937C11.2811 7.43546 11.5447 7.05918 11.7932 6.72805C12.2676 6.10342 12.855 5.46374 13.5102 5.02725C14.685 4.24459 15.9878 3.49202 17.4338 4.01129C18.5333 4.40262 19.5876 4.93694 20.5289 5.62178C21.4703 6.30661 22.133 7.30753 23.4283 7.11186C23.8274 7.05165 24.2265 6.92372 24.5504 6.69042C24.8742 6.45713 25.1378 6.10342 25.198 5.70456C25.3336 4.84664 24.3395 4.27469 23.7672 3.78552C23.0216 3.15336 22.2083 2.60399 21.3724 2.09977C21.1841 1.98689 20.8 1.874 20.8377 1.56545C20.8753 1.23432 21.2443 1.08381 21.5004 0.97845C23.3003 0.195782 25.2055 -0.23318 27.1485 0.105474C29.2647 0.474231 31.2302 1.33968 32.405 3.2512C33.1581 4.47035 33.1581 5.85508 32.6912 7.28495C31.2829 11.6047 27.7284 14.9686 24.6935 18.2197C21.4703 21.659 18.0588 24.9251 14.4817 27.9956C13.2843 29.019 12.0568 29.9296 10.7539 30.8177C9.87282 31.3821 8.98419 31.939 8.04284 32.3604C6.8605 32.8948 5.52754 33.1883 4.23978 32.8346C3.23065 32.5636 2.43238 31.8261 1.75461 31.0209C1.08437 30.2232 0.677705 29.3426 0.368942 28.3192C0.112894 27.4612 0.0752403 26.6409 0.0375863 25.7981L0.0225247 25.8056Z" fill="#997DC6"/>
</g>
<defs>
<clipPath id="clip0_603_5856">
<rect width="33" height="33" fill="white"/>
</clipPath>
</defs>
</svg>
