<svg width="23" height="22" viewBox="0 0 23 22" fill="none" xmlns="http://www.w3.org/2000/svg">
<path d="M20.7271 10.084C22.5931 9.63549 23.7623 6.90988 22.4231 4.85541C20.7033 2.22226 16.244 3.39331 16.244 3.39331C16.244 3.39331 15.0884 0 11.6114 0C8.1344 0 6.89723 3.35907 6.89723 3.35907C6.89723 3.35907 2.34618 1.63673 0.487021 4.81774C-0.801138 7.02288 0.687551 9.41634 2.37677 9.87517C2.66907 9.95393 2.85941 10.2313 2.83222 10.5326L2.12526 18.2472C2.08787 18.6512 2.24762 19.045 2.55691 19.3018C3.61055 20.1749 6.40439 22 11.3701 22C16.3358 22 19.4661 20.0928 20.6557 19.1922C21.0024 18.9286 21.1791 18.5005 21.1282 18.0691L20.2648 10.7586C20.2275 10.4504 20.4246 10.1594 20.7271 10.084ZM11.6284 17.689C10.0615 17.689 8.79038 16.4084 8.79038 14.8299C8.79038 13.2514 10.0615 11.9707 11.6284 11.9707C13.1953 11.9707 14.463 13.2514 14.463 14.8299C14.463 16.4084 13.1953 17.689 11.6284 17.689Z" fill="#F49227"/>
</svg>
