<svg width="24" height="22" viewBox="0 0 24 22" fill="none" xmlns="http://www.w3.org/2000/svg">
<path d="M21.6303 10.084C23.5737 9.63549 24.7972 6.90988 23.3964 4.85541C21.6054 2.22226 16.949 3.39331 16.949 3.39331C16.949 3.39331 15.7432 0 12.1151 0C8.48713 0 7.19623 3.35907 7.19623 3.35907C7.19623 3.35907 2.45108 1.63673 0.507625 4.81774C-0.836478 7.02288 0.720411 9.41634 2.47945 9.87517C2.78444 9.95393 2.98659 10.2313 2.95822 10.5326L2.21701 18.2472C2.18155 18.6512 2.34823 19.045 2.67095 19.3018C3.76681 20.1749 6.68199 22 11.8633 22C17.0447 22 20.311 20.0928 21.5522 19.1922C21.914 18.9286 22.1019 18.5005 22.0487 18.0691L21.1444 10.7586C21.1089 10.4504 21.3146 10.1594 21.6303 10.084ZM15.7432 14.0115C15.385 14.4121 15.002 14.7922 14.6154 15.1654C14.4735 15.3024 14.4558 15.4291 14.5054 15.6037C14.6509 16.0934 14.7785 16.5899 14.9097 17.083C14.9878 17.3843 14.9913 17.6719 14.7111 17.8808C14.4416 18.0862 14.1544 18.052 13.86 17.9082C13.3706 17.6753 12.8776 17.4459 12.374 17.237C12.2783 17.196 12.1151 17.2062 12.0265 17.2576C11.5584 17.5281 11.1009 17.8226 10.6434 18.1102C10.3703 18.2814 10.0937 18.3567 9.79577 18.1787C9.50141 17.9972 9.44112 17.7335 9.48723 17.4151C9.5688 16.8844 9.63972 16.3502 9.69292 15.816C9.70356 15.7202 9.65036 15.5832 9.57589 15.5216C9.15031 15.162 8.7141 14.8128 8.2708 14.4703C8.02964 14.282 7.89133 14.0526 7.9658 13.7581C8.04028 13.45 8.26725 13.2924 8.58998 13.2411C9.13968 13.1486 9.68228 13.0356 10.232 12.95C10.3951 12.9226 10.4767 12.861 10.5334 12.7138C10.7285 12.2104 10.9377 11.7139 11.1399 11.2106C11.2534 10.9298 11.4271 10.7209 11.764 10.697C12.1187 10.6696 12.3208 10.8579 12.4733 11.1387C12.7358 11.6146 12.9982 12.0872 13.2784 12.5528C13.3316 12.6384 13.4699 12.7206 13.5763 12.7309C14.1685 12.7823 14.7608 12.8028 15.3566 12.8439C15.7183 12.8713 15.9701 13.111 16.0553 13.4602C15.9524 13.6451 15.8815 13.8574 15.7432 14.0115Z" fill="#D1291C"/>
</svg>
