<svg width="79" height="18" viewBox="0 0 79 18" fill="none" xmlns="http://www.w3.org/2000/svg">
<g clip-path="url(#clip0_635_7568)">
<path d="M6.73696 7.64242C7.2039 7.82959 7.725 7.88148 8.21995 7.79068C8.57108 7.72767 8.91849 7.58683 9.16316 7.33109C9.4097 7.07535 9.53484 6.68988 9.41904 6.35446C9.36488 6.19879 9.26589 6.06351 9.16316 5.93378C8.7672 5.43342 8.30587 4.97198 7.74554 4.66065C7.33464 4.4327 6.87891 4.29001 6.41571 4.19364C5.25771 3.94902 4.02313 3.98423 2.92676 4.42529C1.83039 4.86635 0.887184 5.73549 0.489354 6.83999C0.0915245 7.94449 0.291373 9.27323 1.09637 10.135C2.41873 11.5489 4.85801 11.4044 6.20465 12.7961C6.25135 12.8443 6.29804 12.8981 6.32419 12.9611C6.41197 13.1834 6.19531 13.4077 5.98426 13.5226C5.37351 13.8525 4.59466 13.8562 3.98017 13.5337C3.347 13.2001 2.87073 12.5441 2.16472 12.4218C1.69779 12.3403 1.22898 12.5126 0.788193 12.6831C0.616361 12.7498 0.440793 12.8184 0.300712 12.9388C-0.117663 13.3021 -0.0410854 13.9748 0.190515 14.477C0.631303 15.4351 1.49607 16.1708 2.47663 16.5748C3.4572 16.9788 4.54983 17.0733 5.60698 16.9714C6.89945 16.8472 8.20127 16.4117 9.13888 15.5222C10.0765 14.6308 10.5789 13.2316 10.1792 12.0048C9.92146 11.2098 9.32005 10.5612 8.62899 10.0849C7.93792 9.60865 7.14973 9.29176 6.37088 8.97672C5.8255 8.75619 5.28199 8.53566 4.73661 8.31698C4.58719 8.25583 4.42656 8.18726 4.34064 8.05012C4.03807 7.56274 4.75715 7.20136 5.1363 7.15689C5.71904 7.08832 6.22333 7.43487 6.73696 7.64057V7.64242Z" fill="#D1291C"/>
<path d="M12.6801 3.1726C12.258 3.15777 11.8378 3.14294 11.4157 3.12812C11.2139 3.12071 11.001 3.117 10.8255 3.21707C10.5117 3.39498 10.4594 3.8138 10.4407 4.17146C10.422 4.53654 10.4033 4.90347 10.3847 5.26855C10.3697 5.56877 10.3641 5.90049 10.564 6.12658C10.9226 6.53428 11.6099 6.28966 12.1235 6.47312C12.0563 7.83151 11.9872 9.19175 11.9199 10.5501C11.8677 11.5842 11.821 12.6535 12.1908 13.6209C12.5643 14.5993 13.3693 15.4073 14.3518 15.7909C15.1325 16.0949 15.9935 16.1356 16.8303 16.0967C17.4279 16.0689 18.0331 16.0041 18.5878 15.7835C20.0222 15.2165 20.9075 13.6542 20.9299 12.1216C20.9393 11.536 20.7731 10.8596 20.237 10.6131C20.0558 10.5297 19.8541 10.5094 19.6561 10.4927C19.221 10.4575 18.7839 10.4445 18.3469 10.4519C18.1022 10.4575 17.822 10.489 17.6857 10.6891C17.6035 10.8114 17.5979 10.969 17.596 11.1172C17.5923 11.4415 17.5904 11.7825 17.4205 12.0586C17.2505 12.3348 16.8452 12.4941 16.5893 12.294C16.3745 12.1253 16.3689 11.8103 16.382 11.5397C16.4604 9.92931 16.5389 8.31704 16.6173 6.70662C17.3962 6.70292 18.1732 6.69921 18.952 6.6955C19.0958 6.6955 19.249 6.6918 19.376 6.62323C19.6225 6.48795 19.6748 6.16364 19.6972 5.88381C19.7402 5.37789 19.7832 4.87382 19.8261 4.3679C19.8467 4.11401 19.8616 3.83418 19.7028 3.63589C19.5235 3.41166 19.1986 3.3783 18.9109 3.36347C18.1657 3.32456 17.4223 3.28564 16.6771 3.24672C16.5986 2.69447 16.7088 2.13111 16.6771 1.5733C16.6453 1.01549 16.4249 0.407642 15.9169 0.168581C15.7283 0.0796278 15.5172 0.0499768 15.3099 0.0295917C14.8075 -0.0241507 14.2677 -0.0352698 13.8325 0.218617C13.3488 0.500301 13.0873 1.0507 12.9584 1.59368C12.8986 1.84757 12.6783 3.17074 12.6783 3.17074L12.6801 3.1726Z" fill="#D1291C"/>
<path d="M34.0004 16.0523C34.3814 15.8559 34.671 15.4222 34.6187 14.9997C34.5944 14.7977 34.4804 14.6179 34.3721 14.4456C33.9724 13.8081 33.4775 13.1076 32.7285 13.0038C32.1738 12.9297 31.6433 13.2095 31.1316 13.4319C30.1809 13.8452 29.1181 14.0898 28.0984 13.8841C27.3214 13.7284 25.8552 12.9501 25.9187 12.0012C27.2355 11.7955 28.6549 11.8585 29.9885 11.7937C31.3594 11.7307 32.7322 11.664 34.1032 11.5991C34.2526 11.5917 34.402 11.5843 34.5439 11.5454C34.9829 11.423 35.2948 11.0024 35.39 10.5558C35.4834 10.111 35.3975 9.64955 35.2649 9.21405C34.6261 7.12366 32.8518 5.40946 30.7244 4.82941C29.826 4.58664 28.8884 4.5329 27.9583 4.51066C27.637 4.5014 27.3158 4.49769 26.9983 4.54402C26.6378 4.59776 26.2904 4.71822 25.9523 4.85535C24.9643 5.26676 24.0397 5.85052 23.3076 6.63256C22.4764 7.51653 21.9124 8.64512 21.7032 9.83672C21.4473 11.2896 21.7275 12.8259 22.4596 14.1083C23.1918 15.3926 24.3685 16.4155 25.7394 16.9863C26.6546 17.3699 27.6482 17.5534 28.6437 17.5664C29.4861 17.5756 30.321 17.4366 31.1372 17.2328C31.6714 17.0994 33.3224 16.4063 34.0004 16.056V16.0523ZM31.0083 9.41605C30.9597 9.60692 26.804 9.65881 26.3782 9.66808C25.5526 9.6829 25.9168 9.13622 26.3184 8.68774C26.705 8.2541 27.2373 7.94647 27.8089 7.81675C28.6456 7.62587 29.5477 7.79451 30.3023 8.20592C30.532 8.33008 30.7599 8.48575 30.8962 8.70813C31.0251 8.91754 31.0662 9.17884 31.0083 9.41605Z" fill="#D1291C"/>
<path d="M35.0221 4.92385C34.8185 5.33341 34.9773 5.82265 35.1454 6.24888C35.8682 8.09095 36.7012 9.8941 37.2447 11.7973C37.5547 12.8833 37.7695 13.9989 38.1916 15.046C38.4008 15.5648 38.6829 16.0874 39.1554 16.3914C39.4617 16.5897 39.8259 16.6805 40.1845 16.7546C40.8663 16.8954 41.6339 16.9714 42.2036 16.5767C42.7209 16.2172 42.9282 15.5704 43.1057 14.9681C43.4643 13.745 43.821 12.5219 44.1796 11.3007C44.7082 12.3051 45.0687 13.3966 45.2443 14.5159C45.3171 14.9792 45.3657 15.4666 45.6309 15.8558C46.1557 16.623 47.2539 16.6731 48.1878 16.6434C48.6417 16.6286 49.1366 16.6008 49.4747 16.2987C49.7082 16.0912 49.8258 15.7872 49.936 15.4944C51.0641 12.4811 52.1923 9.46601 53.3185 6.45273C53.4418 6.12472 53.5651 5.79114 53.5763 5.44089C53.5875 5.09249 53.4642 4.72 53.1803 4.5143C52.9394 4.3401 52.6237 4.3123 52.3267 4.29006C51.9588 4.26226 51.5927 4.23447 51.2248 4.20667C50.4665 4.14922 49.5998 4.13069 49.0713 4.67552C48.8042 4.9498 48.6753 5.32414 48.5614 5.68736C48.0477 7.3089 47.6592 8.97121 47.4015 10.6521C46.8673 9.01754 46.3313 7.38118 45.7971 5.74667C45.7243 5.52243 45.6458 5.28893 45.4815 5.11844C45.3302 4.96092 45.1191 4.87382 44.9118 4.80154C44.3253 4.59769 43.623 4.50503 43.1206 4.87011C42.7321 5.15365 42.564 5.64103 42.4184 6.09692C41.9533 7.54611 41.4882 8.99716 41.0231 10.4463C40.6085 9.00271 40.1939 7.55908 39.7792 6.11545C39.6391 5.62436 39.4804 5.10361 39.0919 4.76818C38.4662 4.22335 37.5828 4.37716 36.8207 4.3438C36.1857 4.31601 35.3676 4.23632 35.024 4.92756L35.0221 4.92385Z" fill="#D1291C"/>
<path d="M78.9925 8.85259C78.901 7.46826 78.3089 6.11173 77.3022 5.15178C76.755 4.62918 76.0938 4.22704 75.3784 3.98242C75.0945 3.8842 74.8013 3.81192 74.5212 3.71185C74.2653 3.6229 74.0187 3.51171 73.7628 3.42276C72.8308 3.10771 71.8017 3.12439 70.8454 3.37087C69.891 3.61919 69.0057 4.08805 68.197 4.64956C67.8066 4.92013 67.4293 5.21479 67.0931 5.55021C66.0509 6.58614 65.4178 8.01495 65.3524 9.47526C65.2852 10.9356 65.7876 12.4163 66.7308 13.5412C66.9997 13.8599 67.3005 14.1509 67.6012 14.4418C68.0121 14.8365 68.4323 15.2387 68.9459 15.4833C69.2522 15.626 69.5828 15.7131 69.9078 15.7965C70.1413 15.8558 70.3748 15.9151 70.6082 15.9762C71.3497 16.1671 72.0968 16.3561 72.8626 16.3765C73.4397 16.3914 74.0131 16.3043 74.5753 16.1819C75.5148 15.9744 76.4449 15.6482 77.2182 15.0793C77.6534 14.7587 78.0587 14.3028 78.0437 13.7672C78.0344 13.4226 77.8513 13.1057 77.6459 12.8295C77.3396 12.4181 76.9249 12.0308 76.4094 11.9715C75.9518 11.9196 75.5111 12.1346 75.0833 12.3088C73.6265 12.9037 71.8615 13.0223 70.541 12.1679C70.2123 11.953 69.2261 11.0671 69.7397 10.665C69.9489 10.5019 70.6176 10.6131 70.866 10.6113C71.3292 10.6094 71.7886 10.6039 72.2518 10.602C74.0617 10.5872 75.8715 10.5723 77.6851 10.5575C77.8906 10.5557 78.1035 10.552 78.294 10.4778C78.8879 10.248 79.0355 9.48453 78.9907 8.85444L78.9925 8.85259ZM74.8331 8.38559C74.3456 8.37262 73.8562 8.3615 73.3669 8.35038C73.083 8.34297 72.7991 8.33555 72.5133 8.34482C71.7774 8.3615 71.0359 8.48381 70.2982 8.41153C69.5567 8.34297 69.6949 7.84631 70.1432 7.36819C70.4065 7.0865 70.7539 6.89748 71.1125 6.75108C71.7756 6.48422 72.5264 6.36191 73.2081 6.57132C73.5985 6.69178 73.9459 6.91231 74.2896 7.13098C74.4408 7.22735 74.5959 7.32557 74.7005 7.47197C74.8798 7.73141 74.8592 8.07055 74.8331 8.38559Z" fill="#D1291C"/>
<path d="M61.4376 6.75116C61.3872 6.70854 61.3218 6.67333 61.234 6.64738C61.0099 6.58067 60.7802 6.53619 60.5486 6.50469C60.0966 6.44353 59.639 6.43427 59.1832 6.42686C58.7368 6.41944 58.2905 6.41018 57.8441 6.40276C57.2483 6.39164 56.6132 6.40832 56.4507 7.07362C56.0828 8.5784 55.5318 10.0313 54.9845 11.4786C54.7343 12.1384 54.4709 12.7944 54.2804 13.4745C54.1179 14.0509 53.8303 14.5753 54.131 15.1683C54.2318 15.3685 54.3794 15.5408 54.5288 15.7076C54.9901 16.2302 55.472 16.7343 55.9726 17.218C56.1855 17.4237 56.4096 17.6312 56.6861 17.7369C56.8971 17.8165 57.125 17.8351 57.3491 17.8499C58.6547 17.9388 59.9621 17.9889 61.2695 17.9982C61.5982 18 61.9363 17.9982 62.237 17.8666C62.4443 17.7758 62.6199 17.6294 62.7936 17.4867C63.1335 17.205 63.4716 16.9215 63.8115 16.6398C64.1963 16.3192 64.5997 15.9708 64.751 15.4945C64.9153 14.9775 64.7454 14.4178 64.5418 13.9156C64.3588 13.4616 64.1496 13.0186 63.9124 12.5906C62.9579 10.8578 62.3733 8.90827 61.6337 7.08103C61.5739 6.93463 61.5273 6.829 61.4376 6.75302V6.75116Z" fill="#D1291C"/>
<path d="M61.2153 5.25932C61.6972 5.10365 62.1119 4.82938 62.3715 4.3457C62.6292 3.86387 62.6628 3.26899 62.4593 2.76307C62.2575 2.25901 61.841 1.85872 61.3629 1.59557C60.4328 1.08223 59.5811 1.13968 58.5631 1.24532C57.7301 1.33242 56.7365 1.4714 56.1481 2.13114C55.6719 2.66486 55.6046 3.39686 55.797 4.06216C55.9203 4.4921 56.1444 4.94613 56.5404 5.1889C56.9812 5.45946 57.4182 5.49838 57.93 5.48911C58.212 5.48355 58.494 5.47799 58.7761 5.47058C59.5213 5.45575 60.4533 5.50579 61.2172 5.26117L61.2153 5.25932Z" fill="#D1291C"/>
<path d="M57.2211 3.78778C57.513 3.73849 57.726 3.56112 57.6969 3.39161C57.6679 3.2221 57.4077 3.12465 57.1158 3.17394C56.824 3.22323 56.611 3.4006 56.6401 3.5701C56.6691 3.73961 56.9293 3.83707 57.2211 3.78778Z" fill="white"/>
<path d="M59.7298 2.55353C59.737 2.38173 59.503 2.23266 59.2072 2.22056C58.9114 2.20847 58.6658 2.33793 58.6587 2.50973C58.6515 2.68153 58.8855 2.83061 59.1813 2.8427C59.4771 2.8548 59.7227 2.72533 59.7298 2.55353Z" fill="white"/>
<path d="M61.1129 3.60199C61.4048 3.5527 61.6178 3.37533 61.5887 3.20582C61.5596 3.03631 61.2995 2.93885 61.0076 2.98814C60.7158 3.03743 60.5027 3.21481 60.5318 3.38431C60.5609 3.55382 60.8211 3.65128 61.1129 3.60199Z" fill="white"/>
<path d="M55.9464 15.2443C55.9464 15.2443 55.9539 15.2498 55.9576 15.2517C56.1668 15.4148 56.376 15.5797 56.5871 15.7428C57.1324 16.169 57.6125 16.5044 58.3054 16.586C59.0674 16.6731 59.8276 16.6768 60.5859 16.5471C60.8343 16.5044 61.0827 16.4507 61.3199 16.3636C62.0259 16.1079 62.7245 15.4018 62.9729 14.6846C63.0906 14.3399 62.689 13.8229 62.519 13.4874C62.1007 12.6535 61.742 11.7214 61.2378 10.9375C61.1574 10.7781 61.0734 10.615 60.9333 10.5075C60.7391 10.3593 60.4757 10.3444 60.231 10.3389C59.4522 10.3241 58.6715 10.3574 57.8964 10.4352C57.4705 10.4779 57.153 10.5038 56.9121 10.8578C56.6356 11.2636 56.4264 11.7417 56.2378 12.1921C56.038 12.6702 55.8736 13.1631 55.7447 13.6635C55.6644 13.9767 55.4309 14.566 55.5897 14.8699C55.67 15.0237 55.8101 15.1368 55.9483 15.2443H55.9464Z" fill="white"/>
</g>
<defs>
<clipPath id="clip0_635_7568">
<rect width="79" height="18" fill="white"/>
</clipPath>
</defs>
</svg>
