<svg width="79" height="21" viewBox="0 0 79 21" fill="none" xmlns="http://www.w3.org/2000/svg">
<g clip-path="url(#clip0_553_6190)">
<path d="M7.21036 10.3573C7.71073 10.5584 8.26699 10.6139 8.79664 10.516C9.17192 10.4472 9.54453 10.2964 9.80536 10.0238C10.0689 9.74865 10.2019 9.33584 10.0795 8.97596C10.0209 8.80926 9.91449 8.66372 9.80536 8.52612C9.38218 7.98894 8.88713 7.49411 8.28828 7.16069C7.84647 6.9146 7.3594 6.76377 6.86702 6.66057C5.6294 6.3986 4.30661 6.43564 3.13287 6.90931C1.95913 7.38032 0.950402 8.31442 0.524555 9.49991C0.0987078 10.6854 0.314293 12.1117 1.17397 13.0325C2.58991 14.5488 5.20089 14.3953 6.64079 15.8878C6.69136 15.9407 6.74193 15.9963 6.76854 16.0651C6.8617 16.3032 6.63014 16.544 6.40391 16.6684C5.74917 17.023 4.91611 17.0256 4.2587 16.679C3.58001 16.3217 3.07165 15.6179 2.31578 15.4855C1.8154 15.3982 1.31503 15.5835 0.841279 15.766C0.657632 15.8375 0.468663 15.9116 0.319616 16.0386C-0.130185 16.4276 -0.0476772 17.15 0.199846 17.6898C0.673602 18.7192 1.59716 19.5051 2.64581 19.939C3.69712 20.373 4.86554 20.4736 5.99669 20.3651C7.3807 20.2328 8.77269 19.7644 9.77609 18.8091C10.7795 17.8539 11.3171 16.3508 10.8913 15.0383C10.6145 14.1863 9.97304 13.4877 9.23047 12.9796C8.4879 12.4716 7.64685 12.1302 6.81379 11.7915C6.23091 11.556 5.64803 11.3205 5.06515 11.0823C4.90546 11.0162 4.73246 10.9447 4.64197 10.7965C4.31726 10.2726 5.08911 9.88625 5.49366 9.83862C6.11646 9.76452 6.65676 10.135 7.2077 10.3573H7.21036Z" fill="#D1291C"/>
<path d="M13.5738 5.56479C13.124 5.54891 12.6715 5.53303 12.2217 5.51716C12.0061 5.50922 11.7772 5.50393 11.5909 5.61242C11.2556 5.80294 11.197 6.25279 11.1784 6.63649C11.1571 7.02812 11.1384 7.4224 11.1172 7.81403C11.1012 8.13422 11.0959 8.49145 11.3088 8.7349C11.692 9.17416 12.4266 8.90955 12.9776 9.10536C12.9057 10.5634 12.8312 12.0214 12.7593 13.4768C12.7034 14.5856 12.6529 15.7314 13.0494 16.7713C13.4513 17.8218 14.311 18.6871 15.3623 19.0999C16.198 19.4254 17.1189 19.4678 18.0159 19.4281C18.6547 19.399 19.3041 19.3275 19.8976 19.092C21.4333 18.4834 22.3808 16.8084 22.4048 15.1651C22.4154 14.5379 22.2371 13.8103 21.6649 13.5483C21.4706 13.4583 21.255 13.4371 21.0421 13.4186C20.5763 13.3816 20.1079 13.3657 19.6394 13.3763C19.3786 13.3816 19.0778 13.416 18.9315 13.6303C18.8436 13.7626 18.8356 13.932 18.8356 14.0907C18.833 14.4374 18.8303 14.8052 18.6467 15.1016C18.4657 15.398 18.0319 15.57 17.7577 15.3556C17.5288 15.1757 17.5208 14.837 17.5341 14.5459C17.6166 12.8179 17.7018 11.09 17.7843 9.36204C18.6174 9.3594 19.4505 9.3541 20.2835 9.35146C20.4379 9.35146 20.6002 9.34881 20.736 9.27207C20.9995 9.12653 21.0554 8.77724 21.082 8.47822C21.1272 7.93576 21.1725 7.39329 21.2204 6.85347C21.2443 6.58092 21.2576 6.2819 21.0873 6.06756C20.8957 5.82676 20.547 5.79236 20.2409 5.77384C19.4451 5.7315 18.6467 5.68916 17.8509 5.64682C17.7684 5.05408 17.8828 4.45075 17.8509 3.85272C17.8189 3.25468 17.5821 2.60372 17.0364 2.34705C16.8342 2.25178 16.6079 2.22003 16.387 2.19621C15.8494 2.138 15.2718 2.12741 14.8061 2.39997C14.2871 2.70163 14.0076 3.29173 13.8719 3.87389C13.808 4.14644 13.5738 5.56479 13.5738 5.56479Z" fill="#D1291C"/>
<path d="M36.3938 19.3778C36.801 19.1661 37.1124 18.703 37.0565 18.2479C37.0299 18.0309 36.9074 17.8404 36.793 17.6551C36.3645 16.9698 35.8348 16.2209 35.0337 16.1071C34.4402 16.0277 33.8733 16.3268 33.325 16.5649C32.3083 17.0095 31.1692 17.2688 30.0779 17.0492C29.2475 16.8825 27.6772 16.0463 27.7437 15.0275C29.1544 14.8052 30.6714 14.874 32.1007 14.8052C33.5672 14.7364 35.039 14.6676 36.5056 14.5962C36.6652 14.5882 36.8249 14.5803 36.9766 14.538C37.4477 14.4056 37.7804 13.9558 37.8816 13.4768C37.98 13.0005 37.8896 12.503 37.7485 12.0373C37.0645 9.79337 35.1641 7.95693 32.8885 7.33508C31.9277 7.07311 30.9216 7.01754 29.9262 6.99372C29.5829 6.98314 29.2369 6.97784 28.8989 7.03077C28.5129 7.08898 28.1403 7.21865 27.781 7.36418C26.7244 7.80345 25.7343 8.43324 24.9518 9.26943C24.0628 10.2194 23.4587 11.4287 23.2351 12.7068C22.9609 14.2654 23.2617 15.914 24.0442 17.2873C24.8267 18.6633 26.0883 19.7615 27.5548 20.3754C28.5342 20.7856 29.5988 20.984 30.6635 20.9972C31.5657 21.0078 32.46 20.857 33.333 20.6374C33.9052 20.4945 35.6725 19.7509 36.3964 19.3751L36.3938 19.3778ZM33.1919 12.2596C33.1414 12.4634 28.6913 12.5216 28.2361 12.5295C27.3525 12.5454 27.7411 11.9606 28.1723 11.479C28.5875 11.0133 29.157 10.6851 29.7692 10.5449C30.6661 10.3411 31.6296 10.5211 32.4387 10.963C32.6862 11.0979 32.9284 11.262 33.0748 11.5028C33.2132 11.7277 33.2558 12.0082 33.1946 12.2622L33.1919 12.2596Z" fill="#D1291C"/>
<path d="M37.4881 7.44356C37.2698 7.88283 37.4402 8.40677 37.6185 8.86456C38.3903 10.8412 39.2846 12.7756 39.8648 14.8158C40.1975 15.9801 40.4264 17.1762 40.8789 18.2982C41.1025 18.8538 41.4032 19.4148 41.9089 19.743C42.2363 19.9547 42.6275 20.0526 43.0108 20.1319C43.74 20.2828 44.5625 20.3648 45.172 19.9414C45.7256 19.5551 45.9491 18.8618 46.1381 18.2161C46.5214 16.9036 46.9046 15.5938 47.2879 14.2813C47.8521 15.3583 48.2407 16.5279 48.427 17.7292C48.5042 18.2267 48.5574 18.7506 48.8396 19.1661C49.4012 19.9891 50.5776 20.042 51.5756 20.0129C52.0627 19.997 52.5923 19.9652 52.9543 19.6424C53.2045 19.4201 53.3296 19.092 53.4467 18.7798C54.655 15.5461 55.8607 12.3152 57.0691 9.08154C57.1995 8.7296 57.3326 8.37237 57.3432 7.99661C57.3539 7.6235 57.2234 7.22393 56.9174 7.0043C56.6592 6.81907 56.3212 6.78731 56.0044 6.7635C55.6105 6.73439 55.2166 6.70528 54.8254 6.67353C54.0136 6.61267 53.0847 6.5915 52.5205 7.1763C52.2357 7.47003 52.0973 7.87224 51.9749 8.26123C51.4239 10.0024 51.0087 11.7833 50.7346 13.5853C50.1624 11.8309 49.5901 10.0765 49.0179 8.32474C48.938 8.08394 48.8555 7.8352 48.6799 7.65261C48.5175 7.48326 48.2913 7.39064 48.0704 7.31125C47.4423 7.09427 46.6917 6.99371 46.1541 7.38535C45.7389 7.68966 45.5579 8.21095 45.4009 8.70049C44.9031 10.2564 44.4054 11.8097 43.9077 13.3657C43.4632 11.8177 43.0214 10.2697 42.5769 8.72166C42.4252 8.19507 42.2576 7.63673 41.8424 7.27685C41.1743 6.6947 40.2268 6.85611 39.4124 6.82171C38.731 6.79261 37.8554 6.70528 37.4881 7.44621V7.44356Z" fill="#D1291C"/>
<path d="M59.9325 5.55403C59.4428 5.65723 58.961 5.94037 58.7481 6.39022C58.5938 6.71305 58.5938 7.08616 58.5938 7.4434C58.6044 10.8622 58.647 14.2837 58.7188 17.7026C58.7215 17.8878 58.7295 18.0863 58.828 18.2451C58.9797 18.4885 59.2991 18.5652 59.5838 18.6076C60.5021 18.7452 61.4389 18.769 62.3625 18.6817C62.6313 18.6552 62.9241 18.6076 63.1024 18.4065C63.2834 18.2027 63.294 17.9011 63.2914 17.6259C63.2701 14.0826 63.2328 10.5394 63.1956 6.99619C63.1956 6.80038 63.1876 6.59398 63.0864 6.42727C62.9959 6.27379 62.8363 6.17588 62.6819 6.08591C61.8116 5.58579 60.9412 5.33705 59.9272 5.55138L59.9325 5.55403Z" fill="#D1291C"/>
<path d="M58.916 0.574141C58.192 1.17218 57.6225 2.40794 58.2506 3.25206C58.5913 3.70985 59.1715 4.04062 59.7011 4.23644C60.0737 4.37404 60.4703 4.42696 60.8669 4.43755C61.511 4.45343 62.1923 4.34229 62.6847 3.93213C63.052 3.62517 63.2782 3.18062 63.4113 2.72548C63.5577 2.228 63.5976 1.6723 63.3661 1.20658C63.1585 0.788481 62.7486 0.494756 62.3094 0.325401C61.2315 -0.0900474 59.8528 -0.19854 58.916 0.576787V0.574141Z" fill="#D1291C"/>
<path d="M78.9919 11.6566C78.8934 10.1721 78.26 8.7167 77.182 7.68734C76.5965 7.12635 75.8885 6.69502 75.122 6.43305C74.8186 6.3272 74.5045 6.25047 74.2038 6.14197C73.9296 6.04671 73.6662 5.92763 73.392 5.83237C72.3939 5.49366 71.292 5.51218 70.27 5.7768C69.248 6.04406 68.3005 6.54684 67.4355 7.14752C67.0176 7.4386 66.6131 7.75349 66.2537 8.11337C65.1386 9.22476 64.4599 10.7569 64.3907 12.3234C64.3188 13.89 64.8564 15.4777 65.8652 16.6843C66.1526 17.0257 66.4747 17.3379 66.7967 17.6502C67.2359 18.0735 67.6857 18.5049 68.2366 18.7668C68.564 18.9203 68.918 19.0129 69.2666 19.1029C69.5168 19.1664 69.767 19.2299 70.0172 19.2961C70.8103 19.4998 71.6114 19.7036 72.4312 19.7248C73.0487 19.7406 73.6635 19.648 74.265 19.5157C75.2711 19.2934 76.2665 18.9441 77.0942 18.3329C77.56 17.9889 77.9938 17.4993 77.9779 16.9251C77.9672 16.5546 77.7729 16.2159 77.552 15.9196C77.2246 15.4777 76.7802 15.0622 76.2292 14.9987C75.7395 14.9431 75.2684 15.1733 74.8106 15.3612C73.2509 15.999 71.3613 16.126 69.948 15.2104C69.5966 14.9802 68.54 14.0302 69.091 13.5989C69.3145 13.4242 70.0305 13.5433 70.2966 13.5407C70.7917 13.538 71.2841 13.5327 71.7791 13.5301C73.7167 13.5142 75.6543 13.4983 77.5946 13.4824C77.8155 13.4798 78.0417 13.4772 78.2467 13.3978C78.8828 13.1517 79.0398 12.3314 78.9919 11.6566ZM74.5391 11.1565C74.0175 11.1432 73.4932 11.13 72.9688 11.1194C72.6654 11.1115 72.362 11.1035 72.0559 11.1141C71.2681 11.1326 70.475 11.2623 69.6845 11.1856C68.8913 11.1115 69.0377 10.5796 69.5195 10.0662C69.8016 9.76458 70.1742 9.56082 70.5575 9.4047C71.2681 9.11891 72.0719 8.9866 72.8011 9.21153C73.219 9.34119 73.5916 9.5767 73.9589 9.81221C74.1213 9.91541 74.2863 10.0213 74.3981 10.1774C74.5897 10.4552 74.5684 10.8204 74.5391 11.1565Z" fill="#D1291C"/>
</g>
<defs>
<clipPath id="clip0_553_6190">
<rect width="79" height="21" fill="white"/>
</clipPath>
</defs>
</svg>
