<?xml version="1.0" standalone="no"?>
<!DOCTYPE svg PUBLIC "-//W3C//DTD SVG 20010904//EN"
 "http://www.w3.org/TR/2001/REC-SVG-20010904/DTD/svg10.dtd">
<svg version="1.0" xmlns="http://www.w3.org/2000/svg"
 width="225.000000pt" height="225.000000pt" viewBox="0 0 225.000000 225.000000"
 preserveAspectRatio="xMidYMid meet">

<g transform="translate(0.000000,225.000000) scale(0.100000,-0.100000)"
fill="#000000" stroke="none">
<path d="M10 2234 c0 -12 5 -14 18 -9 55 24 94 6 73 -33 -13 -25 -5 -32 34
-32 30 0 85 -37 85 -58 0 -16 -41 -52 -60 -52 -11 0 -35 14 -52 30 -25 25 -39
30 -67 28 -32 -3 -36 -7 -39 -33 -2 -23 2 -32 20 -40 31 -13 31 -56 1 -70 -18
-8 -23 -18 -23 -47 0 -42 10 -47 39 -21 11 9 45 30 75 47 30 17 81 56 113 87
32 31 92 78 133 105 41 26 77 50 80 54 9 12 40 19 40 10 0 -6 7 -10 15 -10 8
0 15 3 15 8 0 14 61 34 95 30 22 -3 35 0 35 8 0 8 -83 12 -315 13 -285 1 -315
0 -315 -15z m356 -5 c10 -16 -11 -32 -34 -24 -13 4 -19 12 -15 21 6 16 39 19
49 3z"/>
<path d="M668 2243 c7 -3 16 -2 19 1 4 3 -2 6 -13 5 -11 0 -14 -3 -6 -6z"/>
<path d="M1010 2241 c0 -14 27 -20 38 -9 6 6 29 8 57 3 26 -3 45 -9 42 -11 -3
-3 -40 -7 -83 -9 -58 -4 -80 -9 -87 -21 -6 -10 -17 -14 -31 -10 -11 3 -28 1
-35 -4 -12 -7 -10 -16 13 -49 27 -38 28 -46 29 -165 2 -116 0 -126 -22 -156
-21 -30 -39 -109 -44 -205 -1 -21 -9 -33 -24 -40 -24 -10 -32 -27 -10 -23 26
6 -7 -92 -37 -109 -8 -4 -16 -12 -18 -18 -2 -5 -14 -9 -27 -7 -13 2 -46 -2
-73 -8 -60 -15 -81 -2 -76 44 3 29 6 31 56 39 34 6 52 13 52 23 0 9 -11 14
-30 14 -16 0 -30 5 -30 10 0 15 -30 12 -30 -2 0 -7 -7 -22 -15 -32 -14 -19
-16 -19 -43 12 -25 27 -38 33 -85 37 -36 3 -58 1 -63 -7 -5 -8 0 -9 14 -6 12
4 22 3 22 -2 0 -4 14 -13 31 -20 17 -7 37 -20 45 -28 13 -13 12 -16 -6 -29
-11 -8 -20 -21 -20 -30 0 -9 -6 -13 -15 -9 -8 3 -15 2 -15 -2 0 -4 -10 -12
-23 -18 -83 -42 -107 -57 -147 -93 -24 -22 -46 -38 -48 -36 -2 2 3 18 11 35
l16 30 -31 -22 c-16 -13 -59 -50 -94 -83 -66 -61 -86 -75 -142 -95 -31 -12
-32 -14 -32 -70 0 -56 1 -57 25 -52 19 3 25 0 25 -13 0 -13 3 -15 13 -7 10 8
21 -1 47 -41 80 -119 176 -197 292 -237 35 -12 73 -29 86 -37 13 -8 30 -12 37
-9 23 8 95 -48 201 -156 96 -98 141 -158 127 -172 -4 -3 -2 -6 3 -6 5 0 16 15
24 33 15 31 17 32 78 33 35 0 65 -3 68 -8 3 -4 16 -8 29 -8 13 0 26 -4 29 -9
11 -17 121 -21 194 -7 47 9 85 11 103 6 33 -10 69 11 69 40 0 13 1 13 10 0 11
-17 40 -5 48 20 4 10 -6 12 -44 7 -35 -5 -54 -2 -68 8 -17 13 -17 15 -3 15 10
0 14 5 11 15 -4 8 -11 12 -18 8 -6 -4 -17 -8 -24 -9 -17 -3 -41 -34 -42 -53 0
-11 4 -10 19 3 17 16 20 16 35 1 21 -22 11 -37 -20 -29 -14 4 -31 1 -39 -6
-12 -10 -21 -10 -45 0 -35 15 -39 30 -7 31 l22 0 -22 9 c-13 5 -23 14 -23 20
0 5 -4 10 -10 10 -5 0 -10 -11 -10 -24 0 -20 -4 -22 -26 -18 -19 3 -25 1 -20
-7 4 -6 1 -11 -8 -11 -20 0 -29 17 -14 24 7 4 -3 4 -22 1 -25 -4 -31 -2 -20 5
13 8 12 10 -3 10 -10 0 -28 10 -41 23 l-23 23 -49 -22 c-27 -13 -59 -23 -71
-24 -13 0 -23 -4 -23 -10 0 -5 -4 -10 -10 -10 -26 0 7 31 44 41 22 6 70 22
105 35 41 16 95 27 149 31 83 6 84 6 77 -15 -4 -13 -2 -22 4 -22 18 0 12 -18
-6 -22 -12 -2 -14 -6 -7 -11 6 -3 21 2 34 13 12 10 29 16 37 13 9 -4 14 -2 10
3 -14 24 8 33 52 22 32 -8 45 -8 50 1 4 6 15 9 25 5 10 -4 27 -2 39 4 30 15
297 32 340 22 32 -7 47 -14 128 -56 28 -15 47 -51 50 -94 2 -43 -1 -52 -14
-47 -7 3 -26 -1 -43 -8 -38 -16 -49 -17 -50 -5 -1 6 -2 13 -3 16 0 4 -8 1 -17
-7 -13 -11 -15 -11 -14 2 4 28 0 50 -9 45 -5 -3 -7 -22 -4 -42 4 -33 0 -40
-54 -91 -32 -31 -75 -66 -95 -79 -23 -15 -35 -29 -32 -38 3 -8 1 -17 -5 -21
-7 -4 -8 0 -4 11 5 14 3 15 -15 5 -12 -7 -22 -18 -22 -26 0 -7 -4 -15 -8 -17
-5 -2 -5 -14 -1 -28 7 -23 8 -24 14 -5 6 18 115 83 115 68 0 -11 -80 -83 -113
-100 l-32 -18 63 -3 c60 -3 66 -1 134 44 39 26 109 85 157 132 50 49 60 62 24
29 -105 -93 -132 -106 -48 -22 82 83 115 120 129 145 4 8 -15 -9 -43 -39 -28
-30 -54 -51 -57 -48 -6 6 3 19 44 62 12 13 22 35 22 47 0 13 13 39 29 58 22
27 27 39 20 53 -12 21 -4 37 18 37 15 0 15 2 0 18 -15 17 -20 34 -18 61 1 11
4 11 18 0 15 -13 16 -11 10 12 -4 17 0 39 13 64 21 41 27 63 9 32 -6 -9 -14
-15 -18 -13 -4 3 -24 6 -44 8 -21 1 -37 7 -38 13 -1 5 -4 -1 -8 -15 -16 -56
-80 -17 -81 49 0 33 -1 34 -15 15 -14 -19 -14 -18 -16 4 -6 80 -5 87 20 90 22
4 23 1 17 -35 -5 -33 -4 -35 7 -19 6 10 20 26 30 35 10 9 17 30 17 49 0 18 4
31 9 28 5 -3 11 3 14 14 3 11 1 18 -4 14 -5 -3 -9 3 -9 13 0 11 -5 24 -12 31
-9 9 -8 12 5 12 9 0 17 5 17 11 0 5 -3 8 -7 6 -5 -3 -6 16 -4 41 3 42 5 44 17
27 8 -10 14 -26 14 -36 0 -9 7 -20 16 -23 14 -5 15 -4 4 9 -22 27 5 43 83 48
17 1 25 7 22 15 -5 12 2 15 45 16 22 1 25 6 28 44 2 23 -1 42 -6 42 -5 0 -9
-13 -9 -30 0 -36 -2 -39 -36 -42 -15 -1 -27 -6 -27 -10 0 -4 -7 -8 -15 -8 -8
0 -12 6 -9 14 3 8 1 17 -5 21 -18 11 -13 45 7 43 45 -3 64 2 58 18 -3 8 -2 12
4 9 6 -3 10 -2 10 3 0 6 -12 13 -26 16 -36 9 -23 19 15 11 16 -3 32 -14 34
-23 3 -9 5 2 6 24 1 34 -4 45 -24 58 -14 9 -25 21 -25 27 0 8 5 7 15 -1 12
-10 15 -10 15 1 0 11 2 11 10 -1 7 -10 10 7 10 57 0 58 -3 74 -17 83 -17 11
-17 11 0 6 14 -4 17 0 15 25 -1 17 -6 33 -10 35 -5 3 -5 10 -2 16 4 6 3 8 -3
5 -5 -3 -23 1 -39 9 -16 9 -42 17 -58 19 -15 2 -36 11 -46 20 -12 11 -26 14
-41 10 -15 -5 -19 -4 -14 5 5 9 1 10 -16 5 -13 -4 -25 -12 -27 -16 -2 -5 -11
-9 -21 -9 -9 0 -23 -6 -30 -12 -11 -11 -13 -10 -9 2 3 8 14 16 26 18 12 2 22
7 22 12 0 5 -7 7 -15 4 -8 -3 -32 -7 -52 -7 -33 -2 -38 -5 -36 -24 2 -13 -1
-23 -6 -23 -11 0 -35 -58 -36 -84 0 -11 -6 -21 -12 -23 -16 -6 -6 53 14 82 7
11 13 27 13 36 0 9 18 33 40 53 22 20 40 41 40 47 0 8 5 8 15 -1 10 -9 15 -9
15 -1 0 19 17 12 23 -9 3 -11 13 -20 24 -20 14 0 15 2 4 9 -12 8 -12 12 -2 25
8 9 10 16 6 16 -4 0 -2 6 4 14 9 11 2 24 -35 65 -25 28 -52 51 -60 51 -8 0
-14 6 -14 14 0 7 -11 25 -25 40 -14 15 -25 32 -25 38 0 20 -44 83 -102 146
-32 34 -58 68 -58 75 0 7 -11 29 -25 49 -14 20 -25 46 -25 57 0 31 -14 25 -32
-13 -16 -33 -16 -34 20 -86 52 -74 65 -101 56 -110 -13 -12 -74 -20 -74 -10 0
14 -61 40 -92 40 -18 0 -28 -5 -28 -15 0 -16 -63 -49 -82 -42 -7 2 -22 -4 -33
-14 -17 -15 -22 -16 -39 -4 -15 12 -17 17 -7 29 15 17 7 36 -15 36 -21 0 -17
18 6 30 11 6 20 15 20 20 0 12 -30 2 -52 -18 -16 -14 -18 -13 -18 1 0 16 -17
22 -49 17 -11 -1 -10 2 3 15 9 9 16 22 15 28 0 9 -2 8 -6 0 -10 -27 -20 -11
-19 32 1 25 4 45 9 45 4 0 7 -4 7 -10 0 -16 17 -12 24 6 14 36 -11 44 -135 44
-66 0 -119 -4 -119 -9z m141 -114 c-1 -12 -15 -9 -19 4 -3 6 1 10 8 8 6 -3 11
-8 11 -12z m145 -156 l37 -20 -29 -7 c-16 -4 -36 -12 -44 -19 -22 -18 -48 -25
-65 -19 -12 5 -7 15 22 45 21 21 39 39 41 39 1 0 18 -9 38 -19z m332 -51 c12
-11 24 -20 27 -20 3 0 27 -19 51 -42 25 -24 56 -49 70 -56 47 -25 19 -72 -46
-77 -14 -2 -33 -6 -42 -10 -12 -5 -28 4 -53 29 -20 20 -37 36 -38 36 -2 0 -3
-12 -2 -27 0 -26 -19 -52 -38 -53 -5 0 -5 10 -2 23 4 15 4 18 -3 8 -10 -14
-36 -6 -27 9 3 4 -1 10 -9 13 -25 10 -25 54 1 81 12 14 23 32 23 40 0 8 12 21
28 29 15 7 26 19 25 25 -4 18 11 14 35 -8z m-585 -35 c20 -8 50 -15 66 -15 19
0 35 -8 44 -20 9 -12 20 -18 30 -14 8 3 26 -1 39 -9 13 -8 48 -18 78 -22 30
-4 74 -16 98 -28 43 -21 77 -60 67 -76 -11 -19 9 -41 49 -53 22 -7 58 -22 78
-33 57 -32 187 -148 183 -162 -3 -7 2 -13 10 -13 16 0 75 -75 75 -95 0 -7 10
-20 21 -31 29 -25 63 -104 40 -89 -5 3 -12 1 -16 -4 -3 -5 2 -14 11 -19 18
-10 29 -118 13 -127 -5 -4 -9 -16 -10 -28 0 -12 -14 -49 -30 -82 -16 -33 -27
-51 -24 -39 5 18 1 21 -25 22 -16 0 -31 -5 -32 -11 0 -7 -2 -16 -3 -22 -2 -5
-4 -14 -5 -20 -1 -5 -5 1 -9 15 -4 14 -4 30 2 37 10 14 -16 47 -27 36 -9 -9
-38 -14 -53 -8 -12 4 -7 21 20 62 11 17 37 5 37 -17 0 -10 14 -29 31 -41 29
-20 32 -20 47 -5 14 13 14 18 4 25 -7 4 -14 20 -16 35 -1 14 -10 32 -18 39
-23 18 -30 47 -13 47 8 0 14 -6 12 -12 -1 -7 8 -14 21 -16 12 -2 22 -8 22 -13
0 -5 11 -9 25 -9 16 0 25 6 25 15 0 8 -4 15 -10 15 -5 0 -10 -6 -10 -12 0 -7
-8 1 -19 17 -16 27 -20 64 -10 104 2 7 -2 16 -8 18 -7 3 -13 -2 -13 -11 0 -10
-9 -16 -24 -16 -14 0 -27 -4 -31 -9 -7 -12 -45 -10 -45 2 0 4 -4 6 -9 3 -9 -6
-61 41 -61 56 0 5 9 7 19 3 26 -8 35 9 14 26 -12 10 -14 10 -9 2 4 -7 2 -13
-3 -13 -6 0 -11 6 -12 13 0 9 -2 9 -6 -1 -2 -6 -9 -10 -14 -6 -5 3 -17 -3 -27
-14 -13 -15 -25 -19 -49 -15 -18 3 -33 9 -33 14 0 12 39 31 50 24 6 -3 10 1
10 9 0 8 -5 18 -10 21 -6 4 -8 11 -5 16 4 5 -3 9 -14 9 -24 0 -36 16 -19 23 7
3 3 6 -9 6 -16 1 -22 -6 -25 -26 -2 -18 -10 -29 -22 -31 -16 -3 -18 0 -12 22
4 15 15 35 25 45 10 10 20 24 22 30 3 8 14 8 37 2 34 -10 42 -2 17 19 -8 7
-15 9 -15 4 0 -5 -6 0 -14 11 -21 32 -17 55 11 51 13 -3 23 0 23 5 0 5 -5 9
-11 9 -7 0 -18 8 -26 18 -14 16 -14 16 -9 0 7 -22 -26 -25 -46 -5 -18 19 -81
18 -73 0 3 -10 -1 -13 -14 -8 -19 6 -58 -22 -46 -33 3 -3 11 0 17 6 15 15 32
16 23 2 -3 -5 -2 -10 4 -10 5 0 12 6 14 13 4 9 7 9 15 -1 11 -17 62 -43 71
-38 4 3 8 -4 8 -15 2 -20 -12 -26 -22 -9 -3 6 -15 10 -26 10 -12 0 -17 -4 -13
-11 5 -8 2 -9 -11 -1 -14 7 -22 6 -32 -4 -8 -7 -20 -11 -28 -8 -8 4 -17 -1
-21 -9 -3 -9 -18 -15 -39 -14 -20 1 -31 5 -28 12 8 21 -22 36 -50 26 -21 -8
-28 -7 -36 7 -13 23 -23 10 -16 -21 6 -23 26 -35 67 -41 10 -2 27 -14 38 -29
12 -15 27 -24 35 -20 8 3 15 1 15 -5 0 -5 -10 -13 -22 -16 l-23 -7 24 -10 c18
-7 22 -15 19 -34 -3 -14 -1 -25 3 -25 5 0 9 5 9 12 0 9 3 8 13 -1 10 -11 10
-14 0 -18 -14 -5 -18 -43 -5 -43 4 0 13 5 19 11 8 8 18 6 38 -7 15 -9 22 -20
16 -23 -6 -4 5 -15 24 -25 19 -11 35 -26 35 -34 0 -10 7 -12 24 -8 14 3 28 2
31 -4 3 -5 -1 -10 -9 -10 -9 0 -16 -7 -16 -15 0 -14 12 -20 33 -16 12 2 67
-39 67 -49 0 -6 -10 -6 -25 0 -18 7 -28 5 -39 -6 -13 -13 -16 -12 -26 6 -6 11
-17 20 -25 20 -7 0 -16 6 -18 13 -3 7 -6 4 -6 -7 -1 -12 -6 -16 -16 -12 -23 8
-32 -24 -11 -39 18 -13 14 -59 -6 -71 -5 -3 -4 -11 2 -19 7 -8 9 -19 5 -25 -4
-6 1 -20 11 -31 11 -12 13 -19 5 -19 -7 0 -9 -5 -6 -11 8 -13 -26 -47 -41 -42
-6 2 -14 -5 -17 -17 -3 -11 -13 -20 -25 -20 -25 0 -44 -23 -37 -42 9 -23 -31
-17 -50 7 -8 11 -13 13 -10 5 3 -8 0 -22 -5 -30 -9 -13 -11 -13 -20 0 -12 18
-13 80 -2 80 4 0 13 -5 20 -12 8 -8 12 -9 12 -1 0 6 -5 13 -10 15 -15 5 -25
83 -29 211 -1 25 -6 37 -15 37 -11 0 -13 -10 -9 -40 l6 -40 -34 6 c-19 4 -42
11 -51 16 -20 10 -24 33 -7 44 7 4 3 14 -12 28 -28 25 -49 60 -49 81 0 8 -4
15 -10 15 -5 0 -10 5 -10 10 0 18 22 10 27 -10 6 -23 23 -27 23 -5 0 8 -4 15
-10 15 -5 0 -10 9 -10 20 0 13 7 20 20 20 12 0 20 7 21 18 0 14 2 14 8 -3 7
-18 9 -16 15 12 9 41 36 66 28 27 -5 -25 -3 -26 27 -22 18 3 34 1 37 -4 7 -11
24 -10 24 2 0 6 -7 10 -15 10 -28 0 -15 18 20 30 19 6 35 16 35 22 0 6 -7 8
-14 5 -10 -4 -13 -1 -9 9 6 17 -8 18 -26 2 -11 -11 -13 -9 -8 10 4 18 3 21 -8
12 -9 -8 -14 -5 -18 10 -7 26 -37 26 -44 1 -3 -11 -11 -22 -19 -25 -7 -3 -11
-12 -8 -21 9 -23 -19 -18 -34 6 -11 16 -16 19 -25 10 -9 -10 -8 -16 7 -26 18
-13 18 -14 -3 -12 -15 1 -21 8 -21 24 0 25 -15 31 -23 11 -3 -8 -6 -6 -6 5 -1
9 5 17 12 18 6 0 2 5 -11 12 -23 10 -24 19 -7 60 4 10 3 17 -4 17 -6 0 -11 -4
-11 -10 0 -5 -5 -10 -12 -10 -6 0 -20 -8 -31 -17 -20 -18 -20 -18 -1 12 10 17
26 36 36 43 9 7 24 19 32 27 8 8 19 15 25 15 6 0 11 7 11 15 0 8 -4 15 -10 15
-17 0 -11 18 16 45 37 37 23 42 -16 5 -18 -17 -35 -29 -37 -26 -9 9 18 46 33
46 8 0 12 5 9 10 -4 7 -14 5 -28 -5 -39 -27 -48 -16 -16 19 17 19 47 41 67 49
21 9 48 25 61 38 l24 23 -21 9 c-12 6 -22 16 -22 24 0 7 -18 20 -40 29 -22 9
-40 22 -40 30 0 8 4 14 9 14 4 0 6 11 3 25 -3 20 -9 24 -24 19 -10 -3 -24 -1
-31 4 -7 5 -27 13 -45 17 -24 5 -32 12 -29 23 2 10 9 16 15 15 7 -2 12 4 12
12 0 8 2 15 4 15 2 0 20 -7 39 -15z m-103 -232 c0 -7 -7 -13 -15 -13 -15 0
-21 31 -8 43 8 8 23 -12 23 -30z m750 -9 c0 -9 -5 -14 -12 -12 -18 6 -21 28
-4 28 9 0 16 -7 16 -16z m400 -86 c0 -6 -7 -7 -16 -4 -9 3 -18 6 -20 6 -3 0
-3 4 1 10 7 11 35 2 35 -12z m-90 -12 c0 -3 -4 -8 -10 -11 -5 -3 -10 -1 -10 4
0 6 5 11 10 11 6 0 10 -2 10 -4z m75 -16 c3 -5 2 -10 -4 -10 -5 0 -13 5 -16
10 -3 6 -2 10 4 10 5 0 13 -4 16 -10z m62 -33 c3 -4 -1 -7 -10 -7 -9 0 -17 -4
-17 -10 0 -16 -14 -12 -26 8 -10 15 -7 17 18 16 15 0 31 -4 35 -7z m89 1 c5
-7 2 -9 -9 -5 -9 3 -18 0 -21 -9 -8 -21 -25 -17 -23 6 1 22 41 28 53 8z
m-1223 -15 c4 -3 0 -15 -9 -25 -13 -14 -20 -15 -31 -7 -11 10 -10 14 4 25 21
15 27 17 36 7z m955 -9 c14 -15 14 -16 -3 -13 -10 2 -20 10 -23 17 -5 17 6 15
26 -4z m-958 -62 c-13 -11 -22 -29 -22 -45 0 -15 -4 -24 -9 -21 -5 3 -9 -5 -9
-18 l-1 -23 -19 24 c-21 24 -24 20 -11 -14 5 -11 4 -25 -1 -32 -8 -10 -5 -13
11 -13 11 0 21 -4 21 -10 0 -5 -7 -7 -15 -4 -17 7 -21 -11 -5 -21 13 -8 13
-48 0 -61 -6 -6 -5 -18 4 -35 16 -32 16 -59 -1 -59 -7 0 -13 -4 -13 -10 0 -5
7 -10 16 -10 14 0 15 -2 3 -17 -8 -9 -9 -14 -3 -10 7 4 15 0 18 -9 10 -26 7
-36 -10 -30 -11 4 -15 2 -11 -7 3 -8 1 -20 -3 -28 -6 -8 -4 -16 3 -21 9 -6 9
-10 -2 -17 -11 -7 -10 -13 8 -32 20 -22 21 -24 5 -36 -11 -8 -13 -13 -5 -13 7
0 21 10 30 22 16 19 18 19 24 4 4 -11 3 -15 -4 -11 -6 4 -13 -2 -16 -13 -6
-23 -34 -25 -70 -4 -19 11 -22 10 -17 -3 4 -10 0 -15 -12 -16 -17 -1 -17 -2
-1 -6 9 -2 15 -9 12 -14 -4 -5 -1 -9 4 -9 6 0 11 -6 11 -14 0 -8 6 -17 13 -20
6 -3 0 -4 -15 -1 -32 6 -43 -7 -29 -34 7 -13 18 -17 30 -14 33 8 73 -44 67
-89 -2 -20 0 -40 5 -45 4 -4 -1 -19 -11 -33 -11 -14 -20 -19 -20 -12 0 6 -5
12 -11 12 -6 0 -8 -9 -4 -20 7 -21 -1 -25 -24 -11 -9 6 -10 11 -2 15 17 11 13
24 -7 30 -21 7 -92 68 -92 79 0 4 10 12 23 17 20 8 20 9 2 9 -21 1 -75 45 -75
61 0 5 7 16 16 24 17 18 54 22 54 6 0 -19 17 -10 28 15 10 21 9 25 -3 25 -8 0
-15 -4 -15 -9 0 -5 -17 -3 -37 5 -21 7 -46 13 -55 14 -10 0 -18 5 -18 11 0 5
-5 7 -11 3 -8 -4 -8 -1 -1 13 9 16 7 19 -16 20 -22 1 -23 0 -8 -6 15 -6 16 -9
5 -13 -8 -3 -25 -1 -39 4 -19 8 -21 12 -10 16 8 3 20 12 26 20 6 9 18 13 28 9
19 -8 21 3 4 23 -11 12 -10 12 5 0 27 -20 57 -22 63 -5 8 19 24 19 24 0 0 -8
7 -15 16 -15 14 0 14 3 4 15 -18 22 8 20 32 -2 16 -14 18 -14 18 0 0 8 -6 18
-12 21 -7 3 -4 4 8 1 13 -3 28 3 43 19 21 22 23 31 17 80 -5 38 -12 56 -21 56
-8 0 -12 -6 -9 -13 3 -8 -4 -13 -18 -14 -13 -1 -24 -7 -27 -14 -2 -6 -14 1
-27 17 -21 26 -23 27 -19 7 3 -20 1 -21 -26 -11 -32 11 -41 23 -10 13 21 -6
38 20 18 29 -7 3 -2 3 11 0 16 -4 22 -1 22 10 0 16 10 20 40 17 11 -1 11 1 -2
9 -10 6 -18 17 -18 25 0 8 -9 29 -20 47 -16 27 -26 33 -56 33 -19 1 -39 7 -44
14 -4 8 -13 10 -19 7 -17 -11 -13 -29 4 -22 8 3 15 2 15 -2 0 -4 -16 -12 -35
-18 -19 -6 -35 -8 -35 -3 0 4 5 9 12 11 6 2 8 10 4 17 -5 7 -14 10 -21 7 -7
-2 -16 2 -19 10 -8 21 -26 17 -23 -6 2 -11 6 -23 10 -26 4 -4 7 -16 7 -28 0
-11 12 -33 28 -49 24 -26 24 -28 5 -18 -18 9 -23 9 -23 0 0 -8 -4 -8 -15 1
-12 10 -15 9 -15 -6 0 -14 -3 -15 -12 -6 -7 7 -22 12 -34 12 -18 0 -21 4 -16
22 5 22 5 22 -24 -2 l-30 -25 39 -3 c53 -4 73 -24 48 -46 -17 -15 -20 -15 -43
4 -20 16 -27 17 -31 6 -7 -18 -61 -36 -77 -26 -21 13 0 32 31 28 31 -5 34 -1
20 21 -7 11 -12 11 -31 -2 -18 -12 -28 -13 -43 -5 -15 7 -22 7 -28 -3 -6 -10
-9 -3 -10 21 -1 19 -3 27 -6 18 -3 -11 -14 -18 -29 -18 -13 0 -24 -4 -24 -10
0 -5 -7 -10 -15 -10 -8 0 -15 -5 -15 -12 0 -6 -3 -8 -6 -5 -4 4 1 18 10 31 21
34 100 69 154 70 44 0 57 14 21 23 -21 6 -21 6 2 19 l24 13 -30 1 c-29 1 -29
1 -10 16 11 8 28 13 38 10 9 -2 14 0 11 6 -8 12 -56 1 -66 -15 -4 -7 -6 -18
-3 -24 3 -8 -4 -13 -17 -13 -11 0 -27 -8 -34 -17 -13 -17 -14 -17 -8 -1 4 11
0 20 -10 24 -9 3 -16 10 -16 16 0 5 4 7 9 4 5 -3 11 4 14 15 3 12 10 18 17 14
6 -4 22 0 35 9 14 9 42 20 62 25 l38 9 -37 1 c-20 1 -39 5 -43 11 -9 15 56 27
95 17 65 -17 134 -19 170 -4 31 14 39 13 85 -5 27 -10 58 -29 67 -41 26 -33
30 -15 8 31 -30 62 -27 90 13 100 27 7 33 6 39 -10 4 -11 12 -16 18 -13 5 3
10 2 10 -3 0 -16 41 -1 47 17 11 29 25 43 36 32 7 -7 3 -16 -13 -29z m1130 26
c0 -6 7 -20 17 -30 9 -10 12 -18 7 -18 -5 0 -18 14 -27 30 -10 17 -13 30 -8
30 6 0 11 -5 11 -12z m-626 -25 c4 -9 2 -21 -4 -27 -8 -8 -9 -6 -5 7 4 10 2
17 -4 17 -6 0 -11 5 -11 10 0 16 17 11 24 -7z m-100 -29 c3 -8 2 -12 -4 -9 -6
3 -10 10 -10 16 0 14 7 11 14 -7z m720 1 c11 -8 28 -15 38 -15 10 0 18 -4 18
-8 0 -5 10 -14 23 -20 22 -10 22 -11 -5 -11 -16 -1 -28 3 -28 8 0 5 -13 14
-30 21 -29 12 -60 40 -44 40 5 0 18 -7 28 -15z m-774 -19 c0 -3 -4 -8 -10 -11
-5 -3 -10 -1 -10 4 0 6 5 11 10 11 6 0 10 -2 10 -4z m239 -60 c-11 -11 -42
-10 -46 2 -3 7 1 10 11 6 10 -4 16 -1 16 7 0 10 3 10 12 1 6 -6 10 -14 7 -16z
m494 3 c15 -11 26 -25 24 -31 -1 -6 13 -15 32 -20 22 -6 30 -13 24 -19 -13
-13 -83 19 -83 38 0 7 -9 18 -20 25 -21 13 -27 28 -11 28 4 0 20 -9 34 -21z
m-1048 -9 c3 -5 -1 -10 -9 -10 -9 0 -16 5 -16 10 0 6 4 10 9 10 6 0 13 -4 16
-10z m471 -27 c-7 -7 -26 7 -26 19 0 6 6 6 15 -2 9 -7 13 -15 11 -17z m-456
-11 c0 -14 -8 -19 -30 -19 -16 0 -30 6 -30 12 0 18 11 25 37 25 16 0 23 -6 23
-18z m-800 -10 c-8 -2 -21 -11 -27 -20 -7 -9 -13 -11 -13 -5 0 18 31 44 43 36
7 -4 6 -8 -3 -11z m1852 -107 c12 -16 9 -32 -7 -39 -15 -5 -35 24 -50 74 l-7
25 28 -25 c16 -14 32 -29 36 -35z m-272 35 c0 -5 -7 -10 -16 -10 -8 0 -12 5
-9 10 3 6 10 10 16 10 5 0 9 -4 9 -10z m-1095 -10 c3 -5 1 -10 -4 -10 -6 0
-11 5 -11 10 0 6 2 10 4 10 3 0 8 -4 11 -10z m-55 -9 c0 -6 -4 -13 -10 -16 -5
-3 -10 1 -10 9 0 9 5 16 10 16 6 0 10 -4 10 -9z m895 -11 c3 -5 2 -10 -4 -10
-5 0 -13 5 -16 10 -3 6 -2 10 4 10 5 0 13 -4 16 -10z m95 0 c0 -5 -4 -10 -10
-10 -5 0 -10 5 -10 10 0 6 5 10 10 10 6 0 10 -4 10 -10z m170 -6 c0 -8 -5 -12
-10 -9 -6 4 -8 11 -5 16 9 14 15 11 15 -7z m-1492 -73 c8 -24 7 -31 -4 -35
-12 -4 -14 -1 -9 15 4 11 1 26 -5 34 -8 9 -8 15 -2 15 5 0 15 -13 20 -29z
m1282 -5 c7 -9 9 -16 6 -16 -13 0 -56 32 -56 42 0 11 32 -6 50 -26z m50 24 c0
-5 -2 -10 -4 -10 -3 0 -8 5 -11 10 -3 6 -1 10 4 10 6 0 11 -4 11 -10z m-985
-10 c3 -5 1 -10 -4 -10 -6 0 -11 5 -11 10 0 6 2 10 4 10 3 0 8 -4 11 -10z
m1070 0 c3 -5 1 -10 -4 -10 -6 0 -11 5 -11 10 0 6 2 10 4 10 3 0 8 -4 11 -10z
m-45 -15 c11 -13 10 -14 -4 -9 -9 3 -16 10 -16 15 0 13 6 11 20 -6z m-1390 1
c0 -3 -4 -8 -10 -11 -5 -3 -10 -1 -10 4 0 6 5 11 10 11 6 0 10 -2 10 -4z m65
-6 c3 -5 1 -10 -4 -10 -6 0 -11 5 -11 10 0 6 2 10 4 10 3 0 8 -4 11 -10z m260
0 c3 -5 -1 -10 -10 -10 -9 0 -13 5 -10 10 3 6 8 10 10 10 2 0 7 -4 10 -10z
m-255 -24 c0 -3 -4 -8 -10 -11 -5 -3 -10 -1 -10 4 0 6 5 11 10 11 6 0 10 -2
10 -4z m300 -16 c-8 -5 -17 -7 -19 -4 -3 3 1 9 9 14 8 5 17 7 19 4 3 -3 -1 -9
-9 -14z m49 -19 c-6 -2 -15 3 -20 10 -15 24 -10 29 11 11 12 -10 16 -18 9 -21z
m136 19 c3 -5 -1 -10 -10 -10 -9 0 -13 5 -10 10 3 6 8 10 10 10 2 0 7 -4 10
-10z m-225 -14 c0 -3 -4 -8 -10 -11 -5 -3 -10 -1 -10 4 0 6 5 11 10 11 6 0 10
-2 10 -4z m178 -18 c7 -7 12 -16 12 -20 0 -12 -34 -10 -48 4 -8 8 -15 8 -27
-2 -12 -10 -15 -10 -15 5 0 14 6 16 30 11 19 -3 29 -2 25 4 -9 14 9 12 23 -2z
m-368 -6 c0 -5 -16 -14 -36 -20 -38 -11 -39 -7 -2 14 28 15 38 17 38 6z m261
-3 c11 -5 17 -14 15 -18 -6 -10 -76 10 -76 21 0 12 38 10 61 -3z m-78 -17 c-2
-7 4 -12 12 -12 8 0 15 -4 15 -10 0 -5 -9 -10 -20 -10 -11 0 -20 7 -20 15 0 8
-7 15 -15 15 -17 0 -20 -16 -5 -25 6 -3 10 -10 10 -16 0 -15 -19 -10 -37 10
-9 11 -20 18 -25 15 -4 -3 -8 -1 -8 4 0 11 58 31 80 28 8 -1 14 -8 13 -14z
m247 8 c0 -5 -4 -10 -10 -10 -5 0 -10 5 -10 10 0 6 5 10 10 10 6 0 10 -4 10
-10z m745 -11 c-12 -12 -29 -19 -45 -17 -14 1 -40 -5 -57 -14 -34 -17 -33 -18
-37 24 -1 7 22 13 64 15 35 2 66 6 69 8 2 3 9 5 14 5 6 0 2 -9 -8 -21z m65 1
c0 -5 -4 -10 -10 -10 -5 0 -10 5 -10 10 0 6 5 10 10 10 6 0 10 -4 10 -10z
m-732 -11 c-2 -6 -8 -10 -13 -10 -5 0 -11 4 -13 10 -2 6 4 11 13 11 9 0 15 -5
13 -11z m792 -4 c-9 -11 -8 -20 10 -45 12 -16 18 -34 15 -40 -3 -5 -1 -10 4
-10 6 0 11 -6 11 -14 0 -21 -46 -7 -58 17 -6 12 -11 16 -11 10 -1 -15 -31 -18
-31 -4 0 5 8 17 17 26 13 14 14 21 4 36 -15 25 -6 39 26 39 21 0 23 -2 13 -15z
m204 -17 c-14 -47 -22 -52 -22 -15 0 26 4 37 15 37 10 0 12 -6 7 -22z m-1524
-2 c0 -3 -4 -8 -10 -11 -5 -3 -10 -1 -10 4 0 6 5 11 10 11 6 0 10 -2 10 -4z
m320 -17 c0 -11 -27 -12 -34 0 -3 4 -3 11 0 14 8 8 34 -3 34 -14z m1060 11 c0
-5 -2 -10 -4 -10 -3 0 -8 5 -11 10 -3 6 -1 10 4 10 6 0 11 -4 11 -10z m-840
-20 c0 -14 -28 -19 -33 -5 -3 7 -3 15 0 18 7 7 33 -3 33 -13z m735 10 c3 -5
-1 -10 -9 -10 -9 0 -16 5 -16 10 0 6 4 10 9 10 6 0 13 -4 16 -10z m-1138 -16
c-3 -3 -12 -4 -19 -1 -8 3 -5 6 6 6 11 1 17 -2 13 -5z m1269 -24 c-3 -16 -9
-43 -12 -60 -6 -34 -21 -38 -50 -14 -17 14 -17 15 -1 10 21 -7 40 32 26 50
-14 17 0 44 23 44 16 0 19 -5 14 -30z m-1226 1 c0 -9 -24 -21 -43 -21 -6 0 -2
7 9 15 22 17 34 19 34 6z m1030 -12 c0 -6 -4 -7 -10 -4 -5 3 -10 11 -10 16 0
6 5 7 10 4 6 -3 10 -11 10 -16z m-610 -19 c0 -5 -4 -10 -10 -10 -5 0 -10 5
-10 10 0 6 5 10 10 10 6 0 10 -4 10 -10z m610 -10 c0 -5 -9 -10 -21 -10 -11 0
-17 5 -14 10 3 6 13 10 21 10 8 0 14 -4 14 -10z m-48 -56 c-9 -16 -10 -14 -9
8 1 15 6 23 11 18 4 -4 4 -16 -2 -26z m-642 6 c0 -5 -7 -10 -15 -10 -8 0 -15
5 -15 10 0 6 7 10 15 10 8 0 15 -4 15 -10z m619 -6 c8 -7 -12 -24 -30 -24 -13
0 -19 7 -19 21 0 16 4 19 23 13 12 -3 24 -8 26 -10z m-69 -31 c0 -9 7 -25 17
-35 15 -17 15 -18 0 -18 -10 0 -17 5 -17 11 0 8 -4 8 -15 -1 -17 -14 -39 -4
-31 16 3 8 0 14 -7 14 -16 1 23 30 40 30 7 0 13 -8 13 -17z m-780 -67 c0 -2
-7 -9 -15 -16 -12 -10 -15 -10 -15 4 0 9 7 16 15 16 8 0 15 -2 15 -4z m1125
-106 c3 -5 2 -10 -4 -10 -5 0 -13 5 -16 10 -3 6 -2 10 4 10 5 0 13 -4 16 -10z
m-1100 -30 c3 -5 1 -10 -4 -10 -6 0 -11 5 -11 10 0 6 2 10 4 10 3 0 8 -4 11
-10z m1309 -55 c-4 -8 -8 -15 -10 -15 -2 0 -4 7 -4 15 0 8 4 15 10 15 5 0 7
-7 4 -15z m-1014 -49 c0 -3 -4 -8 -10 -11 -5 -3 -10 -1 -10 4 0 6 5 11 10 11
6 0 10 -2 10 -4z m360 -31 c0 -8 -4 -15 -10 -15 -5 0 -10 7 -10 15 0 8 5 15
10 15 6 0 10 -7 10 -15z"/>
<path d="M1667 1774 c-11 -11 5 -34 24 -34 17 0 18 3 9 20 -11 20 -22 25 -33
14z"/>
<path d="M1175 1610 c-8 -13 5 -13 25 0 13 8 13 10 -2 10 -9 0 -20 -4 -23 -10z"/>
<path d="M1577 1465 c-5 -10 0 -15 14 -15 12 0 19 5 17 12 -6 18 -25 20 -31 3z"/>
<path d="M1629 1469 c-12 -7 -11 -9 3 -9 22 0 48 -38 41 -59 -5 -12 -3 -13 6
-5 10 9 10 17 2 32 -6 10 -8 22 -5 25 11 11 -32 26 -47 16z"/>
<path d="M1370 1456 c0 -2 7 -7 16 -10 8 -3 12 -2 9 4 -6 10 -25 14 -25 6z"/>
<path d="M1152 1426 c1 -14 7 -22 12 -19 5 4 7 -1 3 -9 -7 -21 3 -31 18 -18
14 11 8 63 -6 54 -5 -3 -9 0 -9 5 0 6 -4 11 -10 11 -5 0 -9 -11 -8 -24z"/>
<path d="M1690 1437 c0 -8 7 -17 15 -21 8 -3 15 -12 15 -20 0 -8 4 -17 10 -21
14 -9 -9 52 -26 66 -11 9 -14 8 -14 -4z"/>
<path d="M1085 1350 c-3 -5 -1 -10 4 -10 6 0 11 5 11 10 0 6 -2 10 -4 10 -3 0
-8 -4 -11 -10z"/>
<path d="M1205 1340 c-3 -5 -1 -10 4 -10 6 0 11 5 11 10 0 6 -2 10 -4 10 -3 0
-8 -4 -11 -10z"/>
<path d="M1751 1301 c-6 -10 -7 -22 -3 -25 4 -4 -1 -12 -11 -17 -9 -6 -15 -15
-12 -20 4 -5 11 -6 17 -3 7 5 9 2 5 -8 -7 -19 17 -18 36 1 9 10 9 15 -3 24 -8
7 -16 18 -18 26 -3 12 -1 12 13 1 14 -12 18 -11 26 1 15 25 10 39 -16 39 -13
0 -29 -8 -34 -19z"/>
<path d="M1830 1269 c0 -5 5 -7 10 -4 6 3 10 8 10 11 0 2 -4 4 -10 4 -5 0 -10
-5 -10 -11z"/>
<path d="M1860 1265 c0 -18 19 -40 26 -32 4 4 0 15 -9 24 -9 10 -17 13 -17 8z"/>
<path d="M1695 1230 c3 -5 8 -10 11 -10 2 0 4 5 4 10 0 6 -5 10 -11 10 -5 0
-7 -4 -4 -10z"/>
<path d="M1289 1143 c-7 -18 -6 -30 1 -37 7 -7 10 -5 10 6 0 8 7 21 15 28 8 7
12 16 9 21 -10 17 -24 9 -35 -18z"/>
<path d="M1240 1039 c0 -11 4 -18 10 -14 5 3 7 12 3 20 -7 21 -13 19 -13 -6z"/>
<path d="M1856 1047 c3 -10 9 -15 12 -12 3 3 0 11 -7 18 -10 9 -11 8 -5 -6z"/>
<path d="M1876 1005 c-3 -8 -1 -15 4 -15 6 0 10 7 10 15 0 8 -2 15 -4 15 -2 0
-6 -7 -10 -15z"/>
<path d="M1408 943 c3 -17 -1 -30 -11 -38 -11 -7 -13 -16 -6 -26 6 -10 9 -10
9 -1 0 6 6 12 14 12 8 0 17 -6 19 -12 3 -8 6 -6 6 5 1 9 -5 17 -11 17 -9 0 -9
3 1 9 9 6 11 15 6 27 -5 11 -7 22 -7 27 1 4 -4 7 -12 7 -9 0 -12 -8 -8 -27z"/>
<path d="M1321 914 c0 -11 3 -14 6 -6 3 7 2 16 -1 19 -3 4 -6 -2 -5 -13z"/>
<path d="M1320 789 c0 -5 5 -7 10 -4 6 3 10 8 10 11 0 2 -4 4 -10 4 -5 0 -10
-5 -10 -11z"/>
<path d="M707 1305 c11 -8 33 -17 49 -21 l29 -7 -25 20 c-14 10 -36 20 -49 21
-23 1 -23 1 -4 -13z"/>
<path d="M385 1247 c-6 -7 -15 -18 -19 -25 -7 -11 -4 -11 13 0 12 7 21 18 21
25 0 16 -2 16 -15 0z"/>
<path d="M533 1215 c-19 -21 -6 -47 18 -34 14 7 19 6 19 -4 0 -19 28 -42 38
-32 4 4 1 10 -5 12 -7 3 -13 11 -13 19 0 8 -7 17 -16 21 -8 3 -13 12 -10 19 7
18 -15 17 -31 -1z"/>
<path d="M910 1200 c0 -5 5 -10 11 -10 5 0 7 5 4 10 -3 6 -8 10 -11 10 -2 0
-4 -4 -4 -10z"/>
<path d="M480 1150 c0 -5 7 -10 16 -10 8 0 12 5 9 10 -3 6 -10 10 -16 10 -5 0
-9 -4 -9 -10z"/>
<path d="M450 1130 c0 -5 5 -10 11 -10 5 0 7 5 4 10 -3 6 -8 10 -11 10 -2 0
-4 -4 -4 -10z"/>
<path d="M430 1059 c0 -5 5 -7 10 -4 6 3 10 8 10 11 0 2 -4 4 -10 4 -5 0 -10
-5 -10 -11z"/>
<path d="M908 868 c9 -9 15 -9 24 0 9 9 7 12 -12 12 -19 0 -21 -3 -12 -12z"/>
<path d="M820 860 c0 -5 9 -10 21 -10 11 0 17 5 14 10 -3 6 -13 10 -21 10 -8
0 -14 -4 -14 -10z"/>
<path d="M830 700 c0 -5 7 -10 15 -10 7 0 18 -6 22 -14 7 -12 53 -33 53 -23 0
5 -77 57 -85 57 -3 0 -5 -4 -5 -10z"/>
<path d="M1296 2237 c3 -8 16 -12 32 -9 18 2 36 -4 51 -17 24 -21 25 -21 45
-2 12 11 37 24 56 29 29 8 15 10 -77 11 -89 1 -111 -2 -107 -12z"/>
<path d="M1690 2231 c0 -9 7 -26 16 -37 15 -18 15 -18 11 4 -4 19 -2 22 14 17
11 -4 19 -2 19 5 0 6 10 15 23 19 17 7 10 9 -30 9 -43 0 -53 -3 -53 -17z"/>
<path d="M1918 2235 c17 -8 32 -19 32 -24 0 -6 17 -22 39 -36 21 -14 44 -38
50 -53 22 -47 75 -111 94 -112 9 0 17 -4 17 -9 0 -5 6 -16 13 -23 22 -24 38
-58 27 -58 -5 0 -10 -5 -10 -11 0 -6 9 -8 20 -4 15 5 20 2 20 -13 0 -11 7 -22
15 -26 36 -14 0 59 -68 138 -14 17 -23 34 -20 40 4 6 9 4 11 -4 5 -16 22 -30
35 -30 18 0 -107 138 -174 193 -19 16 -27 25 -19 21 31 -15 188 -145 218 -180
l32 -37 0 51 c0 48 -2 52 -24 52 -54 0 -58 60 -6 79 23 7 30 16 30 35 0 33
-15 33 -36 1 -21 -32 -48 -32 -80 0 -23 23 -30 25 -137 24 -104 0 -110 -1 -79
-14z"/>
<path d="M1860 2188 c0 -6 -7 -20 -17 -30 -13 -14 -14 -23 -5 -41 6 -12 13
-43 17 -69 4 -34 11 -48 22 -48 10 0 14 -6 10 -19 -3 -11 1 -22 8 -24 6 -3 24
-26 39 -52 16 -26 47 -63 69 -83 23 -20 63 -58 88 -84 45 -47 77 -63 65 -33
-3 8 -9 22 -12 30 -4 10 0 15 11 15 11 0 15 -5 12 -15 -8 -20 33 -42 54 -29
13 8 -35 52 -64 59 -15 4 -25 11 -22 15 2 4 -13 15 -34 25 -52 23 -65 65 -19
65 10 0 18 5 18 10 0 6 -4 10 -10 10 -5 0 -10 7 -10 15 0 8 -18 34 -40 56 -22
23 -40 44 -40 48 0 4 -8 7 -18 8 -9 1 -24 3 -32 5 -9 2 -14 -3 -12 -13 1 -9
-6 -22 -15 -30 -10 -7 -15 -10 -11 -5 3 4 0 23 -8 41 -8 19 -14 48 -14 65 0
16 -5 30 -11 30 -7 0 -8 16 -3 45 4 30 3 45 -5 45 -6 0 -11 -5 -11 -12z m130
-288 c0 -5 -2 -10 -4 -10 -3 0 -8 5 -11 10 -3 6 -1 10 4 10 6 0 11 -4 11 -10z"/>
<path d="M530 2170 c0 -5 7 -7 15 -4 8 4 15 8 15 10 0 2 -7 4 -15 4 -8 0 -15
-4 -15 -10z"/>
<path d="M486 2144 c-24 -24 -19 -30 7 -8 12 10 24 20 26 21 2 2 -1 3 -7 3 -6
0 -18 -7 -26 -16z"/>
<path d="M1448 2123 c7 -3 16 -2 19 1 4 3 -2 6 -13 5 -11 0 -14 -3 -6 -6z"/>
<path d="M1495 2120 c3 -5 10 -10 16 -10 5 0 9 5 9 10 0 6 -7 10 -16 10 -8 0
-12 -4 -9 -10z"/>
<path d="M1540 2110 c20 -13 43 -13 35 0 -3 6 -16 10 -28 10 -18 0 -19 -2 -7
-10z"/>
<path d="M530 2090 c0 -5 5 -10 10 -10 6 0 10 5 10 10 0 6 -4 10 -10 10 -5 0
-10 -4 -10 -10z"/>
<path d="M2210 1988 c0 -7 9 -19 21 -26 19 -12 19 -11 10 7 -14 26 -31 36 -31
19z"/>
<path d="M270 1966 c0 -9 7 -16 16 -16 17 0 14 22 -4 28 -7 2 -12 -3 -12 -12z"/>
<path d="M440 1924 c0 -11 26 -32 50 -39 25 -7 25 -7 -3 19 -26 24 -47 33 -47
20z"/>
<path d="M230 1890 c0 -5 5 -10 10 -10 6 0 10 -7 10 -15 0 -8 5 -15 10 -15 6
0 10 -5 10 -11 0 -6 -8 -8 -17 -5 -15 5 -15 4 1 -9 11 -8 17 -18 13 -21 -4 -4
-13 -2 -21 5 -11 9 -15 9 -20 -1 -4 -9 -5 -9 -5 2 3 41 -3 56 -28 67 -32 15
-38 11 -23 -16 9 -18 8 -21 -8 -21 -10 0 -24 -6 -30 -12 -7 -7 -20 -13 -30
-13 -11 0 -17 -8 -16 -22 0 -12 -4 -21 -9 -20 -6 1 -16 -8 -22 -20 -7 -13 -15
-20 -18 -16 -4 3 -7 -1 -7 -10 0 -10 6 -17 13 -18 6 0 0 -5 -15 -11 l-28 -10
1 -161 c0 -89 3 -155 6 -147 7 19 90 100 102 100 5 0 12 11 15 24 6 23 48 41
87 37 10 -1 19 8 23 25 5 20 12 25 26 21 12 -3 24 1 30 11 8 15 11 15 20 2 5
-8 10 -11 10 -6 0 5 7 3 15 -4 12 -10 15 -10 15 4 0 18 -3 17 67 21 51 3 78
-9 53 -25 -8 -5 -7 -9 4 -13 10 -4 16 -1 16 8 0 8 7 15 15 15 8 0 14 6 13 13
-2 7 9 13 26 15 17 2 26 0 22 -7 -4 -5 -14 -7 -23 -4 -11 4 -14 3 -9 -5 4 -7
2 -12 -3 -12 -15 0 -14 -19 3 -36 20 -19 26 -18 26 6 0 12 7 20 16 20 13 0 14
-3 5 -14 -18 -22 11 -26 32 -4 9 10 13 18 7 18 -5 0 -10 7 -10 15 0 14 4 14
36 0 38 -16 85 -11 81 9 -1 6 6 11 15 11 18 0 50 25 32 25 -5 0 -3 4 4 9 12 7
12 12 1 30 -19 29 -37 27 -45 -5 l-7 -27 -19 24 c-12 15 -18 17 -15 7 4 -10
-1 -18 -14 -21 -25 -7 -36 13 -16 28 15 11 15 13 0 28 -15 15 -15 18 2 37 10
11 13 20 7 20 -7 0 -12 -5 -12 -11 0 -7 -10 -9 -27 -5 -21 5 -24 4 -13 -4 12
-8 12 -10 1 -10 -11 0 -9 -5 5 -21 18 -20 18 -21 -1 -35 -11 -8 -28 -21 -38
-29 -22 -19 -37 -19 -37 0 0 8 -8 15 -17 15 -15 0 -16 2 -3 10 8 5 23 7 33 4
9 -3 17 -1 17 5 0 6 -6 11 -12 11 -9 0 -8 4 2 10 13 8 13 10 -2 10 -21 0 -37
27 -30 52 3 14 0 17 -12 12 -9 -3 -13 -10 -10 -15 3 -5 0 -9 -5 -9 -6 0 -11 9
-11 19 0 25 -20 38 -31 20 -5 -9 -4 -16 4 -19 14 -6 21 -30 8 -30 -5 0 -14 6
-21 14 -6 8 -18 12 -26 9 -8 -3 -14 1 -14 7 0 9 -6 8 -19 -4 -16 -15 -19 -15
-31 -1 -10 12 -10 15 3 15 9 0 18 4 21 8 2 4 -12 6 -32 4 -32 -4 -35 -3 -24
11 19 23 -3 31 -32 12 -23 -16 -24 -15 -19 4 3 12 1 21 -6 21 -6 0 -11 6 -11
14 0 8 -7 17 -16 20 -21 8 -24 8 -24 -4z m90 -89 c0 -5 -9 -11 -20 -14 -17 -4
-18 -2 -9 14 9 18 29 18 29 0z m25 -39 c-8 -8 -25 10 -19 20 4 6 9 5 15 -3 4
-7 6 -15 4 -17z m-20 -29 c3 -10 0 -11 -13 -5 -9 5 -23 7 -31 4 -8 -3 -11 0
-7 6 9 15 44 11 51 -5z m85 -105 c-1 -10 -4 -9 -13 2 -13 16 -43 15 -64 -2 -9
-7 -13 -7 -13 1 0 6 15 17 32 24 35 14 58 4 58 -25z m100 12 c0 -5 -11 -10
-25 -10 -14 0 -25 5 -25 10 0 6 11 10 25 10 14 0 25 -4 25 -10z m-210 -10 c0
-5 -5 -10 -11 -10 -5 0 -7 5 -4 10 3 6 8 10 11 10 2 0 4 -4 4 -10z"/>
<path d="M770 1881 c0 -5 5 -13 10 -16 6 -3 10 -2 10 4 0 5 -4 13 -10 16 -5 3
-10 2 -10 -4z"/>
<path d="M440 1862 c0 -6 -8 -9 -17 -6 -15 5 -16 4 -3 -5 16 -11 40 3 27 16
-4 3 -7 1 -7 -5z"/>
<path d="M792 1825 c0 -16 2 -22 5 -12 2 9 2 23 0 30 -3 6 -5 -1 -5 -18z"/>
<path d="M2232 1803 c2 -68 17 -93 16 -27 0 28 -4 57 -9 65 -6 9 -8 -4 -7 -38z"/>
<path d="M2155 1780 c3 -5 8 -10 11 -10 2 0 4 5 4 10 0 6 -5 10 -11 10 -5 0
-7 -4 -4 -10z"/>
<path d="M545 1770 c-8 -13 25 -13 45 0 12 8 9 10 -12 10 -15 0 -30 -4 -33
-10z"/>
<path d="M690 1735 c13 -16 50 -21 50 -6 0 10 -24 21 -47 21 -13 0 -13 -3 -3
-15z"/>
<path d="M2241 1704 c0 -11 3 -14 6 -6 3 7 2 16 -1 19 -3 4 -6 -2 -5 -13z"/>
<path d="M785 1700 c-3 -6 1 -7 9 -4 18 7 21 14 7 14 -6 0 -13 -4 -16 -10z"/>
<path d="M2179 1653 c8 -32 51 -46 51 -18 0 12 -5 15 -16 11 -11 -4 -18 1 -21
14 -3 11 -9 20 -13 20 -5 0 -5 -12 -1 -27z"/>
<path d="M377 1593 c-11 -10 -8 -33 4 -33 11 0 39 24 39 34 0 8 -35 7 -43 -1z"/>
<path d="M284 1521 c1 -27 4 -31 29 -29 15 1 27 8 27 16 0 9 -6 12 -16 8 -8
-3 -12 -2 -9 4 3 6 16 10 28 11 22 0 22 0 -1 12 -19 8 -25 8 -33 -4 -7 -11
-11 -12 -18 -1 -5 9 -8 3 -7 -17z"/>
<path d="M750 1520 c0 -5 6 -10 14 -10 8 0 18 5 21 10 3 6 -3 10 -14 10 -12 0
-21 -4 -21 -10z"/>
<path d="M135 1500 c-3 -5 1 -10 9 -10 9 0 16 5 16 10 0 6 -4 10 -9 10 -6 0
-13 -4 -16 -10z"/>
<path d="M255 1500 c3 -5 8 -10 11 -10 2 0 4 5 4 10 0 6 -5 10 -11 10 -5 0 -7
-4 -4 -10z"/>
<path d="M195 1470 c-3 -6 1 -7 9 -4 18 7 21 14 7 14 -6 0 -13 -4 -16 -10z"/>
<path d="M490 1460 c0 -5 5 -10 10 -10 6 0 10 5 10 10 0 6 -4 10 -10 10 -5 0
-10 -4 -10 -10z"/>
<path d="M93 1453 c-15 -3 -23 -12 -23 -24 0 -16 4 -18 18 -11 9 5 23 7 30 5
6 -3 12 0 12 6 0 6 -5 11 -11 11 -5 0 -7 5 -4 10 3 6 5 9 3 9 -2 -1 -13 -4
-25 -6z"/>
<path d="M150 1449 c0 -5 5 -7 10 -4 6 3 10 8 10 11 0 2 -4 4 -10 4 -5 0 -10
-5 -10 -11z"/>
<path d="M317 1353 c-12 -12 -7 -22 8 -17 8 4 15 10 15 15 0 11 -14 12 -23 2z"/>
<path d="M2180 1150 c0 -5 6 -10 14 -10 8 0 18 5 21 10 3 6 -3 10 -14 10 -12
0 -21 -4 -21 -10z"/>
<path d="M2185 1056 c-14 -10 -25 -11 -37 -5 -12 6 -18 6 -18 0 0 -5 9 -12 19
-16 15 -4 19 -14 17 -49 0 -24 2 -42 7 -39 13 8 7 -57 -8 -88 -16 -29 -12 -93
5 -104 4 -3 17 11 29 30 11 20 27 38 36 41 20 8 22 160 3 167 -10 3 -10 7 -1
19 10 11 9 19 -3 36 -18 26 -24 27 -49 8z m38 -61 c9 -23 -8 -26 -26 -4 -16
18 -16 19 2 19 10 0 21 -7 24 -15z"/>
<path d="M76 967 c3 -10 9 -15 12 -12 3 3 0 11 -7 18 -10 9 -11 8 -5 -6z"/>
<path d="M0 858 c0 -19 2 -20 10 -8 13 19 13 30 0 30 -5 0 -10 -10 -10 -22z"/>
<path d="M10 800 c-5 -10 -9 -143 -9 -297 l0 -281 24 -28 c32 -38 32 -54 0
-24 -31 29 -34 9 -5 -35 25 -38 25 -48 0 -40 -11 3 -20 2 -20 -3 0 -6 12 -13
27 -17 31 -7 57 -36 41 -46 -6 -4 -7 -12 -4 -18 5 -8 87 -11 267 -11 l259 0 0
26 c0 19 -4 25 -15 20 -9 -3 -15 0 -15 9 0 8 -6 15 -13 15 -8 0 -22 9 -33 21
-13 15 -26 19 -47 15 -20 -4 -32 0 -44 14 -13 14 -19 16 -25 7 -5 -9 -12 -7
-25 7 -13 13 -15 20 -5 23 6 3 12 9 12 15 0 6 -7 8 -15 4 -10 -3 -15 1 -15 13
0 25 -20 31 -66 21 -29 -7 -43 -5 -55 6 -20 18 -29 18 -45 -3 -13 -17 -17 -15
-49 22 -39 45 -55 111 -37 157 8 22 7 28 -3 28 -17 0 -26 61 -11 79 9 12 8 13
-3 7 -10 -7 -12 -2 -6 23 5 24 3 31 -7 29 -7 -2 -13 4 -13 12 0 8 6 14 13 13
6 -2 12 0 13 5 4 32 5 112 2 95 -5 -25 -18 -30 -29 -11 -4 6 -2 14 4 16 7 2 9
8 6 13 -3 6 -11 5 -20 -2 -11 -9 -14 -7 -14 10 0 12 7 24 15 27 8 4 12 10 9
15 -3 6 -2 15 4 22 5 7 11 19 14 27 8 22 -50 22 -62 0z m53 -157 c-9 -3 -10
-10 -3 -24 8 -15 7 -17 -5 -13 -24 10 -17 45 9 43 6 0 6 -3 -1 -6z m18 -520
c13 -16 12 -17 -3 -4 -17 13 -22 21 -14 21 2 0 10 -8 17 -17z"/>
<path d="M130 784 c0 -8 5 -12 10 -9 6 3 10 10 10 16 0 5 -4 9 -10 9 -5 0 -10
-7 -10 -16z"/>
<path d="M2225 720 c-3 -5 -1 -10 4 -10 6 0 11 5 11 10 0 6 -2 10 -4 10 -3 0
-8 -4 -11 -10z"/>
<path d="M2221 654 c0 -11 3 -14 6 -6 3 7 2 16 -1 19 -3 4 -6 -2 -5 -13z"/>
<path d="M2206 529 c-22 -40 -34 -69 -28 -65 7 4 12 4 12 0 0 -11 -70 -114
-99 -146 -14 -16 -21 -28 -15 -28 5 0 19 15 32 33 101 139 142 202 142 216 0
9 -14 -4 -30 -29 -39 -59 -39 -38 0 24 17 27 30 52 28 58 -2 5 -21 -23 -42
-63z"/>
<path d="M85 530 c-3 -5 -1 -10 4 -10 6 0 11 5 11 10 0 6 -2 10 -4 10 -3 0 -8
-4 -11 -10z"/>
<path d="M1770 520 c-13 -8 -12 -10 3 -10 9 0 17 5 17 10 0 12 -1 12 -20 0z"/>
<path d="M1215 500 c-3 -5 1 -10 10 -10 9 0 13 5 10 10 -3 6 -8 10 -10 10 -2
0 -7 -4 -10 -10z"/>
<path d="M1797 481 c-3 -14 -11 -18 -26 -14 -12 3 -27 0 -35 -6 -7 -6 -26 -12
-42 -13 -59 -3 -135 -28 -180 -59 -26 -18 -59 -34 -73 -36 -79 -11 -101 -13
-148 -14 -29 -1 -50 -5 -47 -10 2 -4 -9 -6 -25 -4 -19 2 -31 -2 -35 -11 -3 -9
-10 -12 -16 -9 -12 7 -130 -45 -130 -57 0 -5 -5 -8 -11 -8 -5 0 -7 5 -4 10 3
6 -1 13 -10 16 -11 5 -13 10 -5 19 11 14 3 25 -18 25 -9 0 -13 -7 -9 -19 7
-27 -27 -33 -52 -10 -27 25 -35 24 -51 -6 -8 -14 -19 -24 -26 -21 -9 3 -9 -2
-1 -23 11 -31 3 -89 -17 -117 -14 -18 -15 -18 -35 0 -23 21 -23 21 -39 -10
-10 -18 -8 -27 9 -48 25 -31 24 -31 -18 -41 -27 -5 -33 -3 -33 10 0 21 -24 14
-28 -8 -3 -15 16 -17 214 -17 179 0 215 2 200 13 -31 23 -48 147 -25 189 23
42 62 72 95 74 28 1 35 -4 43 -28 6 -15 12 -28 15 -28 2 0 26 9 52 20 39 17
59 20 116 14 72 -7 79 -11 109 -71 22 -43 24 -57 7 -47 -10 5 -10 4 0 -7 7 -7
26 -14 41 -15 27 -1 29 1 35 48 10 73 -1 118 -28 118 -13 0 -26 3 -29 6 -12
13 14 44 37 44 13 0 29 7 36 15 7 8 22 15 34 15 17 0 18 2 6 10 -13 8 -13 9 0
13 55 17 110 28 117 24 5 -3 18 7 28 23 15 23 25 28 43 23 l24 -6 -23 27 c-27
31 -35 32 -42 7z m-862 -229 c-3 -3 -11 0 -18 7 -9 10 -8 11 6 5 10 -3 15 -9
12 -12z"/>
<path d="M201 474 c0 -11 3 -14 6 -6 3 7 2 16 -1 19 -3 4 -6 -2 -5 -13z"/>
<path d="M1151 477 c-9 -12 -7 -16 11 -21 36 -9 48 -7 48 9 0 8 -4 15 -9 15
-5 0 -16 2 -24 5 -7 3 -19 0 -26 -8z"/>
<path d="M2185 406 c-94 -141 -222 -274 -348 -360 -31 -22 -55 -42 -52 -44 3
-3 23 1 46 8 32 11 45 11 60 2 10 -7 40 -12 66 -11 l48 1 -33 14 c-18 8 -35
21 -39 30 -7 19 34 64 58 64 10 0 21 5 24 10 4 6 11 7 17 4 6 -4 8 1 4 14 -6
19 17 82 30 82 3 0 2 -4 -1 -10 -4 -6 5 -10 19 -10 21 0 26 -5 26 -25 0 -23 3
-25 28 -19 15 4 46 21 69 38 36 27 42 36 43 69 0 20 -4 37 -10 37 -5 0 -19 9
-30 20 l-21 21 29 31 c23 24 30 41 30 74 1 24 -1 44 -3 44 -2 0 -29 -38 -60
-84z m-33 -140 c7 4 8 2 4 -4 -4 -7 -1 -12 9 -12 15 0 15 -2 2 -15 -9 -8 -17
-20 -19 -26 -3 -9 -10 -8 -28 2 -14 7 -29 12 -33 11 -5 -2 -7 3 -4 10 2 7 12
12 21 12 9 -1 15 3 13 9 -2 7 1 17 7 23 8 9 12 9 14 -2 2 -8 8 -11 14 -8z"/>
<path d="M2130 240 c0 -5 5 -10 10 -10 6 0 10 5 10 10 0 6 -4 10 -10 10 -5 0
-10 -4 -10 -10z"/>
<path d="M328 469 c19 -20 14 -35 -15 -49 -27 -12 -27 -13 -7 -20 12 -5 25
-13 28 -18 6 -11 -41 -35 -54 -27 -13 8 -40 -6 -40 -20 0 -7 7 -18 15 -25 9
-8 13 -21 9 -32 -5 -16 -2 -18 19 -13 14 4 28 2 31 -4 4 -5 14 -7 22 -4 10 4
17 -2 21 -16 3 -14 16 -24 33 -28 21 -4 29 -12 34 -34 7 -36 31 -38 62 -3 17
18 30 23 44 19 14 -5 20 -2 20 9 0 11 9 16 29 16 16 0 31 6 35 15 3 8 16 15
28 15 21 1 21 2 5 11 -10 6 -28 9 -40 7 -12 -1 -33 5 -47 15 -16 11 -28 13
-34 7 -6 -6 -13 -10 -18 -10 -13 0 -29 40 -23 59 5 18 8 18 38 3 18 -9 38 -22
45 -29 16 -15 32 -17 32 -3 0 6 -4 10 -10 10 -6 0 -5 10 2 25 13 29 16 30 47
9 13 -9 46 -18 74 -20 44 -3 49 -2 32 9 -11 7 -54 23 -95 36 -41 12 -86 27
-100 33 -53 21 -136 46 -152 45 -9 0 -19 -6 -22 -14 -8 -20 -24 -15 -28 9 -2
12 -10 23 -18 26 -12 4 -13 2 -2 -9z m112 -153 c0 -17 -14 -29 -23 -20 -8 8 3
34 14 34 5 0 9 -6 9 -14z m62 -54 c10 -7 15 -18 12 -24 -8 -13 -44 30 -43 52
1 13 1 13 6 0 4 -8 15 -21 25 -28z m-52 -2 c0 -5 -4 -10 -10 -10 -5 0 -10 5
-10 10 0 6 5 10 10 10 6 0 10 -4 10 -10z m-45 -10 c3 -5 1 -10 -4 -10 -6 0
-11 5 -11 10 0 6 2 10 4 10 3 0 8 -4 11 -10z"/>
<path d="M170 445 c0 -15 4 -24 10 -20 6 3 10 12 10 20 0 8 -4 17 -10 20 -6 4
-10 -5 -10 -20z"/>
<path d="M1935 380 c-4 -6 -12 -7 -18 -4 -9 5 -9 4 -1 -5 11 -12 44 -5 44 10
0 12 -17 11 -25 -1z"/>
<path d="M2095 370 c-10 -11 -14 -20 -9 -20 5 0 15 9 22 20 7 11 11 20 9 20
-2 0 -12 -9 -22 -20z"/>
<path d="M760 311 c0 -12 48 -46 55 -39 3 2 -9 14 -25 27 -17 12 -30 17 -30
12z"/>
<path d="M1127 153 c-4 -3 -7 -11 -7 -17 0 -6 5 -5 12 2 6 6 9 14 7 17 -3 3
-9 2 -12 -2z"/>
<path d="M2051 118 c-7 -18 -5 -25 9 -31 13 -7 29 0 60 22 35 25 39 31 22 31
-12 0 -22 -4 -22 -10 0 -5 -7 -10 -15 -10 -8 0 -15 5 -15 10 0 19 -31 10 -39
-12z m29 2 c0 -5 -4 -10 -10 -10 -5 0 -10 5 -10 10 0 6 5 10 10 10 6 0 10 -4
10 -10z"/>
<path d="M654 114 c3 -9 6 -18 6 -20 0 -2 7 -4 16 -4 11 0 14 5 10 16 -3 9 -6
18 -6 20 0 2 -7 4 -16 4 -11 0 -14 -5 -10 -16z"/>
<path d="M1120 106 c0 -18 22 -26 71 -26 24 0 38 4 34 10 -3 6 -20 10 -36 10
-17 0 -39 5 -50 10 -15 8 -19 7 -19 -4z"/>
<path d="M1600 105 c0 -8 2 -15 4 -15 2 0 6 7 10 15 3 8 1 15 -4 15 -6 0 -10
-7 -10 -15z"/>
<path d="M1120 56 c0 -8 7 -16 15 -20 8 -3 14 -11 13 -18 -2 -7 7 -14 20 -16
32 -5 28 20 -8 46 -34 26 -40 27 -40 8z"/>
<path d="M1440 40 c0 -5 5 -10 10 -10 6 0 10 5 10 10 0 6 -4 10 -10 10 -5 0
-10 -4 -10 -10z"/>
<path d="M1270 18 c0 -14 24 -20 66 -16 l39 3 -52 11 c-29 6 -53 7 -53 2z"/>
<path d="M1548 3 c7 -3 16 -2 19 1 4 3 -2 6 -13 5 -11 0 -14 -3 -6 -6z"/>
</g>
</svg>
