<svg width="41" height="33" viewBox="0 0 41 33" fill="none" xmlns="http://www.w3.org/2000/svg">
<path d="M0.0400595 17.3323C0.0400595 14.7795 0.0400595 12.2267 0.0400595 9.66614C0.0400595 8.5435 0.951313 7.72844 2.054 7.62079C3.32516 7.49776 4.53506 7.85147 5.64541 8.25131C6.93954 8.72036 8.24133 9.3355 9.24448 10.3736C9.58907 10.7273 9.97194 10.7119 10.3089 10.4504C11.5571 9.50466 12.8742 8.67422 14.3061 8.02832C15.3476 7.55928 15.0413 6.91338 14.7273 6.02142C14.2678 4.70656 13.6859 3.22253 13.6706 1.81539C13.6552 -0.283782 15.8377 -0.0607925 17.3156 0.092993C20.7538 0.454389 25.67 0.685067 27.8371 3.84536C28.3884 4.66042 28.5722 5.62927 29.2001 6.37513C29.292 6.48278 29.2997 6.63657 29.4911 6.64426C34.9433 6.95952 37.9987 12.0421 40.5487 16.2097C41.3068 17.4554 40.6482 18.3012 40.25 19.2316C39.0708 21.9613 36.9573 24.2373 34.4839 25.8521C33.2433 26.6594 31.9109 27.3053 30.5019 27.7667C29.5371 28.0819 28.4267 28.3511 27.6227 29.0124C26.8186 29.6736 26.1601 30.4195 25.2795 30.9885C23.9011 31.8805 22.3543 32.511 20.7462 32.8185C19.6052 33.0338 17.6066 32.9954 17.5759 31.2961C17.5606 30.4118 17.5606 29.5275 17.5606 28.6433C17.5606 28.3511 17.5147 28.205 17.1624 28.0589C16.121 27.6283 15.0413 27.3053 14.0151 26.7825C12.7823 26.1596 11.7332 25.2907 10.5386 24.6372C9.367 23.9913 9.4206 24.0066 8.29493 25.0139C7.16927 26.0289 5.52289 26.5979 4.07561 26.9824C2.69724 27.3515 0.047718 27.2515 0.0170876 25.2831C-0.0288579 22.6303 0.0324002 19.9621 0.0324002 17.3093L0.0400595 17.3323ZM31.1758 16.3943C31.306 15.0025 29.7209 13.457 28.2047 13.4723C26.8033 13.48 25.2871 15.064 25.2948 16.425C25.3101 17.8552 26.8493 19.37 28.2353 19.3623C29.6519 19.3546 31.3136 17.9167 31.1681 16.3943H31.1758Z" fill="#997DC6"/>
</svg>
