<svg width="23" height="21" viewBox="0 0 23 21" fill="none" xmlns="http://www.w3.org/2000/svg">
<g clip-path="url(#clip0_551_6015)">
<path d="M15.1766 11.0046C15.409 11.8858 15.2644 12.8208 15.0139 13.6995C14.9262 14.0162 14.8203 14.3355 14.6396 14.614C14.4588 14.8924 14.211 15.1223 13.9373 15.3139C12.7522 16.1543 11.0558 16.2718 9.75709 15.6C8.46095 14.9307 7.62956 13.5079 7.71219 12.0979C7.85419 9.65582 10.5136 7.7732 12.9716 8.64682C14.0457 9.02998 14.8977 9.93936 15.1766 11.0046Z" fill="currentColor"/>
<path d="M15.0139 13.6995C14.9262 14.0162 14.8203 14.3355 14.6396 14.614C14.4588 14.8924 14.211 15.1223 13.9373 15.3139C12.7522 16.1543 11.0558 16.2718 9.75709 15.6C8.46095 14.9307 7.62956 13.5079 7.71219 12.0979C7.85419 9.65582 10.5136 7.7732 12.9716 8.64682C14.0457 9.02998 14.8977 9.93936 15.1766 11.0046C15.409 11.8858 15.2644 12.8208 15.0139 13.6995Z" fill="currentColor"/>
<path d="M15.0139 13.6995C14.9262 14.0162 14.8203 14.3355 14.6396 14.614C14.4588 14.8924 14.211 15.1223 13.9373 15.3139C12.7522 16.1543 11.0558 16.2718 9.75709 15.6C8.46095 14.9307 7.62956 13.5079 7.71219 12.0979C7.85419 9.65582 10.5136 7.7732 12.9716 8.64682C14.0457 9.02998 14.8977 9.93936 15.1766 11.0046C15.409 11.8858 15.2644 12.8208 15.0139 13.6995Z" fill="currentColor"/>
<path d="M21.1952 8.18696C20.7511 7.7476 20.2605 7.36699 19.7389 7.03491C20.1753 6.55723 20.5058 5.92629 20.8363 5.45627C21.2365 4.88408 21.0093 4.17905 20.5264 3.85464C20.2321 3.6554 19.8422 3.59664 19.4446 3.79844C19.1167 3.96448 18.8637 4.24291 18.6287 4.5239C18.3292 4.88152 17.8541 5.39241 17.583 5.93395C16.842 5.62486 16.0752 5.36687 15.3135 5.13186C14.3427 4.83299 13.3383 4.55711 12.321 4.41406V2.28622C12.321 1.90305 12.3959 1.4407 12.3468 1.06775C12.2668 0.441917 11.691 0.00510887 11.1488 0C10.7925 0 10.4517 0.17881 10.2735 0.615619C10.1134 1.00134 10.1083 1.42793 10.1031 1.84175C10.0979 2.27856 10.0928 2.71536 10.0876 3.14962C10.0825 3.54811 10.0799 3.94405 10.0747 4.34254C9.99467 4.3502 9.91721 4.36042 9.83717 4.37064C8.13825 4.59543 6.77756 5.13441 5.30843 6.03613C4.97536 6.24048 4.64487 6.4525 4.32213 6.67218C3.95549 6.25325 3.58886 5.83433 3.22222 5.4154C2.97693 5.13697 2.72649 4.85342 2.40116 4.66695C2.07842 4.48303 1.66272 4.41662 1.32965 4.58776C1.27027 4.61842 1.21863 4.65162 1.17215 4.68739C0.358838 5.30045 1.33481 6.58278 1.78924 7.13709C2.0242 7.42319 2.30305 7.73993 2.62321 7.98516C2.14813 8.41175 1.70662 8.8741 1.31932 9.37988C0.58605 10.3352 0.0360947 11.472 -5.25527e-05 12.67C-0.0878388 15.6408 2.53542 17.7099 4.90307 19.0178C6.72334 20.0268 8.74243 20.6858 10.8131 20.9438C12.8116 21.1941 14.6267 20.553 16.4702 19.7764C17.8774 19.1864 19.3852 18.4021 20.5884 17.3472C21.363 16.6702 22.0136 15.8809 22.4319 14.9613C23.4983 12.6138 23.0438 10.0083 21.1926 8.18696H21.1952ZM20.5729 14.5679C20.2244 15.3317 19.6847 15.9856 19.0418 16.5476C18.0426 17.4212 16.7929 18.0726 15.6259 18.5631C14.0974 19.2068 12.5895 19.7381 10.9319 19.5312C9.21492 19.3166 7.53924 18.77 6.0288 17.9347C4.06393 16.8465 1.88735 15.1299 1.95965 12.6674C1.99063 11.6738 2.44505 10.7286 3.05181 9.9393C3.93226 8.79236 5.1277 7.9213 6.36445 7.16263C7.58055 6.41674 8.71144 5.96716 10.1212 5.78324C11.6549 5.58144 13.2066 5.9646 14.6628 6.41418C16.4341 6.95828 18.2259 7.65308 19.5427 8.94818C21.079 10.4604 21.4559 12.6189 20.5729 14.5679Z" fill="currentColor"/>
</g>
<defs>
<clipPath id="clip0_551_6015">
<rect width="23" height="21" fill="white"/>
</clipPath>
</defs>
</svg>
