<svg width="27" height="33" viewBox="0 0 27 33" fill="none" xmlns="http://www.w3.org/2000/svg">
<g clip-path="url(#clip0_603_5849)">
<path d="M26.5728 8.96463C26.318 7.54286 25.8684 6.1585 25.3289 4.81905C24.7818 3.46463 24.2273 2.10272 23.2831 0.972789C23.1107 0.770748 22.9309 0.57619 22.721 0.426531C22.3388 0.134694 21.8592 0.00748299 21.3796 0C20.8476 0 20.4579 0.187075 19.9708 0.37415C18.8992 0.778231 17.8201 1.19728 16.7485 1.60884C15.6769 2.02041 14.7027 2.60408 13.6836 3.12041C10.8209 4.55714 8.4679 6.50272 6.81928 9.28639C5.74767 11.0898 4.78097 12.9082 4.47373 14.8463C3.76932 17.585 3.9117 20.1667 4.35383 22.7782C4.52619 23.7959 4.751 24.7912 4.99829 25.7864C5.20812 26.6245 4.84842 27.0585 4.17398 27.4925C3.49205 27.934 2.75766 28.2707 2.03077 28.6224C1.55866 28.8544 1.08655 29.1014 0.696877 29.4605C0.0748951 30.0367 -0.19488 30.9721 0.157326 31.7728C0.46457 32.4537 1.19896 32.8653 1.94084 32.9626C3.37964 33.1571 4.97581 32.551 6.24975 31.9374C7.57614 31.3088 8.79013 30.4782 9.92169 29.5653C10.6935 28.9442 11.6527 28.9293 12.522 28.7422C15.2348 28.151 17.7527 27.1633 20.0982 25.7041C21.582 24.7837 22.781 23.5116 23.9125 22.2395C24.4071 21.6782 24.8567 20.915 25.2464 20.1816C25.9433 18.8721 26.4005 17.5252 26.7002 16.0884C27.2023 13.7014 27.0075 11.3667 26.5728 8.96463ZM18.6369 18.3633C18.1648 19.5755 17.5878 20.8252 16.8984 21.9252C16.2839 22.9054 15.1823 23.4442 14.1632 23.9231C13.4587 24.2524 12.7543 24.5816 11.9975 24.7687C11.4729 24.9034 10.8959 24.9558 10.4238 24.7088C9.22477 24.0653 10.2739 23.0626 10.761 22.3741C11.2106 21.7231 11.7052 21.0946 12.1249 20.4211C12.8443 19.2986 13.3538 18.0789 14.0807 16.9639C14.4554 16.3952 14.8376 15.8116 15.3846 15.4C16.4188 14.6068 18.3447 14.8388 18.8767 16.1633C19.169 16.8816 18.9067 17.6823 18.6369 18.3633Z" fill="#997DC6"/>
</g>
<defs>
<clipPath id="clip0_603_5849">
<rect width="27" height="33" fill="white"/>
</clipPath>
</defs>
</svg>
